<ttFont>
    <TTGlyph name="A" xMin="35" yMin="0" xMax="794" yMax="732">
      <contour>
        <pt x="36" y="14" on="1"/>
        <pt x="110" y="14" on="1"/>
        <pt x="212" y="194" on="0"/>
        <pt x="415" y="551" on="0"/>
        <pt x="516" y="732" on="1"/>
        <pt x="567" y="551" on="0"/>
        <pt x="668" y="194" on="0"/>
        <pt x="719" y="14" on="1"/>
        <pt x="794" y="14" on="1"/>
        <pt x="793" y="0" on="1"/>
        <pt x="619" y="0" on="1"/>
        <pt x="620" y="14" on="1"/>
        <pt x="704" y="14" on="1"/>
        <pt x="683" y="89" on="0"/>
        <pt x="641" y="240" on="0"/>
        <pt x="619" y="316" on="1"/>
        <pt x="297" y="316" on="1"/>
        <pt x="254" y="240" on="0"/>
        <pt x="170" y="89" on="0"/>
        <pt x="126" y="14" on="1"/>
        <pt x="210" y="14" on="1"/>
        <pt x="209" y="0" on="1"/>
        <pt x="35" y="0" on="1"/>
      </contour>
      <contour>
        <pt x="517" y="675" on="1"/>
        <pt x="512" y="700" on="1"/>
        <pt x="505" y="686" on="1"/>
        <pt x="502" y="681" on="0"/>
        <pt x="499" y="675" on="1"/>
        <pt x="453" y="587" on="0"/>
        <pt x="354" y="417" on="0"/>
        <pt x="305" y="330" on="1"/>
        <pt x="615" y="330" on="1"/>
      </contour>
    </TTGlyph>
    <TTGlyph name="AE" xMin="35" yMin="0" xMax="824" yMax="700">
      <contour>
        <pt x="788" y="546" on="1"/>
        <pt x="808" y="686" on="1"/>
        <pt x="512" y="686" on="1"/>
        <pt x="466" y="360" on="1"/>
        <pt x="737" y="360" on="1"/>
        <pt x="735" y="346" on="1"/>
        <pt x="464" y="346" on="1"/>
        <pt x="417" y="14" on="1"/>
        <pt x="727" y="14" on="1"/>
        <pt x="747" y="154" on="1"/>
        <pt x="761" y="154" on="1"/>
        <pt x="740" y="0" on="1"/>
        <pt x="402" y="0" on="1"/>
        <pt x="446" y="316" on="1"/>
        <pt x="299" y="316" on="1"/>
        <pt x="256" y="240" on="0"/>
        <pt x="172" y="89" on="0"/>
        <pt x="128" y="14" on="1"/>
        <pt x="210" y="14" on="1"/>
        <pt x="209" y="0" on="1"/>
        <pt x="35" y="0" on="1"/>
        <pt x="36" y="14" on="1"/>
        <pt x="113" y="14" on="1"/>
        <pt x="211" y="186" on="0"/>
        <pt x="403" y="527" on="0"/>
        <pt x="500" y="700" on="1"/>
        <pt x="824" y="700" on="1"/>
        <pt x="802" y="546" on="1"/>
      </contour>
      <contour>
        <pt x="448" y="330" on="1"/>
        <pt x="495" y="666" on="1"/>
        <pt x="450" y="580" on="0"/>
        <pt x="355" y="415" on="0"/>
        <pt x="307" y="330" on="1"/>
      </contour>
    </TTGlyph>
    <TTGlyph name="Aacute" xMin="35" yMin="0" xMax="794" yMax="883">
      <component glyphName="acute" x="415" y="271" flags="0x4"/>
      <component glyphName="A" x="0" y="0" flags="0x4"/>
    </TTGlyph>
    <TTGlyph name="Acircumflex" xMin="35" yMin="0" xMax="794" yMax="931">
      <component glyphName="asciicircum" x="297" y="271" flags="0x4"/>
      <component glyphName="A" x="0" y="0" flags="0x4"/>
    </TTGlyph>
    <TTGlyph name="Adieresis" xMin="35" yMin="0" xMax="794" yMax="810">
      <component glyphName="dieresis" x="333" y="290" flags="0x4"/>
      <component glyphName="A" x="0" y="0" flags="0x4"/>
    </TTGlyph>
    <TTGlyph name="Agrave" xMin="35" yMin="0" xMax="794" yMax="883">
      <component glyphName="A" x="0" y="0" flags="0x204"/>
      <component glyphName="grave" x="440" y="271" flags="0x4"/>
    </TTGlyph>
    <TTGlyph name="Aring" xMin="35" yMin="0" xMax="794" yMax="897">
      <component glyphName="A" x="0" y="0" flags="0x204"/>
      <component glyphName="ring" x="346" y="294" flags="0x4"/>
    </TTGlyph>
    <TTGlyph name="Atilde" xMin="35" yMin="0" xMax="794" yMax="834">
      <component glyphName="asciitilde" x="241" y="293" flags="0x4"/>
      <component glyphName="A" x="0" y="0" flags="0x4"/>
    </TTGlyph>
    <TTGlyph name="B" xMin="35" yMin="0" xMax="534" yMax="700">
      <contour>
        <pt x="36" y="14" on="1"/>
        <pt x="107" y="14" on="1"/>
        <pt x="202" y="686" on="1"/>
        <pt x="131" y="686" on="1"/>
        <pt x="133" y="700" on="1"/>
        <pt x="349" y="700" on="1"/>
        <pt x="394" y="700" on="0"/>
        <pt x="466" y="680" on="0"/>
        <pt x="514" y="638" on="0"/>
        <pt x="534" y="571" on="0"/>
        <pt x="527" y="525" on="1"/>
        <pt x="519" y="463" on="0"/>
        <pt x="443" y="369" on="0"/>
        <pt x="376" y="352" on="1"/>
        <pt x="406" y="346" on="0"/>
        <pt x="457" y="318" on="0"/>
        <pt x="494" y="274" on="0"/>
        <pt x="511" y="216" on="0"/>
        <pt x="506" y="180" on="1"/>
        <pt x="500" y="135" on="0"/>
        <pt x="455" y="68" on="0"/>
        <pt x="389" y="23" on="0"/>
        <pt x="310" y="0" on="0"/>
        <pt x="269" y="0" on="1"/>
        <pt x="35" y="0" on="1"/>
      </contour>
      <contour>
        <pt x="168" y="344" on="1"/>
        <pt x="121" y="14" on="1"/>
        <pt x="269" y="14" on="1"/>
        <pt x="309" y="14" on="0"/>
        <pt x="385" y="34" on="0"/>
        <pt x="445" y="75" on="0"/>
        <pt x="485" y="136" on="0"/>
        <pt x="491" y="177" on="1"/>
        <pt x="497" y="220" on="0"/>
        <pt x="470" y="284" on="0"/>
        <pt x="414" y="324" on="0"/>
        <pt x="339" y="344" on="0"/>
        <pt x="297" y="344" on="1"/>
      </contour>
      <contour>
        <pt x="216" y="686" on="1"/>
        <pt x="170" y="358" on="1"/>
        <pt x="317" y="358" on="1"/>
        <pt x="357" y="358" on="0"/>
        <pt x="424" y="383" on="0"/>
        <pt x="476" y="428" on="0"/>
        <pt x="509" y="490" on="0"/>
        <pt x="514" y="528" on="1"/>
        <pt x="520" y="570" on="0"/>
        <pt x="502" y="630" on="0"/>
        <pt x="461" y="668" on="0"/>
        <pt x="398" y="686" on="0"/>
        <pt x="359" y="686" on="1"/>
      </contour>
    </TTGlyph>
    <TTGlyph name="C" xMin="74" yMin="-8" xMax="668" yMax="708">
      <contour>
        <pt x="638" y="546" on="1"/>
        <pt x="653" y="649" on="1"/>
        <pt x="582" y="694" on="0"/>
        <pt x="490" y="694" on="1"/>
        <pt x="419" y="694" on="0"/>
        <pt x="287" y="639" on="0"/>
        <pt x="180" y="545" on="0"/>
        <pt x="109" y="419" on="0"/>
        <pt x="99" y="348" on="1"/>
        <pt x="89" y="277" on="0"/>
        <pt x="125" y="153" on="0"/>
        <pt x="204" y="60" on="0"/>
        <pt x="320" y="6" on="0"/>
        <pt x="390" y="6" on="1"/>
        <pt x="438" y="6" on="0"/>
        <pt x="531" y="31" on="0"/>
        <pt x="573" y="54" on="1"/>
        <pt x="581" y="42" on="1"/>
        <pt x="537" y="19" on="0"/>
        <pt x="443" y="-8" on="0"/>
        <pt x="392" y="-8" on="1"/>
        <pt x="318" y="-8" on="0"/>
        <pt x="196" y="48" on="0"/>
        <pt x="112" y="145" on="0"/>
        <pt x="74" y="275" on="0"/>
        <pt x="85" y="349" on="1"/>
        <pt x="95" y="423" on="0"/>
        <pt x="170" y="554" on="0"/>
        <pt x="280" y="651" on="0"/>
        <pt x="418" y="708" on="0"/>
        <pt x="492" y="708" on="1"/>
        <pt x="543" y="708" on="0"/>
        <pt x="631" y="682" on="0"/>
        <pt x="668" y="658" on="1"/>
        <pt x="652" y="546" on="1"/>
      </contour>
    </TTGlyph>
    <TTGlyph name="Ccedilla" xMin="105" yMin="-223" xMax="698" yMax="708">
      <contour>
        <pt x="660" y="484" on="1"/>
        <pt x="683" y="649" on="1"/>
        <pt x="612" y="694" on="0"/>
        <pt x="520" y="694" on="1"/>
        <pt x="449" y="694" on="0"/>
        <pt x="317" y="639" on="0"/>
        <pt x="210" y="545" on="0"/>
        <pt x="139" y="419" on="0"/>
        <pt x="129" y="348" on="1"/>
        <pt x="119" y="277" on="0"/>
        <pt x="155" y="153" on="0"/>
        <pt x="234" y="60" on="0"/>
        <pt x="351" y="6" on="0"/>
        <pt x="421" y="6" on="1"/>
        <pt x="469" y="6" on="0"/>
        <pt x="561" y="31" on="0"/>
        <pt x="603" y="54" on="1"/>
        <pt x="611" y="42" on="1"/>
        <pt x="567" y="19" on="0"/>
        <pt x="473" y="-8" on="0"/>
        <pt x="422" y="-8" on="1"/>
        <pt x="420" y="-17" on="0"/>
        <pt x="422" y="-21" on="1"/>
        <pt x="424" y="-38" on="0"/>
        <pt x="445" y="-54" on="0"/>
        <pt x="455" y="-61" on="1"/>
        <pt x="475" y="-76" on="0"/>
        <pt x="490" y="-113" on="0"/>
        <pt x="488" y="-127" on="1"/>
        <pt x="480" y="-178" on="0"/>
        <pt x="424" y="-223" on="0"/>
        <pt x="391" y="-223" on="1"/>
        <pt x="365" y="-223" on="0"/>
        <pt x="323" y="-194" on="0"/>
        <pt x="318" y="-165" on="1"/>
        <pt x="333" y="-161" on="1"/>
        <pt x="336" y="-182" on="0"/>
        <pt x="367" y="-209" on="0"/>
        <pt x="392" y="-209" on="1"/>
        <pt x="423" y="-209" on="0"/>
        <pt x="468" y="-168" on="0"/>
        <pt x="473" y="-137" on="1"/>
        <pt x="477" y="-109" on="0"/>
        <pt x="455" y="-79" on="0"/>
        <pt x="427" y="-58" on="0"/>
        <pt x="404" y="-36" on="0"/>
        <pt x="407" y="-16" on="1"/>
        <pt x="408" y="-7" on="1"/>
        <pt x="337" y="-4" on="0"/>
        <pt x="220" y="53" on="0"/>
        <pt x="140" y="149" on="0"/>
        <pt x="105" y="277" on="0"/>
        <pt x="115" y="349" on="1"/>
        <pt x="125" y="423" on="0"/>
        <pt x="200" y="554" on="0"/>
        <pt x="310" y="651" on="0"/>
        <pt x="448" y="708" on="0"/>
        <pt x="522" y="708" on="1"/>
        <pt x="573" y="708" on="0"/>
        <pt x="661" y="682" on="0"/>
        <pt x="698" y="658" on="1"/>
        <pt x="674" y="484" on="1"/>
      </contour>
    </TTGlyph>
    <TTGlyph name="D" xMin="35" yMin="0" xMax="657" yMax="700">
      <contour>
        <pt x="36" y="14" on="1"/>
        <pt x="109" y="14" on="1"/>
        <pt x="204" y="686" on="1"/>
        <pt x="131" y="686" on="1"/>
        <pt x="133" y="700" on="1"/>
        <pt x="343" y="700" on="1"/>
        <pt x="415" y="700" on="0"/>
        <pt x="536" y="651" on="0"/>
        <pt x="619" y="560" on="0"/>
        <pt x="657" y="430" on="0"/>
        <pt x="646" y="350" on="1"/>
        <pt x="637" y="291" on="0"/>
        <pt x="579" y="167" on="0"/>
        <pt x="473" y="65" on="0"/>
        <pt x="317" y="0" on="0"/>
        <pt x="211" y="0" on="1"/>
        <pt x="35" y="0" on="1"/>
      </contour>
      <contour>
        <pt x="218" y="686" on="1"/>
        <pt x="123" y="14" on="1"/>
        <pt x="221" y="14" on="1"/>
        <pt x="320" y="14" on="0"/>
        <pt x="468" y="77" on="0"/>
        <pt x="568" y="174" on="0"/>
        <pt x="625" y="293" on="0"/>
        <pt x="633" y="350" on="1"/>
        <pt x="644" y="427" on="0"/>
        <pt x="608" y="552" on="0"/>
        <pt x="529" y="639" on="0"/>
        <pt x="414" y="686" on="0"/>
        <pt x="347" y="686" on="1"/>
      </contour>
    </TTGlyph>
    <TTGlyph name="E" xMin="35" yMin="0" xMax="620" yMax="700">
      <contour>
        <pt x="36" y="14" on="1"/>
        <pt x="118" y="14" on="1"/>
        <pt x="213" y="686" on="1"/>
        <pt x="131" y="686" on="1"/>
        <pt x="133" y="700" on="1"/>
        <pt x="620" y="700" on="1"/>
        <pt x="598" y="546" on="1"/>
        <pt x="584" y="546" on="1"/>
        <pt x="604" y="686" on="1"/>
        <pt x="227" y="686" on="1"/>
        <pt x="181" y="360" on="1"/>
        <pt x="533" y="360" on="1"/>
        <pt x="531" y="346" on="1"/>
        <pt x="179" y="346" on="1"/>
        <pt x="132" y="14" on="1"/>
        <pt x="523" y="14" on="1"/>
        <pt x="543" y="154" on="1"/>
        <pt x="557" y="154" on="1"/>
        <pt x="536" y="0" on="1"/>
        <pt x="35" y="0" on="1"/>
      </contour>
    </TTGlyph>
    <TTGlyph name="Eacute" xMin="35" yMin="0" xMax="620" yMax="883">
      <component glyphName="E" x="0" y="0" flags="0x204"/>
      <component glyphName="acute" x="300" y="271" flags="0x4"/>
    </TTGlyph>
    <TTGlyph name="Ecircumflex" xMin="35" yMin="0" xMax="620" yMax="931">
      <component glyphName="E" x="0" y="0" flags="0x204"/>
      <component glyphName="asciicircum" x="179" y="271" flags="0x4"/>
    </TTGlyph>
    <TTGlyph name="Edieresis" xMin="35" yMin="0" xMax="620" yMax="810">
      <component glyphName="E" x="0" y="0" flags="0x204"/>
      <component glyphName="dieresis" x="211" y="290" flags="0x4"/>
    </TTGlyph>
    <TTGlyph name="Egrave" xMin="35" yMin="0" xMax="620" yMax="883">
      <component glyphName="E" x="0" y="0" flags="0x204"/>
      <component glyphName="grave" x="316" y="271" flags="0x4"/>
    </TTGlyph>
    <TTGlyph name="Eth" xMin="35" yMin="0" xMax="657" yMax="700">
      <contour>
        <pt x="94" y="360" on="1"/>
        <pt x="158" y="360" on="1"/>
        <pt x="204" y="686" on="1"/>
        <pt x="131" y="686" on="1"/>
        <pt x="133" y="700" on="1"/>
        <pt x="343" y="700" on="1"/>
        <pt x="415" y="700" on="0"/>
        <pt x="536" y="651" on="0"/>
        <pt x="619" y="560" on="0"/>
        <pt x="657" y="430" on="0"/>
        <pt x="646" y="350" on="1"/>
        <pt x="637" y="291" on="0"/>
        <pt x="579" y="167" on="0"/>
        <pt x="473" y="65" on="0"/>
        <pt x="317" y="0" on="0"/>
        <pt x="211" y="0" on="1"/>
        <pt x="35" y="0" on="1"/>
        <pt x="36" y="14" on="1"/>
        <pt x="109" y="14" on="1"/>
        <pt x="156" y="346" on="1"/>
        <pt x="92" y="346" on="1"/>
      </contour>
      <contour>
        <pt x="218" y="686" on="1"/>
        <pt x="172" y="360" on="1"/>
        <pt x="396" y="360" on="1"/>
        <pt x="394" y="346" on="1"/>
        <pt x="170" y="346" on="1"/>
        <pt x="124" y="15" on="1"/>
        <pt x="222" y="15" on="1"/>
        <pt x="321" y="15" on="0"/>
        <pt x="468" y="77" on="0"/>
        <pt x="569" y="175" on="0"/>
        <pt x="625" y="293" on="0"/>
        <pt x="633" y="350" on="1"/>
        <pt x="644" y="427" on="0"/>
        <pt x="608" y="552" on="0"/>
        <pt x="529" y="639" on="0"/>
        <pt x="414" y="686" on="0"/>
        <pt x="347" y="686" on="1"/>
      </contour>
    </TTGlyph>
    <TTGlyph name="F" xMin="35" yMin="0" xMax="620" yMax="700">
      <contour>
        <pt x="36" y="14" on="1"/>
        <pt x="118" y="14" on="1"/>
        <pt x="213" y="686" on="1"/>
        <pt x="131" y="686" on="1"/>
        <pt x="133" y="700" on="1"/>
        <pt x="620" y="700" on="1"/>
        <pt x="598" y="546" on="1"/>
        <pt x="584" y="546" on="1"/>
        <pt x="604" y="686" on="1"/>
        <pt x="227" y="686" on="1"/>
        <pt x="181" y="360" on="1"/>
        <pt x="533" y="360" on="1"/>
        <pt x="531" y="346" on="1"/>
        <pt x="179" y="346" on="1"/>
        <pt x="132" y="14" on="1"/>
        <pt x="210" y="14" on="1"/>
        <pt x="209" y="0" on="1"/>
        <pt x="35" y="0" on="1"/>
      </contour>
    </TTGlyph>
    <TTGlyph name="G" xMin="23" yMin="-10" xMax="617" yMax="706">
      <contour>
        <pt x="565" y="298" on="1"/>
        <pt x="529" y="40" on="1"/>
        <pt x="486" y="17" on="0"/>
        <pt x="392" y="-10" on="0"/>
        <pt x="341" y="-10" on="1"/>
        <pt x="267" y="-10" on="0"/>
        <pt x="145" y="46" on="0"/>
        <pt x="61" y="143" on="0"/>
        <pt x="23" y="273" on="0"/>
        <pt x="33" y="347" on="1"/>
        <pt x="43" y="421" on="0"/>
        <pt x="118" y="552" on="0"/>
        <pt x="229" y="649" on="0"/>
        <pt x="367" y="706" on="0"/>
        <pt x="441" y="706" on="1"/>
        <pt x="492" y="706" on="0"/>
        <pt x="579" y="680" on="0"/>
        <pt x="617" y="656" on="1"/>
        <pt x="607" y="644" on="1"/>
        <pt x="572" y="667" on="0"/>
        <pt x="487" y="692" on="0"/>
        <pt x="439" y="692" on="1"/>
        <pt x="368" y="692" on="0"/>
        <pt x="235" y="637" on="0"/>
        <pt x="129" y="543" on="0"/>
        <pt x="57" y="417" on="0"/>
        <pt x="47" y="346" on="1"/>
        <pt x="37" y="275" on="0"/>
        <pt x="73" y="151" on="0"/>
        <pt x="153" y="58" on="0"/>
        <pt x="269" y="4" on="0"/>
        <pt x="339" y="4" on="1"/>
        <pt x="386" y="4" on="0"/>
        <pt x="474" y="27" on="0"/>
        <pt x="516" y="49" on="1"/>
        <pt x="550" y="284" on="1"/>
        <pt x="378" y="284" on="1"/>
        <pt x="379" y="298" on="1"/>
      </contour>
    </TTGlyph>
    <TTGlyph name="H" xMin="35" yMin="0" xMax="779" yMax="700">
      <contour>
        <pt x="605" y="700" on="1"/>
        <pt x="779" y="700" on="1"/>
        <pt x="777" y="686" on="1"/>
        <pt x="700" y="686" on="1"/>
        <pt x="605" y="14" on="1"/>
        <pt x="682" y="14" on="1"/>
        <pt x="681" y="0" on="1"/>
        <pt x="507" y="0" on="1"/>
        <pt x="508" y="14" on="1"/>
        <pt x="591" y="14" on="1"/>
        <pt x="638" y="346" on="1"/>
        <pt x="174" y="346" on="1"/>
        <pt x="127" y="14" on="1"/>
        <pt x="210" y="14" on="1"/>
        <pt x="209" y="0" on="1"/>
        <pt x="35" y="0" on="1"/>
        <pt x="36" y="14" on="1"/>
        <pt x="113" y="14" on="1"/>
        <pt x="208" y="686" on="1"/>
        <pt x="131" y="686" on="1"/>
        <pt x="133" y="700" on="1"/>
        <pt x="307" y="700" on="1"/>
        <pt x="305" y="686" on="1"/>
        <pt x="222" y="686" on="1"/>
        <pt x="176" y="360" on="1"/>
        <pt x="640" y="360" on="1"/>
        <pt x="686" y="686" on="1"/>
        <pt x="603" y="686" on="1"/>
      </contour>
    </TTGlyph>
    <TTGlyph name="I" xMin="35" yMin="0" xMax="307" yMax="700">
      <contour>
        <pt x="36" y="14" on="1"/>
        <pt x="113" y="14" on="1"/>
        <pt x="208" y="686" on="1"/>
        <pt x="131" y="686" on="1"/>
        <pt x="133" y="700" on="1"/>
        <pt x="307" y="700" on="1"/>
        <pt x="305" y="686" on="1"/>
        <pt x="222" y="686" on="1"/>
        <pt x="127" y="14" on="1"/>
        <pt x="210" y="14" on="1"/>
        <pt x="209" y="0" on="1"/>
        <pt x="35" y="0" on="1"/>
      </contour>
    </TTGlyph>
    <TTGlyph name="Iacute" xMin="35" yMin="0" xMax="344" yMax="883">
      <component glyphName="I" x="0" y="0" flags="0x204"/>
      <component glyphName="acute" x="120" y="271" flags="0x4"/>
    </TTGlyph>
    <TTGlyph name="Icircumflex" xMin="35" yMin="0" xMax="347" yMax="931">
      <component glyphName="I" x="0" y="0" flags="0x204"/>
      <component glyphName="asciicircum" x="8" y="271" flags="0x4"/>
    </TTGlyph>
    <TTGlyph name="Idieresis" xMin="35" yMin="0" xMax="340" yMax="810">
      <component glyphName="I" x="0" y="0" flags="0x4"/>
      <component glyphName="dieresis" x="49" y="290" flags="0x4"/>
    </TTGlyph>
    <TTGlyph name="Igrave" xMin="35" yMin="0" xMax="307" yMax="883">
      <component glyphName="I" x="0" y="0" flags="0x204"/>
      <component glyphName="grave" x="138" y="271" flags="0x4"/>
    </TTGlyph>
    <TTGlyph name="J" xMin="-24" yMin="-142" xMax="278" yMax="700">
      <contour>
        <pt x="93" y="700" on="1"/>
        <pt x="278" y="700" on="1"/>
        <pt x="192" y="90" on="1"/>
        <pt x="184" y="34" on="0"/>
        <pt x="143" y="-51" on="0"/>
        <pt x="84" y="-109" on="0"/>
        <pt x="13" y="-141" on="0"/>
        <pt x="-24" y="-142" on="1"/>
        <pt x="-23" y="-128" on="1"/>
        <pt x="14" y="-126" on="0"/>
        <pt x="80" y="-95" on="0"/>
        <pt x="134" y="-38" on="0"/>
        <pt x="171" y="42" on="0"/>
        <pt x="178" y="93" on="1"/>
        <pt x="262" y="686" on="1"/>
        <pt x="91" y="686" on="1"/>
      </contour>
    </TTGlyph>
    <TTGlyph name="K" xMin="35" yMin="0" xMax="701" yMax="700">
      <contour>
        <pt x="478" y="14" on="1"/>
        <pt x="544" y="14" on="1"/>
        <pt x="480" y="114" on="0"/>
        <pt x="352" y="314" on="0"/>
        <pt x="287" y="414" on="1"/>
        <pt x="169" y="316" on="1"/>
        <pt x="158" y="240" on="0"/>
        <pt x="138" y="89" on="0"/>
        <pt x="127" y="14" on="1"/>
        <pt x="210" y="14" on="1"/>
        <pt x="209" y="0" on="1"/>
        <pt x="35" y="0" on="1"/>
        <pt x="36" y="14" on="1"/>
        <pt x="113" y="14" on="1"/>
        <pt x="208" y="686" on="1"/>
        <pt x="131" y="686" on="1"/>
        <pt x="133" y="700" on="1"/>
        <pt x="307" y="700" on="1"/>
        <pt x="305" y="686" on="1"/>
        <pt x="222" y="686" on="1"/>
        <pt x="176" y="360" on="1"/>
        <pt x="175" y="352" on="0"/>
        <pt x="172" y="339" on="0"/>
        <pt x="171" y="331" on="1"/>
        <pt x="191" y="351" on="1"/>
        <pt x="589" y="686" on="1"/>
        <pt x="525" y="686" on="1"/>
        <pt x="527" y="700" on="1"/>
        <pt x="701" y="700" on="1"/>
        <pt x="699" y="686" on="1"/>
        <pt x="611" y="686" on="1"/>
        <pt x="299" y="424" on="1"/>
        <pt x="366" y="321" on="0"/>
        <pt x="498" y="117" on="0"/>
        <pt x="564" y="14" on="1"/>
        <pt x="652" y="14" on="1"/>
        <pt x="651" y="0" on="1"/>
        <pt x="477" y="0" on="1"/>
      </contour>
    </TTGlyph>
    <TTGlyph name="L" xMin="35" yMin="0" xMax="552" yMax="700">
      <contour>
        <pt x="36" y="14" on="1"/>
        <pt x="113" y="14" on="1"/>
        <pt x="208" y="686" on="1"/>
        <pt x="131" y="686" on="1"/>
        <pt x="133" y="700" on="1"/>
        <pt x="307" y="700" on="1"/>
        <pt x="305" y="686" on="1"/>
        <pt x="222" y="686" on="1"/>
        <pt x="127" y="14" on="1"/>
        <pt x="518" y="14" on="1"/>
        <pt x="538" y="154" on="1"/>
        <pt x="552" y="154" on="1"/>
        <pt x="531" y="0" on="1"/>
        <pt x="35" y="0" on="1"/>
      </contour>
    </TTGlyph>
    <TTGlyph name="M" xMin="35" yMin="0" xMax="1019" yMax="700">
      <contour>
        <pt x="919" y="700" on="1"/>
        <pt x="1019" y="700" on="1"/>
        <pt x="1017" y="686" on="1"/>
        <pt x="940" y="686" on="1"/>
        <pt x="845" y="14" on="1"/>
        <pt x="927" y="14" on="1"/>
        <pt x="926" y="0" on="1"/>
        <pt x="752" y="0" on="1"/>
        <pt x="753" y="14" on="1"/>
        <pt x="831" y="14" on="1"/>
        <pt x="920" y="645" on="1"/>
        <pt x="927" y="690" on="1"/>
        <pt x="927" y="689" on="0"/>
        <pt x="925" y="687" on="1"/>
        <pt x="923" y="685" on="0"/>
        <pt x="919" y="681" on="0"/>
        <pt x="917" y="678" on="1"/>
        <pt x="903" y="663" on="0"/>
        <pt x="850" y="604" on="0"/>
        <pt x="780" y="527" on="0"/>
        <pt x="699" y="437" on="0"/>
        <pt x="617" y="347" on="0"/>
        <pt x="541" y="262" on="0"/>
        <pt x="510" y="228" on="1"/>
        <pt x="433" y="352" on="0"/>
        <pt x="296" y="570" on="0"/>
        <pt x="229" y="677" on="1"/>
        <pt x="221" y="690" on="1"/>
        <pt x="219" y="679" on="0"/>
        <pt x="218" y="656" on="0"/>
        <pt x="216" y="645" on="1"/>
        <pt x="127" y="14" on="1"/>
        <pt x="210" y="14" on="1"/>
        <pt x="209" y="0" on="1"/>
        <pt x="35" y="0" on="1"/>
        <pt x="36" y="14" on="1"/>
        <pt x="113" y="14" on="1"/>
        <pt x="208" y="686" on="1"/>
        <pt x="131" y="686" on="1"/>
        <pt x="133" y="700" on="1"/>
        <pt x="233" y="700" on="1"/>
        <pt x="287" y="614" on="0"/>
        <pt x="338" y="532" on="1"/>
        <pt x="360" y="497" on="0"/>
        <pt x="407" y="422" on="0"/>
        <pt x="453" y="348" on="0"/>
        <pt x="495" y="280" on="0"/>
        <pt x="513" y="253" on="1"/>
        <pt x="615" y="364" on="0"/>
        <pt x="817" y="589" on="0"/>
      </contour>
    </TTGlyph>
    <TTGlyph name="N" xMin="39" yMin="-32" xMax="907" yMax="700">
      <contour>
        <pt x="41" y="14" on="1"/>
        <pt x="118" y="14" on="1"/>
        <pt x="212" y="686" on="1"/>
        <pt x="135" y="686" on="1"/>
        <pt x="137" y="700" on="1"/>
        <pt x="240" y="700" on="1"/>
        <pt x="701" y="28" on="1"/>
        <pt x="716" y="2" on="1"/>
        <pt x="718" y="34" on="1"/>
        <pt x="809" y="686" on="1"/>
        <pt x="731" y="686" on="1"/>
        <pt x="733" y="700" on="1"/>
        <pt x="907" y="700" on="1"/>
        <pt x="905" y="686" on="1"/>
        <pt x="823" y="686" on="1"/>
        <pt x="723" y="-32" on="1"/>
        <pt x="240" y="670" on="1"/>
        <pt x="225" y="690" on="1"/>
        <pt x="223" y="664" on="1"/>
        <pt x="132" y="14" on="1"/>
        <pt x="215" y="14" on="1"/>
        <pt x="213" y="0" on="1"/>
        <pt x="39" y="0" on="1"/>
      </contour>
    </TTGlyph>
    <TTGlyph name="Ntilde" xMin="39" yMin="-32" xMax="907" yMax="834">
      <component glyphName="N" x="0" y="0" flags="0x4"/>
      <component glyphName="asciitilde" x="241" y="293" flags="0x4"/>
    </TTGlyph>
    <TTGlyph name="O" xMin="74" yMin="-8" xMax="811" yMax="708">
      <contour>
        <pt x="85" y="349" on="1"/>
        <pt x="95" y="423" on="0"/>
        <pt x="170" y="554" on="0"/>
        <pt x="280" y="651" on="0"/>
        <pt x="418" y="708" on="0"/>
        <pt x="492" y="708" on="1"/>
        <pt x="566" y="708" on="0"/>
        <pt x="689" y="651" on="0"/>
        <pt x="773" y="554" on="0"/>
        <pt x="811" y="423" on="0"/>
        <pt x="801" y="349" on="1"/>
        <pt x="790" y="275" on="0"/>
        <pt x="716" y="145" on="0"/>
        <pt x="605" y="48" on="0"/>
        <pt x="466" y="-8" on="0"/>
        <pt x="392" y="-8" on="1"/>
        <pt x="318" y="-8" on="0"/>
        <pt x="196" y="48" on="0"/>
        <pt x="112" y="145" on="0"/>
        <pt x="74" y="275" on="0"/>
      </contour>
      <contour>
        <pt x="99" y="348" on="1"/>
        <pt x="89" y="277" on="0"/>
        <pt x="125" y="153" on="0"/>
        <pt x="204" y="60" on="0"/>
        <pt x="320" y="6" on="0"/>
        <pt x="390" y="6" on="1"/>
        <pt x="461" y="6" on="0"/>
        <pt x="596" y="60" on="0"/>
        <pt x="704" y="153" on="0"/>
        <pt x="777" y="278" on="0"/>
        <pt x="787" y="349" on="1"/>
        <pt x="797" y="420" on="0"/>
        <pt x="760" y="545" on="0"/>
        <pt x="679" y="639" on="0"/>
        <pt x="561" y="694" on="0"/>
        <pt x="490" y="694" on="1"/>
        <pt x="419" y="694" on="0"/>
        <pt x="287" y="639" on="0"/>
        <pt x="180" y="545" on="0"/>
        <pt x="109" y="419" on="0"/>
      </contour>
    </TTGlyph>
    <TTGlyph name="Oacute" xMin="74" yMin="-8" xMax="811" yMax="883">
      <component glyphName="O" x="0" y="0" flags="0x204"/>
      <component glyphName="acute" x="399" y="271" flags="0x4"/>
    </TTGlyph>
    <TTGlyph name="Ocircumflex" xMin="74" yMin="-8" xMax="811" yMax="931">
      <component glyphName="O" x="0" y="0" flags="0x204"/>
      <component glyphName="asciicircum" x="280" y="271" flags="0x4"/>
    </TTGlyph>
    <TTGlyph name="Odieresis" xMin="74" yMin="-8" xMax="811" yMax="810">
      <component glyphName="O" x="0" y="0" flags="0x204"/>
      <component glyphName="dieresis" x="313" y="290" flags="0x4"/>
    </TTGlyph>
    <TTGlyph name="Ograve" xMin="74" yMin="-8" xMax="811" yMax="883">
      <component glyphName="O" x="0" y="0" flags="0x204"/>
      <component glyphName="grave" x="435" y="271" flags="0x4"/>
    </TTGlyph>
    <TTGlyph name="Oslash" xMin="74" yMin="-8" xMax="812" yMax="708">
      <contour>
        <pt x="99" y="348" on="1"/>
        <pt x="88" y="272" on="0"/>
        <pt x="129" y="142" on="0"/>
        <pt x="174" y="95" on="1"/>
        <pt x="304" y="228" on="0"/>
        <pt x="559" y="489" on="0"/>
        <pt x="689" y="622" on="1"/>
        <pt x="650" y="656" on="0"/>
        <pt x="549" y="694" on="0"/>
        <pt x="490" y="694" on="1"/>
        <pt x="419" y="694" on="0"/>
        <pt x="287" y="639" on="0"/>
        <pt x="180" y="545" on="0"/>
        <pt x="109" y="419" on="0"/>
      </contour>
      <contour>
        <pt x="390" y="6" on="1"/>
        <pt x="461" y="6" on="0"/>
        <pt x="596" y="60" on="0"/>
        <pt x="704" y="153" on="0"/>
        <pt x="777" y="278" on="0"/>
        <pt x="787" y="349" on="1"/>
        <pt x="798" y="429" on="0"/>
        <pt x="748" y="567" on="0"/>
        <pt x="697" y="615" on="1"/>
        <pt x="567" y="482" on="0"/>
        <pt x="312" y="220" on="0"/>
        <pt x="182" y="87" on="1"/>
        <pt x="222" y="49" on="0"/>
        <pt x="327" y="6" on="0"/>
      </contour>
      <contour>
        <pt x="85" y="349" on="1"/>
        <pt x="95" y="423" on="0"/>
        <pt x="170" y="554" on="0"/>
        <pt x="280" y="651" on="0"/>
        <pt x="418" y="708" on="0"/>
        <pt x="492" y="708" on="1"/>
        <pt x="554" y="708" on="0"/>
        <pt x="659" y="668" on="0"/>
        <pt x="701" y="633" on="1"/>
        <pt x="773" y="708" on="1"/>
        <pt x="781" y="700" on="1"/>
        <pt x="762" y="681" on="0"/>
        <pt x="727" y="645" on="0"/>
        <pt x="709" y="626" on="1"/>
        <pt x="762" y="576" on="0"/>
        <pt x="812" y="433" on="0"/>
        <pt x="801" y="349" on="1"/>
        <pt x="790" y="275" on="0"/>
        <pt x="716" y="145" on="0"/>
        <pt x="605" y="48" on="0"/>
        <pt x="466" y="-8" on="0"/>
        <pt x="392" y="-8" on="1"/>
        <pt x="326" y="-8" on="0"/>
        <pt x="214" y="37" on="0"/>
        <pt x="172" y="77" on="1"/>
        <pt x="152" y="56" on="0"/>
        <pt x="110" y="13" on="0"/>
        <pt x="90" y="-8" on="1"/>
        <pt x="88" y="-6" on="0"/>
        <pt x="84" y="-2" on="0"/>
        <pt x="82" y="0" on="1"/>
        <pt x="103" y="21" on="0"/>
        <pt x="144" y="64" on="0"/>
        <pt x="165" y="85" on="1"/>
        <pt x="117" y="134" on="0"/>
        <pt x="74" y="270" on="0"/>
      </contour>
    </TTGlyph>
    <TTGlyph name="Otilde" xMin="74" yMin="-8" xMax="811" yMax="834">
      <component glyphName="O" x="0" y="0" flags="0x204"/>
      <component glyphName="asciitilde" x="222" y="293" flags="0x4"/>
    </TTGlyph>
    <TTGlyph name="P" xMin="35" yMin="0" xMax="526" yMax="700">
      <contour>
        <pt x="36" y="14" on="1"/>
        <pt x="107" y="14" on="1"/>
        <pt x="202" y="686" on="1"/>
        <pt x="131" y="686" on="1"/>
        <pt x="133" y="700" on="1"/>
        <pt x="344" y="700" on="1"/>
        <pt x="373" y="700" on="0"/>
        <pt x="440" y="680" on="0"/>
        <pt x="494" y="638" on="0"/>
        <pt x="526" y="570" on="0"/>
        <pt x="519" y="522" on="1"/>
        <pt x="507" y="439" on="0"/>
        <pt x="382" y="341" on="0"/>
        <pt x="279" y="341" on="1"/>
        <pt x="167" y="341" on="1"/>
        <pt x="121" y="14" on="1"/>
        <pt x="210" y="14" on="1"/>
        <pt x="209" y="0" on="1"/>
        <pt x="35" y="0" on="1"/>
      </contour>
      <contour>
        <pt x="169" y="355" on="1"/>
        <pt x="284" y="355" on="1"/>
        <pt x="342" y="355" on="0"/>
        <pt x="423" y="387" on="0"/>
        <pt x="475" y="436" on="0"/>
        <pt x="501" y="495" on="0"/>
        <pt x="505" y="522" on="1"/>
        <pt x="509" y="555" on="0"/>
        <pt x="488" y="614" on="0"/>
        <pt x="441" y="659" on="0"/>
        <pt x="374" y="686" on="0"/>
        <pt x="332" y="686" on="1"/>
        <pt x="216" y="686" on="1"/>
      </contour>
    </TTGlyph>
    <TTGlyph name="Q" xMin="74" yMin="-8" xMax="811" yMax="708">
      <contour>
        <pt x="99" y="348" on="1"/>
        <pt x="89" y="277" on="0"/>
        <pt x="125" y="153" on="0"/>
        <pt x="204" y="60" on="0"/>
        <pt x="320" y="6" on="0"/>
        <pt x="390" y="6" on="1"/>
        <pt x="461" y="6" on="0"/>
        <pt x="596" y="60" on="0"/>
        <pt x="704" y="153" on="0"/>
        <pt x="777" y="278" on="0"/>
        <pt x="787" y="349" on="1"/>
        <pt x="797" y="420" on="0"/>
        <pt x="760" y="545" on="0"/>
        <pt x="679" y="639" on="0"/>
        <pt x="561" y="694" on="0"/>
        <pt x="490" y="694" on="1"/>
        <pt x="419" y="694" on="0"/>
        <pt x="287" y="639" on="0"/>
        <pt x="180" y="545" on="0"/>
        <pt x="109" y="419" on="0"/>
      </contour>
      <contour>
        <pt x="85" y="349" on="1"/>
        <pt x="95" y="423" on="0"/>
        <pt x="170" y="554" on="0"/>
        <pt x="280" y="651" on="0"/>
        <pt x="418" y="708" on="0"/>
        <pt x="492" y="708" on="1"/>
        <pt x="566" y="708" on="0"/>
        <pt x="689" y="651" on="0"/>
        <pt x="773" y="554" on="0"/>
        <pt x="811" y="423" on="0"/>
        <pt x="801" y="349" on="1"/>
        <pt x="793" y="291" on="0"/>
        <pt x="743" y="186" on="0"/>
        <pt x="668" y="99" on="0"/>
        <pt x="573" y="33" on="0"/>
        <pt x="519" y="14" on="1"/>
        <pt x="776" y="14" on="1"/>
        <pt x="774" y="0" on="1"/>
        <pt x="467" y="0" on="1"/>
        <pt x="427" y="-8" on="0"/>
        <pt x="392" y="-8" on="1"/>
        <pt x="318" y="-8" on="0"/>
        <pt x="196" y="48" on="0"/>
        <pt x="112" y="145" on="0"/>
        <pt x="74" y="275" on="0"/>
      </contour>
    </TTGlyph>
    <TTGlyph name="R" xMin="35" yMin="0" xMax="535" yMax="700">
      <contour>
        <pt x="36" y="14" on="1"/>
        <pt x="107" y="14" on="1"/>
        <pt x="202" y="686" on="1"/>
        <pt x="131" y="686" on="1"/>
        <pt x="133" y="700" on="1"/>
        <pt x="344" y="700" on="1"/>
        <pt x="373" y="700" on="0"/>
        <pt x="440" y="680" on="0"/>
        <pt x="494" y="638" on="0"/>
        <pt x="526" y="570" on="0"/>
        <pt x="519" y="522" on="1"/>
        <pt x="509" y="453" on="0"/>
        <pt x="418" y="360" on="0"/>
        <pt x="342" y="346" on="1"/>
        <pt x="451" y="14" on="1"/>
        <pt x="535" y="14" on="1"/>
        <pt x="534" y="0" on="1"/>
        <pt x="442" y="0" on="1"/>
        <pt x="327" y="344" on="1"/>
        <pt x="304" y="341" on="0"/>
        <pt x="279" y="341" on="1"/>
        <pt x="167" y="341" on="1"/>
        <pt x="121" y="14" on="1"/>
        <pt x="210" y="14" on="1"/>
        <pt x="209" y="0" on="1"/>
        <pt x="35" y="0" on="1"/>
      </contour>
      <contour>
        <pt x="169" y="355" on="1"/>
        <pt x="284" y="355" on="1"/>
        <pt x="342" y="355" on="0"/>
        <pt x="423" y="387" on="0"/>
        <pt x="475" y="436" on="0"/>
        <pt x="501" y="495" on="0"/>
        <pt x="505" y="522" on="1"/>
        <pt x="509" y="555" on="0"/>
        <pt x="488" y="614" on="0"/>
        <pt x="441" y="659" on="0"/>
        <pt x="374" y="686" on="0"/>
        <pt x="332" y="686" on="1"/>
        <pt x="216" y="686" on="1"/>
      </contour>
    </TTGlyph>
    <TTGlyph name="S" xMin="56" yMin="-8" xMax="483" yMax="704">
      <contour>
        <pt x="56" y="64" on="1"/>
        <pt x="70" y="164" on="1"/>
        <pt x="84" y="164" on="1"/>
        <pt x="71" y="74" on="1"/>
        <pt x="96" y="45" on="0"/>
        <pt x="175" y="6" on="0"/>
        <pt x="237" y="6" on="1"/>
        <pt x="276" y="6" on="0"/>
        <pt x="351" y="31" on="0"/>
        <pt x="414" y="77" on="0"/>
        <pt x="456" y="142" on="0"/>
        <pt x="462" y="182" on="1"/>
        <pt x="469" y="228" on="0"/>
        <pt x="446" y="289" on="0"/>
        <pt x="401" y="328" on="0"/>
        <pt x="340" y="351" on="0"/>
        <pt x="275" y="370" on="0"/>
        <pt x="211" y="391" on="0"/>
        <pt x="163" y="424" on="0"/>
        <pt x="136" y="476" on="0"/>
        <pt x="139" y="517" on="1"/>
        <pt x="142" y="550" on="0"/>
        <pt x="170" y="617" on="0"/>
        <pt x="220" y="671" on="0"/>
        <pt x="291" y="704" on="0"/>
        <pt x="338" y="704" on="1"/>
        <pt x="354" y="704" on="0"/>
        <pt x="392" y="700" on="0"/>
        <pt x="430" y="691" on="0"/>
        <pt x="465" y="673" on="0"/>
        <pt x="479" y="660" on="1"/>
        <pt x="463" y="546" on="1"/>
        <pt x="449" y="546" on="1"/>
        <pt x="464" y="653" on="1"/>
        <pt x="447" y="668" on="0"/>
        <pt x="382" y="690" on="0"/>
        <pt x="334" y="690" on="1"/>
        <pt x="295" y="690" on="0"/>
        <pt x="233" y="663" on="0"/>
        <pt x="187" y="618" on="0"/>
        <pt x="159" y="561" on="0"/>
        <pt x="155" y="530" on="1"/>
        <pt x="149" y="489" on="0"/>
        <pt x="174" y="438" on="0"/>
        <pt x="220" y="405" on="0"/>
        <pt x="283" y="385" on="0"/>
        <pt x="349" y="365" on="0"/>
        <pt x="412" y="340" on="0"/>
        <pt x="459" y="299" on="0"/>
        <pt x="483" y="235" on="0"/>
        <pt x="477" y="186" on="1"/>
        <pt x="472" y="142" on="0"/>
        <pt x="429" y="70" on="0"/>
        <pt x="364" y="19" on="0"/>
        <pt x="282" y="-8" on="0"/>
        <pt x="238" y="-8" on="1"/>
        <pt x="198" y="-8" on="0"/>
        <pt x="137" y="8" on="0"/>
        <pt x="93" y="31" on="0"/>
        <pt x="64" y="55" on="0"/>
      </contour>
    </TTGlyph>
    <TTGlyph name="T" xMin="111" yMin="0" xMax="686" yMax="700">
      <contour>
        <pt x="226" y="14" on="1"/>
        <pt x="305" y="14" on="1"/>
        <pt x="400" y="686" on="1"/>
        <pt x="145" y="686" on="1"/>
        <pt x="125" y="546" on="1"/>
        <pt x="111" y="546" on="1"/>
        <pt x="133" y="700" on="1"/>
        <pt x="686" y="700" on="1"/>
        <pt x="664" y="546" on="1"/>
        <pt x="650" y="546" on="1"/>
        <pt x="670" y="686" on="1"/>
        <pt x="414" y="686" on="1"/>
        <pt x="319" y="14" on="1"/>
        <pt x="400" y="14" on="1"/>
        <pt x="399" y="0" on="1"/>
        <pt x="225" y="0" on="1"/>
      </contour>
    </TTGlyph>
    <TTGlyph name="Thorn" xMin="35" yMin="0" xMax="503" yMax="700">
      <contour>
        <pt x="36" y="14" on="1"/>
        <pt x="107" y="14" on="1"/>
        <pt x="202" y="686" on="1"/>
        <pt x="131" y="686" on="1"/>
        <pt x="133" y="700" on="1"/>
        <pt x="307" y="700" on="1"/>
        <pt x="305" y="686" on="1"/>
        <pt x="216" y="686" on="1"/>
        <pt x="195" y="535" on="1"/>
        <pt x="321" y="535" on="1"/>
        <pt x="350" y="535" on="0"/>
        <pt x="417" y="515" on="0"/>
        <pt x="471" y="473" on="0"/>
        <pt x="503" y="405" on="0"/>
        <pt x="496" y="357" on="1"/>
        <pt x="484" y="274" on="0"/>
        <pt x="359" y="176" on="0"/>
        <pt x="256" y="176" on="1"/>
        <pt x="144" y="176" on="1"/>
        <pt x="121" y="14" on="1"/>
        <pt x="210" y="14" on="1"/>
        <pt x="209" y="0" on="1"/>
        <pt x="35" y="0" on="1"/>
      </contour>
      <contour>
        <pt x="146" y="190" on="1"/>
        <pt x="261" y="190" on="1"/>
        <pt x="319" y="190" on="0"/>
        <pt x="400" y="222" on="0"/>
        <pt x="452" y="271" on="0"/>
        <pt x="478" y="330" on="0"/>
        <pt x="482" y="357" on="1"/>
        <pt x="486" y="390" on="0"/>
        <pt x="465" y="449" on="0"/>
        <pt x="418" y="494" on="0"/>
        <pt x="351" y="521" on="0"/>
        <pt x="309" y="521" on="1"/>
        <pt x="193" y="521" on="1"/>
      </contour>
    </TTGlyph>
    <TTGlyph name="U" xMin="132" yMin="-8" xMax="738" yMax="700">
      <contour>
        <pt x="134" y="700" on="1"/>
        <pt x="308" y="700" on="1"/>
        <pt x="306" y="686" on="1"/>
        <pt x="223" y="686" on="1"/>
        <pt x="159" y="229" on="1"/>
        <pt x="151" y="175" on="0"/>
        <pt x="171" y="92" on="0"/>
        <pt x="219" y="35" on="0"/>
        <pt x="292" y="6" on="0"/>
        <pt x="338" y="6" on="1"/>
        <pt x="383" y="6" on="0"/>
        <pt x="465" y="35" on="0"/>
        <pt x="530" y="92" on="0"/>
        <pt x="573" y="175" on="0"/>
        <pt x="581" y="229" on="1"/>
        <pt x="645" y="686" on="1"/>
        <pt x="562" y="686" on="1"/>
        <pt x="564" y="700" on="1"/>
        <pt x="738" y="700" on="1"/>
        <pt x="736" y="686" on="1"/>
        <pt x="659" y="686" on="1"/>
        <pt x="594" y="226" on="1"/>
        <pt x="586" y="169" on="0"/>
        <pt x="540" y="81" on="0"/>
        <pt x="471" y="22" on="0"/>
        <pt x="385" y="-8" on="0"/>
        <pt x="337" y="-8" on="1"/>
        <pt x="289" y="-8" on="0"/>
        <pt x="210" y="22" on="0"/>
        <pt x="158" y="81" on="0"/>
        <pt x="136" y="169" on="0"/>
        <pt x="144" y="226" on="1"/>
        <pt x="209" y="686" on="1"/>
        <pt x="132" y="686" on="1"/>
      </contour>
    </TTGlyph>
    <TTGlyph name="Uacute" xMin="132" yMin="-8" xMax="738" yMax="883">
      <component glyphName="U" x="0" y="0" flags="0x204"/>
      <component glyphName="acute" x="337" y="271" flags="0x4"/>
    </TTGlyph>
    <TTGlyph name="Ucircumflex" xMin="132" yMin="-8" xMax="738" yMax="931">
      <component glyphName="U" x="0" y="0" flags="0x204"/>
      <component glyphName="asciicircum" x="224" y="271" flags="0x4"/>
    </TTGlyph>
    <TTGlyph name="Udieresis" xMin="132" yMin="-8" xMax="738" yMax="811">
      <component glyphName="U" x="0" y="0" flags="0x204"/>
      <component glyphName="dieresis" x="260" y="291" flags="0x4"/>
    </TTGlyph>
    <TTGlyph name="Ugrave" xMin="132" yMin="-8" xMax="738" yMax="883">
      <component glyphName="U" x="0" y="0" flags="0x204"/>
      <component glyphName="grave" x="373" y="271" flags="0x4"/>
    </TTGlyph>
    <TTGlyph name="V" xMin="135" yMin="-32" xMax="911" yMax="700">
      <contour>
        <pt x="137" y="700" on="1"/>
        <pt x="311" y="700" on="1"/>
        <pt x="309" y="686" on="1"/>
        <pt x="233" y="686" on="1"/>
        <pt x="280" y="519" on="0"/>
        <pt x="373" y="191" on="0"/>
        <pt x="421" y="25" on="1"/>
        <pt x="426" y="0" on="1"/>
        <pt x="439" y="25" on="1"/>
        <pt x="532" y="191" on="0"/>
        <pt x="717" y="519" on="0"/>
        <pt x="811" y="686" on="1"/>
        <pt x="735" y="686" on="1"/>
        <pt x="737" y="700" on="1"/>
        <pt x="911" y="700" on="1"/>
        <pt x="909" y="686" on="1"/>
        <pt x="826" y="686" on="1"/>
        <pt x="725" y="505" on="0"/>
        <pt x="523" y="148" on="0"/>
        <pt x="422" y="-32" on="1"/>
        <pt x="371" y="148" on="0"/>
        <pt x="268" y="505" on="0"/>
        <pt x="217" y="686" on="1"/>
        <pt x="135" y="686" on="1"/>
      </contour>
    </TTGlyph>
    <TTGlyph name="W" xMin="135" yMin="-32" xMax="1287" yMax="700">
      <contour>
        <pt x="137" y="700" on="1"/>
        <pt x="311" y="700" on="1"/>
        <pt x="309" y="686" on="1"/>
        <pt x="233" y="686" on="1"/>
        <pt x="279" y="519" on="0"/>
        <pt x="371" y="190" on="0"/>
        <pt x="421" y="25" on="1"/>
        <pt x="426" y="0" on="1"/>
        <pt x="481" y="108" on="0"/>
        <pt x="604" y="319" on="0"/>
        <pt x="664" y="425" on="1"/>
        <pt x="646" y="490" on="0"/>
        <pt x="609" y="620" on="0"/>
        <pt x="590" y="686" on="1"/>
        <pt x="511" y="686" on="1"/>
        <pt x="513" y="700" on="1"/>
        <pt x="687" y="700" on="1"/>
        <pt x="685" y="686" on="1"/>
        <pt x="605" y="686" on="1"/>
        <pt x="651" y="519" on="0"/>
        <pt x="743" y="190" on="0"/>
        <pt x="793" y="25" on="1"/>
        <pt x="798" y="0" on="1"/>
        <pt x="811" y="25" on="1"/>
        <pt x="904" y="191" on="0"/>
        <pt x="1089" y="519" on="0"/>
        <pt x="1183" y="686" on="1"/>
        <pt x="1111" y="686" on="1"/>
        <pt x="1113" y="700" on="1"/>
        <pt x="1287" y="700" on="1"/>
        <pt x="1285" y="686" on="1"/>
        <pt x="1198" y="686" on="1"/>
        <pt x="1097" y="505" on="0"/>
        <pt x="895" y="148" on="0"/>
        <pt x="794" y="-32" on="1"/>
        <pt x="675" y="385" on="1"/>
        <pt x="669" y="407" on="1"/>
        <pt x="606" y="297" on="0"/>
        <pt x="484" y="78" on="0"/>
        <pt x="422" y="-32" on="1"/>
        <pt x="371" y="148" on="0"/>
        <pt x="268" y="505" on="0"/>
        <pt x="217" y="686" on="1"/>
        <pt x="135" y="686" on="1"/>
      </contour>
    </TTGlyph>
    <TTGlyph name="X" xMin="35" yMin="0" xMax="773" yMax="700">
      <contour>
        <pt x="133" y="700" on="1"/>
        <pt x="307" y="700" on="1"/>
        <pt x="305" y="686" on="1"/>
        <pt x="246" y="686" on="1"/>
        <pt x="286" y="609" on="0"/>
        <pt x="363" y="457" on="0"/>
        <pt x="402" y="381" on="1"/>
        <pt x="408" y="368" on="1"/>
        <pt x="418" y="381" on="1"/>
        <pt x="656" y="686" on="1"/>
        <pt x="597" y="686" on="1"/>
        <pt x="599" y="700" on="1"/>
        <pt x="773" y="700" on="1"/>
        <pt x="771" y="686" on="1"/>
        <pt x="672" y="686" on="1"/>
        <pt x="607" y="602" on="0"/>
        <pt x="479" y="439" on="0"/>
        <pt x="415" y="356" on="1"/>
        <pt x="458" y="269" on="0"/>
        <pt x="545" y="100" on="0"/>
        <pt x="589" y="14" on="1"/>
        <pt x="676" y="14" on="1"/>
        <pt x="675" y="0" on="1"/>
        <pt x="501" y="0" on="1"/>
        <pt x="502" y="14" on="1"/>
        <pt x="572" y="14" on="1"/>
        <pt x="436" y="279" on="1"/>
        <pt x="427" y="296" on="0"/>
        <pt x="411" y="332" on="0"/>
        <pt x="401" y="348" on="1"/>
        <pt x="392" y="335" on="1"/>
        <pt x="329" y="254" on="0"/>
        <pt x="203" y="95" on="0"/>
        <pt x="140" y="14" on="1"/>
        <pt x="210" y="14" on="1"/>
        <pt x="209" y="0" on="1"/>
        <pt x="35" y="0" on="1"/>
        <pt x="36" y="14" on="1"/>
        <pt x="125" y="14" on="1"/>
        <pt x="395" y="360" on="1"/>
        <pt x="230" y="686" on="1"/>
        <pt x="131" y="686" on="1"/>
      </contour>
    </TTGlyph>
    <TTGlyph name="Y" xMin="131" yMin="0" xMax="781" yMax="700">
      <contour>
        <pt x="274" y="14" on="1"/>
        <pt x="353" y="14" on="1"/>
        <pt x="388" y="262" on="1"/>
        <pt x="339" y="368" on="0"/>
        <pt x="242" y="580" on="0"/>
        <pt x="193" y="686" on="1"/>
        <pt x="131" y="686" on="1"/>
        <pt x="133" y="700" on="1"/>
        <pt x="307" y="700" on="1"/>
        <pt x="305" y="686" on="1"/>
        <pt x="210" y="686" on="1"/>
        <pt x="255" y="588" on="0"/>
        <pt x="345" y="396" on="0"/>
        <pt x="388" y="298" on="1"/>
        <pt x="397" y="272" on="1"/>
        <pt x="398" y="272" on="1"/>
        <pt x="412" y="298" on="1"/>
        <pt x="698" y="686" on="1"/>
        <pt x="605" y="686" on="1"/>
        <pt x="607" y="700" on="1"/>
        <pt x="781" y="700" on="1"/>
        <pt x="779" y="686" on="1"/>
        <pt x="715" y="686" on="1"/>
        <pt x="637" y="579" on="0"/>
        <pt x="480" y="368" on="0"/>
        <pt x="402" y="262" on="1"/>
        <pt x="367" y="14" on="1"/>
        <pt x="448" y="14" on="1"/>
        <pt x="447" y="0" on="1"/>
        <pt x="273" y="0" on="1"/>
      </contour>
    </TTGlyph>
    <TTGlyph name="Yacute" xMin="131" yMin="0" xMax="781" yMax="883">
      <component glyphName="Y" x="0" y="0" flags="0x204"/>
      <component glyphName="acute" x="374" y="271" flags="0x4"/>
    </TTGlyph>
    <TTGlyph name="Z" xMin="35" yMin="0" xMax="663" yMax="735">
      <contour>
        <pt x="618" y="174" on="1"/>
        <pt x="594" y="0" on="1"/>
        <pt x="35" y="0" on="1"/>
        <pt x="36" y="14" on="1"/>
        <pt x="641" y="686" on="1"/>
        <pt x="148" y="686" on="1"/>
        <pt x="155" y="735" on="1"/>
        <pt x="171" y="735" on="1"/>
        <pt x="166" y="700" on="1"/>
        <pt x="663" y="700" on="1"/>
        <pt x="661" y="686" on="1"/>
        <pt x="56" y="14" on="1"/>
        <pt x="581" y="14" on="1"/>
        <pt x="604" y="174" on="1"/>
      </contour>
    </TTGlyph>
    <TTGlyph name="a" xMin="56" yMin="-6" xMax="499" yMax="383">
      <contour>
        <pt x="62" y="188" on="1"/>
        <pt x="68" y="228" on="0"/>
        <pt x="108" y="300" on="0"/>
        <pt x="168" y="352" on="0"/>
        <pt x="242" y="383" on="0"/>
        <pt x="283" y="383" on="1"/>
        <pt x="314" y="383" on="0"/>
        <pt x="367" y="365" on="0"/>
        <pt x="410" y="332" on="0"/>
        <pt x="440" y="287" on="0"/>
        <pt x="447" y="260" on="1"/>
        <pt x="451" y="289" on="0"/>
        <pt x="462" y="346" on="0"/>
        <pt x="467" y="375" on="1"/>
        <pt x="477" y="375" on="1"/>
        <pt x="426" y="14" on="1"/>
        <pt x="499" y="14" on="1"/>
        <pt x="497" y="0" on="1"/>
        <pt x="410" y="0" on="1"/>
        <pt x="418" y="54" on="1"/>
        <pt x="420" y="70" on="0"/>
        <pt x="426" y="101" on="0"/>
        <pt x="428" y="117" on="1"/>
        <pt x="399" y="63" on="0"/>
        <pt x="292" y="-6" on="0"/>
        <pt x="229" y="-6" on="1"/>
        <pt x="188" y="-6" on="0"/>
        <pt x="122" y="24" on="0"/>
        <pt x="77" y="77" on="0"/>
        <pt x="56" y="147" on="0"/>
      </contour>
      <contour>
        <pt x="76" y="188" on="1"/>
        <pt x="71" y="150" on="0"/>
        <pt x="89" y="85" on="0"/>
        <pt x="131" y="36" on="0"/>
        <pt x="192" y="8" on="0"/>
        <pt x="230" y="8" on="1"/>
        <pt x="267" y="8" on="0"/>
        <pt x="338" y="36" on="0"/>
        <pt x="394" y="85" on="0"/>
        <pt x="432" y="150" on="0"/>
        <pt x="437" y="188" on="1"/>
        <pt x="442" y="225" on="0"/>
        <pt x="423" y="291" on="0"/>
        <pt x="381" y="341" on="0"/>
        <pt x="318" y="369" on="0"/>
        <pt x="281" y="369" on="1"/>
        <pt x="243" y="369" on="0"/>
        <pt x="174" y="341" on="0"/>
        <pt x="118" y="291" on="0"/>
        <pt x="81" y="225" on="0"/>
      </contour>
    </TTGlyph>
    <TTGlyph name="aacute" xMin="56" yMin="-6" xMax="499" yMax="612">
      <component glyphName="a" x="0" y="0" flags="0x204"/>
      <component glyphName="acute" x="225" y="0" flags="0x4"/>
    </TTGlyph>
    <TTGlyph name="acircumflex" xMin="56" yMin="-6" xMax="499" yMax="660">
      <component glyphName="a" x="0" y="0" flags="0x204"/>
      <component glyphName="asciicircum" x="106" y="0" flags="0x4"/>
    </TTGlyph>
    <TTGlyph name="acute" xMin="100" yMin="479" xMax="224" yMax="612">
      <contour>
        <pt x="100" y="479" on="1"/>
        <pt x="127" y="512" on="0"/>
        <pt x="181" y="579" on="0"/>
        <pt x="208" y="612" on="1"/>
        <pt x="224" y="612" on="1"/>
        <pt x="197" y="579" on="0"/>
        <pt x="143" y="512" on="0"/>
        <pt x="116" y="479" on="1"/>
      </contour>
    </TTGlyph>
    <TTGlyph name="adieresis" xMin="56" yMin="-6" xMax="499" yMax="520">
      <component glyphName="a" x="0" y="0" flags="0x204"/>
      <component glyphName="dieresis" x="128" y="0" flags="0x4"/>
    </TTGlyph>
    <TTGlyph name="ae" xMin="45" yMin="-10" xMax="582" yMax="381">
      <contour>
        <pt x="381" y="241" on="1"/>
        <pt x="374" y="191" on="1"/>
        <pt x="422" y="209" on="0"/>
        <pt x="517" y="246" on="0"/>
        <pt x="565" y="264" on="1"/>
        <pt x="551" y="310" on="0"/>
        <pt x="478" y="367" on="0"/>
        <pt x="428" y="367" on="1"/>
        <pt x="410" y="367" on="0"/>
        <pt x="377" y="360" on="0"/>
        <pt x="361" y="354" on="1"/>
        <pt x="379" y="338" on="0"/>
        <pt x="387" y="283" on="0"/>
      </contour>
      <contour>
        <pt x="358" y="177" on="1"/>
        <pt x="264" y="177" on="1"/>
        <pt x="248" y="177" on="0"/>
        <pt x="185" y="178" on="0"/>
        <pt x="120" y="165" on="0"/>
        <pt x="68" y="131" on="0"/>
        <pt x="64" y="97" on="1"/>
        <pt x="60" y="68" on="0"/>
        <pt x="83" y="31" on="0"/>
        <pt x="122" y="11" on="0"/>
        <pt x="172" y="4" on="0"/>
        <pt x="195" y="4" on="1"/>
        <pt x="220" y="4" on="0"/>
        <pt x="271" y="13" on="0"/>
        <pt x="313" y="36" on="0"/>
        <pt x="343" y="75" on="0"/>
        <pt x="348" y="105" on="1"/>
      </contour>
      <contour>
        <pt x="128" y="332" on="1"/>
        <pt x="116" y="344" on="1"/>
        <pt x="126" y="352" on="0"/>
        <pt x="157" y="365" on="0"/>
        <pt x="192" y="375" on="0"/>
        <pt x="229" y="381" on="0"/>
        <pt x="245" y="381" on="1"/>
        <pt x="317" y="381" on="0"/>
        <pt x="348" y="364" on="1"/>
        <pt x="388" y="381" on="0"/>
        <pt x="430" y="381" on="1"/>
        <pt x="488" y="381" on="0"/>
        <pt x="570" y="312" on="0"/>
        <pt x="582" y="257" on="1"/>
        <pt x="529" y="237" on="0"/>
        <pt x="424" y="196" on="0"/>
        <pt x="372" y="176" on="1"/>
        <pt x="365" y="128" on="1"/>
        <pt x="360" y="89" on="0"/>
        <pt x="335" y="38" on="0"/>
        <pt x="309" y="20" on="1"/>
        <pt x="340" y="6" on="0"/>
        <pt x="378" y="6" on="1"/>
        <pt x="414" y="6" on="0"/>
        <pt x="481" y="32" on="0"/>
        <pt x="509" y="55" on="1"/>
        <pt x="511" y="52" on="0"/>
        <pt x="514" y="47" on="0"/>
        <pt x="516" y="44" on="1"/>
        <pt x="487" y="20" on="0"/>
        <pt x="415" y="-8" on="0"/>
        <pt x="376" y="-8" on="1"/>
        <pt x="330" y="-8" on="0"/>
        <pt x="294" y="10" on="1"/>
        <pt x="254" y="-10" on="0"/>
        <pt x="192" y="-10" on="1"/>
        <pt x="157" y="-10" on="0"/>
        <pt x="100" y="0" on="0"/>
        <pt x="62" y="24" on="0"/>
        <pt x="45" y="65" on="0"/>
        <pt x="49" y="96" on="1"/>
        <pt x="53" y="123" on="0"/>
        <pt x="84" y="159" on="0"/>
        <pt x="129" y="182" on="0"/>
        <pt x="185" y="191" on="0"/>
        <pt x="214" y="191" on="1"/>
        <pt x="360" y="191" on="1"/>
        <pt x="367" y="243" on="1"/>
        <pt x="371" y="274" on="0"/>
        <pt x="368" y="321" on="0"/>
        <pt x="342" y="352" on="0"/>
        <pt x="288" y="367" on="0"/>
        <pt x="242" y="367" on="1"/>
        <pt x="228" y="367" on="0"/>
        <pt x="195" y="361" on="0"/>
        <pt x="164" y="351" on="0"/>
        <pt x="137" y="338" on="0"/>
      </contour>
    </TTGlyph>
    <TTGlyph name="agrave" xMin="56" yMin="-6" xMax="499" yMax="612">
      <component glyphName="a" x="0" y="0" flags="0x204"/>
      <component glyphName="grave" x="219" y="0" flags="0x4"/>
    </TTGlyph>
    <TTGlyph name="ampersand" xMin="77" yMin="-19" xMax="600" yMax="748">
      <contour>
        <pt x="480" y="375" on="1"/>
        <pt x="600" y="375" on="1"/>
        <pt x="598" y="361" on="1"/>
        <pt x="492" y="361" on="1"/>
        <pt x="480" y="274" on="1"/>
        <pt x="477" y="249" on="0"/>
        <pt x="471" y="200" on="0"/>
        <pt x="460" y="152" on="0"/>
        <pt x="440" y="106" on="0"/>
        <pt x="424" y="84" on="1"/>
        <pt x="470" y="-11" on="1"/>
        <pt x="458" y="-19" on="1"/>
        <pt x="414" y="72" on="1"/>
        <pt x="382" y="36" on="0"/>
        <pt x="295" y="-7" on="0"/>
        <pt x="246" y="-7" on="1"/>
        <pt x="209" y="-7" on="0"/>
        <pt x="147" y="18" on="0"/>
        <pt x="102" y="62" on="0"/>
        <pt x="77" y="123" on="0"/>
        <pt x="77" y="158" on="1"/>
        <pt x="77" y="199" on="0"/>
        <pt x="107" y="274" on="0"/>
        <pt x="160" y="332" on="0"/>
        <pt x="230" y="372" on="0"/>
        <pt x="269" y="379" on="1"/>
        <pt x="213" y="496" on="1"/>
        <pt x="204" y="514" on="0"/>
        <pt x="196" y="552" on="0"/>
        <pt x="196" y="572" on="1"/>
        <pt x="196" y="600" on="0"/>
        <pt x="220" y="662" on="0"/>
        <pt x="266" y="714" on="0"/>
        <pt x="333" y="748" on="0"/>
        <pt x="377" y="748" on="1"/>
        <pt x="414" y="748" on="0"/>
        <pt x="477" y="722" on="0"/>
        <pt x="500" y="706" on="1"/>
        <pt x="492" y="693" on="1"/>
        <pt x="465" y="710" on="0"/>
        <pt x="405" y="736" on="0"/>
        <pt x="373" y="736" on="1"/>
        <pt x="334" y="736" on="0"/>
        <pt x="272" y="703" on="0"/>
        <pt x="230" y="654" on="0"/>
        <pt x="208" y="597" on="0"/>
        <pt x="208" y="574" on="1"/>
        <pt x="208" y="538" on="0"/>
        <pt x="225" y="504" on="1"/>
        <pt x="417" y="98" on="1"/>
        <pt x="446" y="138" on="0"/>
        <pt x="454" y="187" on="1"/>
      </contour>
      <contour>
        <pt x="93" y="187" on="1"/>
        <pt x="92" y="181" on="0"/>
        <pt x="91" y="169" on="0"/>
        <pt x="91" y="163" on="1"/>
        <pt x="91" y="130" on="0"/>
        <pt x="114" y="73" on="0"/>
        <pt x="156" y="31" on="0"/>
        <pt x="213" y="7" on="0"/>
        <pt x="248" y="7" on="1"/>
        <pt x="296" y="7" on="0"/>
        <pt x="379" y="50" on="0"/>
        <pt x="408" y="85" on="1"/>
        <pt x="275" y="366" on="1"/>
        <pt x="240" y="362" on="0"/>
        <pt x="179" y="331" on="0"/>
        <pt x="130" y="283" on="0"/>
        <pt x="98" y="221" on="0"/>
      </contour>
    </TTGlyph>
    <TTGlyph name="aring" xMin="56" yMin="-6" xMax="499" yMax="603">
      <component glyphName="a" x="0" y="0" flags="0x204"/>
      <component glyphName="ring" x="131" y="0" flags="0x4"/>
    </TTGlyph>
    <TTGlyph name="asciicircum" xMin="99" yMin="479" xMax="339" yMax="660">
      <contour>
        <pt x="244" y="660" on="1"/>
        <pt x="268" y="615" on="0"/>
        <pt x="315" y="524" on="0"/>
        <pt x="339" y="479" on="1"/>
        <pt x="323" y="479" on="1"/>
        <pt x="302" y="517" on="0"/>
        <pt x="261" y="595" on="0"/>
        <pt x="240" y="633" on="1"/>
        <pt x="208" y="595" on="0"/>
        <pt x="147" y="517" on="0"/>
        <pt x="115" y="479" on="1"/>
        <pt x="99" y="479" on="1"/>
        <pt x="135" y="524" on="0"/>
        <pt x="208" y="615" on="0"/>
      </contour>
    </TTGlyph>
    <TTGlyph name="asciitilde" xMin="134" yMin="459" xMax="425" yMax="541">
      <contour>
        <pt x="270" y="497" on="1"/>
        <pt x="256" y="515" on="0"/>
        <pt x="234" y="527" on="0"/>
        <pt x="220" y="527" on="1"/>
        <pt x="212" y="527" on="0"/>
        <pt x="190" y="522" on="0"/>
        <pt x="169" y="510" on="0"/>
        <pt x="150" y="489" on="0"/>
        <pt x="146" y="472" on="1"/>
        <pt x="143" y="473" on="0"/>
        <pt x="136" y="473" on="0"/>
        <pt x="134" y="474" on="1"/>
        <pt x="141" y="511" on="0"/>
        <pt x="197" y="541" on="0"/>
        <pt x="225" y="541" on="1"/>
        <pt x="245" y="541" on="0"/>
        <pt x="275" y="520" on="0"/>
        <pt x="289" y="503" on="1"/>
        <pt x="302" y="485" on="0"/>
        <pt x="324" y="473" on="0"/>
        <pt x="338" y="473" on="1"/>
        <pt x="346" y="473" on="0"/>
        <pt x="368" y="478" on="0"/>
        <pt x="390" y="490" on="0"/>
        <pt x="408" y="511" on="0"/>
        <pt x="412" y="528" on="1"/>
        <pt x="415" y="527" on="0"/>
        <pt x="422" y="527" on="0"/>
        <pt x="425" y="526" on="1"/>
        <pt x="417" y="489" on="0"/>
        <pt x="362" y="459" on="0"/>
        <pt x="334" y="459" on="1"/>
        <pt x="314" y="459" on="0"/>
        <pt x="284" y="480" on="0"/>
      </contour>
    </TTGlyph>
    <TTGlyph name="asterisk" xMin="30" yMin="434" xMax="303" yMax="720">
      <contour>
        <pt x="181" y="575" on="1"/>
        <pt x="207" y="559" on="0"/>
        <pt x="258" y="527" on="0"/>
        <pt x="284" y="511" on="1"/>
        <pt x="282" y="507" on="0"/>
        <pt x="276" y="500" on="0"/>
        <pt x="273" y="496" on="1"/>
        <pt x="171" y="562" on="1"/>
        <pt x="166" y="530" on="0"/>
        <pt x="156" y="466" on="0"/>
        <pt x="151" y="434" on="1"/>
        <pt x="137" y="434" on="1"/>
        <pt x="155" y="561" on="1"/>
        <pt x="125" y="545" on="0"/>
        <pt x="66" y="514" on="0"/>
        <pt x="36" y="498" on="1"/>
        <pt x="30" y="513" on="1"/>
        <pt x="59" y="529" on="0"/>
        <pt x="119" y="560" on="0"/>
        <pt x="149" y="576" on="1"/>
        <pt x="123" y="593" on="0"/>
        <pt x="74" y="625" on="0"/>
        <pt x="48" y="642" on="1"/>
        <pt x="50" y="645" on="0"/>
        <pt x="54" y="651" on="0"/>
        <pt x="56" y="654" on="1"/>
        <pt x="82" y="637" on="0"/>
        <pt x="133" y="606" on="0"/>
        <pt x="159" y="589" on="1"/>
        <pt x="178" y="720" on="1"/>
        <pt x="196" y="720" on="1"/>
        <pt x="190" y="687" on="0"/>
        <pt x="180" y="622" on="0"/>
        <pt x="175" y="589" on="1"/>
        <pt x="206" y="605" on="0"/>
        <pt x="267" y="637" on="0"/>
        <pt x="298" y="653" on="1"/>
        <pt x="302" y="645" on="0"/>
        <pt x="303" y="641" on="1"/>
        <pt x="272" y="624" on="0"/>
        <pt x="212" y="592" on="0"/>
      </contour>
    </TTGlyph>
    <TTGlyph name="at" xMin="82" yMin="-207" xMax="896" yMax="585">
      <contour>
        <pt x="309" y="188" on="1"/>
        <pt x="304" y="150" on="0"/>
        <pt x="323" y="85" on="0"/>
        <pt x="365" y="36" on="0"/>
        <pt x="426" y="8" on="0"/>
        <pt x="464" y="8" on="1"/>
        <pt x="501" y="8" on="0"/>
        <pt x="571" y="36" on="0"/>
        <pt x="627" y="85" on="0"/>
        <pt x="665" y="150" on="0"/>
        <pt x="670" y="188" on="1"/>
        <pt x="675" y="225" on="0"/>
        <pt x="656" y="291" on="0"/>
        <pt x="614" y="341" on="0"/>
        <pt x="552" y="369" on="0"/>
        <pt x="515" y="369" on="1"/>
        <pt x="477" y="369" on="0"/>
        <pt x="408" y="341" on="0"/>
        <pt x="352" y="291" on="0"/>
        <pt x="314" y="225" on="0"/>
      </contour>
      <contour>
        <pt x="884" y="188" on="1"/>
        <pt x="874" y="129" on="0"/>
        <pt x="840" y="55" on="0"/>
        <pt x="796" y="14" on="0"/>
        <pt x="747" y="0" on="0"/>
        <pt x="722" y="0" on="1"/>
        <pt x="644" y="0" on="1"/>
        <pt x="652" y="54" on="1"/>
        <pt x="654" y="70" on="0"/>
        <pt x="659" y="101" on="0"/>
        <pt x="661" y="117" on="1"/>
        <pt x="632" y="63" on="0"/>
        <pt x="525" y="-6" on="0"/>
        <pt x="462" y="-6" on="1"/>
        <pt x="421" y="-6" on="0"/>
        <pt x="355" y="24" on="0"/>
        <pt x="310" y="77" on="0"/>
        <pt x="289" y="147" on="0"/>
        <pt x="295" y="188" on="1"/>
        <pt x="301" y="228" on="0"/>
        <pt x="341" y="300" on="0"/>
        <pt x="401" y="352" on="0"/>
        <pt x="476" y="383" on="0"/>
        <pt x="517" y="383" on="1"/>
        <pt x="579" y="383" on="0"/>
        <pt x="666" y="314" on="0"/>
        <pt x="680" y="260" on="1"/>
        <pt x="685" y="289" on="0"/>
        <pt x="695" y="346" on="0"/>
        <pt x="701" y="375" on="1"/>
        <pt x="711" y="375" on="1"/>
        <pt x="660" y="13" on="1"/>
        <pt x="731" y="13" on="1"/>
        <pt x="785" y="13" on="0"/>
        <pt x="855" y="97" on="0"/>
        <pt x="870" y="188" on="1"/>
        <pt x="881" y="267" on="0"/>
        <pt x="841" y="407" on="0"/>
        <pt x="752" y="511" on="0"/>
        <pt x="621" y="571" on="0"/>
        <pt x="542" y="571" on="1"/>
        <pt x="463" y="571" on="0"/>
        <pt x="316" y="511" on="0"/>
        <pt x="198" y="407" on="0"/>
        <pt x="118" y="267" on="0"/>
        <pt x="107" y="188" on="1"/>
        <pt x="96" y="109" on="0"/>
        <pt x="137" y="-30" on="0"/>
        <pt x="225" y="-133" on="0"/>
        <pt x="356" y="-193" on="0"/>
        <pt x="435" y="-193" on="1"/>
        <pt x="497" y="-193" on="0"/>
        <pt x="613" y="-155" on="0"/>
        <pt x="664" y="-123" on="1"/>
        <pt x="666" y="-126" on="0"/>
        <pt x="669" y="-131" on="0"/>
        <pt x="671" y="-134" on="1"/>
        <pt x="617" y="-168" on="0"/>
        <pt x="499" y="-207" on="0"/>
        <pt x="433" y="-207" on="1"/>
        <pt x="351" y="-207" on="0"/>
        <pt x="216" y="-145" on="0"/>
        <pt x="124" y="-37" on="0"/>
        <pt x="82" y="107" on="0"/>
        <pt x="94" y="189" on="1"/>
        <pt x="105" y="271" on="0"/>
        <pt x="187" y="415" on="0"/>
        <pt x="310" y="523" on="0"/>
        <pt x="462" y="585" on="0"/>
        <pt x="544" y="585" on="1"/>
        <pt x="626" y="585" on="0"/>
        <pt x="762" y="523" on="0"/>
        <pt x="854" y="415" on="0"/>
        <pt x="896" y="270" on="0"/>
      </contour>
    </TTGlyph>
    <TTGlyph name="atilde" xMin="56" yMin="-6" xMax="499" yMax="541">
      <component glyphName="a" x="0" y="0" flags="0x204"/>
      <component glyphName="asciitilde" x="21" y="0" flags="0x4"/>
    </TTGlyph>
    <TTGlyph name="b" xMin="35" yMin="-6" xMax="530" yMax="750">
      <contour>
        <pt x="37" y="14" on="1"/>
        <pt x="110" y="14" on="1"/>
        <pt x="212" y="736" on="1"/>
        <pt x="139" y="736" on="1"/>
        <pt x="141" y="750" on="1"/>
        <pt x="228" y="750" on="1"/>
        <pt x="167" y="321" on="1"/>
        <pt x="165" y="306" on="0"/>
        <pt x="161" y="275" on="0"/>
        <pt x="159" y="260" on="1"/>
        <pt x="188" y="314" on="0"/>
        <pt x="294" y="383" on="0"/>
        <pt x="357" y="383" on="1"/>
        <pt x="397" y="383" on="0"/>
        <pt x="464" y="352" on="0"/>
        <pt x="509" y="300" on="0"/>
        <pt x="530" y="228" on="0"/>
        <pt x="524" y="188" on="1"/>
        <pt x="518" y="147" on="0"/>
        <pt x="478" y="77" on="0"/>
        <pt x="418" y="24" on="0"/>
        <pt x="343" y="-6" on="0"/>
        <pt x="303" y="-6" on="1"/>
        <pt x="240" y="-6" on="0"/>
        <pt x="152" y="63" on="0"/>
        <pt x="138" y="117" on="1"/>
        <pt x="136" y="101" on="0"/>
        <pt x="132" y="70" on="0"/>
        <pt x="130" y="54" on="1"/>
        <pt x="122" y="0" on="1"/>
        <pt x="35" y="0" on="1"/>
      </contour>
      <contour>
        <pt x="510" y="188" on="1"/>
        <pt x="515" y="225" on="0"/>
        <pt x="496" y="291" on="0"/>
        <pt x="454" y="341" on="0"/>
        <pt x="392" y="369" on="0"/>
        <pt x="355" y="369" on="1"/>
        <pt x="317" y="369" on="0"/>
        <pt x="248" y="341" on="0"/>
        <pt x="192" y="291" on="0"/>
        <pt x="154" y="225" on="0"/>
        <pt x="149" y="188" on="1"/>
        <pt x="144" y="150" on="0"/>
        <pt x="163" y="85" on="0"/>
        <pt x="205" y="36" on="0"/>
        <pt x="266" y="8" on="0"/>
        <pt x="304" y="8" on="1"/>
        <pt x="341" y="8" on="0"/>
        <pt x="411" y="36" on="0"/>
        <pt x="467" y="85" on="0"/>
        <pt x="505" y="150" on="0"/>
      </contour>
    </TTGlyph>
    <TTGlyph name="backslash" xMin="70" yMin="-19" xMax="255" yMax="736">
      <contour>
        <pt x="84" y="736" on="1"/>
        <pt x="127" y="546" on="0"/>
        <pt x="212" y="171" on="0"/>
        <pt x="255" y="-19" on="1"/>
        <pt x="241" y="-19" on="1"/>
        <pt x="198" y="171" on="0"/>
        <pt x="113" y="546" on="0"/>
        <pt x="70" y="736" on="1"/>
      </contour>
    </TTGlyph>
    <TTGlyph name="bar" xMin="99" yMin="-232" xMax="243" yMax="700">
      <contour>
        <pt x="99" y="-232" on="1"/>
        <pt x="229" y="700" on="1"/>
        <pt x="243" y="700" on="1"/>
        <pt x="113" y="-232" on="1"/>
      </contour>
    </TTGlyph>
    <TTGlyph name="braceleft" xMin="91" yMin="-148" xMax="358" yMax="746">
      <contour>
        <pt x="91" y="287" on="1"/>
        <pt x="95" y="311" on="1"/>
        <pt x="119" y="312" on="0"/>
        <pt x="153" y="339" on="0"/>
        <pt x="177" y="379" on="0"/>
        <pt x="190" y="426" on="0"/>
        <pt x="193" y="446" on="1"/>
        <pt x="218" y="628" on="1"/>
        <pt x="224" y="673" on="0"/>
        <pt x="245" y="722" on="0"/>
        <pt x="273" y="743" on="0"/>
        <pt x="304" y="746" on="0"/>
        <pt x="321" y="746" on="1"/>
        <pt x="358" y="746" on="1"/>
        <pt x="356" y="732" on="1"/>
        <pt x="299" y="732" on="1"/>
        <pt x="268" y="732" on="0"/>
        <pt x="239" y="680" on="0"/>
        <pt x="231" y="620" on="1"/>
        <pt x="210" y="470" on="1"/>
        <pt x="203" y="423" on="0"/>
        <pt x="184" y="363" on="0"/>
        <pt x="160" y="326" on="0"/>
        <pt x="134" y="306" on="0"/>
        <pt x="120" y="299" on="1"/>
        <pt x="129" y="292" on="0"/>
        <pt x="146" y="277" on="0"/>
        <pt x="159" y="254" on="0"/>
        <pt x="167" y="219" on="0"/>
        <pt x="167" y="194" on="1"/>
        <pt x="166" y="180" on="0"/>
        <pt x="165" y="148" on="0"/>
        <pt x="162" y="128" on="1"/>
        <pt x="141" y="-22" on="1"/>
        <pt x="139" y="-39" on="0"/>
        <pt x="136" y="-67" on="0"/>
        <pt x="136" y="-79" on="1"/>
        <pt x="136" y="-108" on="0"/>
        <pt x="154" y="-134" on="0"/>
        <pt x="177" y="-134" on="1"/>
        <pt x="234" y="-134" on="1"/>
        <pt x="232" y="-148" on="1"/>
        <pt x="195" y="-148" on="1"/>
        <pt x="179" y="-148" on="0"/>
        <pt x="153" y="-146" on="0"/>
        <pt x="134" y="-133" on="0"/>
        <pt x="124" y="-103" on="0"/>
        <pt x="124" y="-74" on="1"/>
        <pt x="124" y="-58" on="0"/>
        <pt x="127" y="-19" on="0"/>
        <pt x="131" y="6" on="1"/>
        <pt x="151" y="152" on="1"/>
        <pt x="154" y="170" on="0"/>
        <pt x="154" y="192" on="1"/>
        <pt x="154" y="209" on="0"/>
        <pt x="148" y="243" on="0"/>
        <pt x="134" y="269" on="0"/>
        <pt x="109" y="286" on="0"/>
      </contour>
    </TTGlyph>
    <TTGlyph name="braceright" xMin="88" yMin="-148" xMax="355" yMax="746">
      <contour>
        <pt x="355" y="311" on="1"/>
        <pt x="351" y="287" on="1"/>
        <pt x="319" y="285" on="0"/>
        <pt x="281" y="244" on="0"/>
        <pt x="260" y="189" on="0"/>
        <pt x="251" y="133" on="0"/>
        <pt x="248" y="116" on="1"/>
        <pt x="228" y="-30" on="1"/>
        <pt x="222" y="-77" on="0"/>
        <pt x="200" y="-125" on="0"/>
        <pt x="173" y="-146" on="0"/>
        <pt x="141" y="-148" on="0"/>
        <pt x="125" y="-148" on="1"/>
        <pt x="88" y="-148" on="1"/>
        <pt x="90" y="-134" on="1"/>
        <pt x="147" y="-134" on="1"/>
        <pt x="178" y="-134" on="0"/>
        <pt x="207" y="-82" on="0"/>
        <pt x="215" y="-22" on="1"/>
        <pt x="241" y="165" on="1"/>
        <pt x="245" y="199" on="0"/>
        <pt x="265" y="245" on="0"/>
        <pt x="290" y="276" on="0"/>
        <pt x="315" y="294" on="0"/>
        <pt x="326" y="299" on="1"/>
        <pt x="317" y="304" on="0"/>
        <pt x="300" y="318" on="0"/>
        <pt x="286" y="341" on="0"/>
        <pt x="278" y="375" on="0"/>
        <pt x="278" y="401" on="1"/>
        <pt x="278" y="429" on="0"/>
        <pt x="284" y="470" on="1"/>
        <pt x="305" y="620" on="1"/>
        <pt x="307" y="637" on="0"/>
        <pt x="310" y="665" on="0"/>
        <pt x="310" y="676" on="1"/>
        <pt x="310" y="732" on="0"/>
        <pt x="269" y="732" on="1"/>
        <pt x="212" y="732" on="1"/>
        <pt x="214" y="746" on="1"/>
        <pt x="251" y="746" on="1"/>
        <pt x="265" y="746" on="0"/>
        <pt x="291" y="745" on="0"/>
        <pt x="311" y="732" on="0"/>
        <pt x="323" y="703" on="0"/>
        <pt x="323" y="676" on="1"/>
        <pt x="323" y="656" on="0"/>
        <pt x="320" y="628" on="1"/>
        <pt x="300" y="482" on="1"/>
        <pt x="298" y="468" on="0"/>
        <pt x="292" y="428" on="0"/>
        <pt x="292" y="406" on="1"/>
        <pt x="292" y="389" on="0"/>
        <pt x="297" y="355" on="0"/>
        <pt x="311" y="329" on="0"/>
        <pt x="336" y="312" on="0"/>
      </contour>
    </TTGlyph>
    <TTGlyph name="bracketleft" xMin="20" yMin="-149" xMax="308" yMax="746">
      <contour>
        <pt x="20" y="-149" on="1"/>
        <pt x="145" y="746" on="1"/>
        <pt x="308" y="746" on="1"/>
        <pt x="306" y="732" on="1"/>
        <pt x="159" y="732" on="1"/>
        <pt x="38" y="-135" on="1"/>
        <pt x="185" y="-135" on="1"/>
        <pt x="183" y="-149" on="1"/>
      </contour>
    </TTGlyph>
    <TTGlyph name="bracketright" xMin="25" yMin="-149" xMax="313" yMax="746">
      <contour>
        <pt x="313" y="746" on="1"/>
        <pt x="188" y="-149" on="1"/>
        <pt x="25" y="-149" on="1"/>
        <pt x="27" y="-135" on="1"/>
        <pt x="174" y="-135" on="1"/>
        <pt x="295" y="732" on="1"/>
        <pt x="148" y="732" on="1"/>
        <pt x="150" y="746" on="1"/>
      </contour>
    </TTGlyph>
    <TTGlyph name="brokenbar" xMin="102" yMin="-233" xMax="247" yMax="700">
      <contour>
        <pt x="116" y="-233" on="1"/>
        <pt x="102" y="-233" on="1"/>
        <pt x="151" y="117" on="1"/>
        <pt x="165" y="117" on="1"/>
      </contour>
      <contour>
        <pt x="197" y="350" on="1"/>
        <pt x="183" y="350" on="1"/>
        <pt x="233" y="700" on="1"/>
        <pt x="247" y="700" on="1"/>
      </contour>
    </TTGlyph>
    <TTGlyph name="bullet" xMin="179" yMin="235" xMax="318" yMax="366">
      <contour>
        <pt x="183" y="300" on="1"/>
        <pt x="187" y="328" on="0"/>
        <pt x="230" y="366" on="0"/>
        <pt x="257" y="366" on="1"/>
        <pt x="285" y="366" on="0"/>
        <pt x="318" y="328" on="0"/>
        <pt x="314" y="300" on="1"/>
        <pt x="310" y="273" on="0"/>
        <pt x="267" y="235" on="0"/>
        <pt x="239" y="235" on="1"/>
        <pt x="212" y="235" on="0"/>
        <pt x="179" y="273" on="0"/>
      </contour>
    </TTGlyph>
    <TTGlyph name="c" xMin="56" yMin="-6" xMax="400" yMax="383">
      <contour>
        <pt x="358" y="37" on="1"/>
        <pt x="329" y="17" on="0"/>
        <pt x="264" y="-6" on="0"/>
        <pt x="229" y="-6" on="1"/>
        <pt x="188" y="-6" on="0"/>
        <pt x="122" y="24" on="0"/>
        <pt x="77" y="77" on="0"/>
        <pt x="56" y="147" on="0"/>
        <pt x="62" y="188" on="1"/>
        <pt x="68" y="228" on="0"/>
        <pt x="108" y="300" on="0"/>
        <pt x="168" y="352" on="0"/>
        <pt x="242" y="383" on="0"/>
        <pt x="283" y="383" on="1"/>
        <pt x="318" y="383" on="0"/>
        <pt x="378" y="360" on="0"/>
        <pt x="400" y="340" on="1"/>
        <pt x="388" y="253" on="1"/>
        <pt x="374" y="253" on="1"/>
        <pt x="385" y="332" on="1"/>
        <pt x="364" y="349" on="0"/>
        <pt x="312" y="369" on="0"/>
        <pt x="281" y="369" on="1"/>
        <pt x="243" y="369" on="0"/>
        <pt x="174" y="341" on="0"/>
        <pt x="118" y="291" on="0"/>
        <pt x="81" y="225" on="0"/>
        <pt x="76" y="188" on="1"/>
        <pt x="71" y="150" on="0"/>
        <pt x="89" y="85" on="0"/>
        <pt x="131" y="36" on="0"/>
        <pt x="192" y="8" on="0"/>
        <pt x="230" y="8" on="1"/>
        <pt x="262" y="8" on="0"/>
        <pt x="323" y="29" on="0"/>
        <pt x="349" y="47" on="1"/>
      </contour>
    </TTGlyph>
    <TTGlyph name="ccedilla" xMin="44" yMin="-223" xMax="388" yMax="383">
      <contour>
        <pt x="337" y="47" on="1"/>
        <pt x="345" y="37" on="1"/>
        <pt x="344" y="36" on="0"/>
        <pt x="325" y="27" on="0"/>
        <pt x="299" y="16" on="0"/>
        <pt x="268" y="2" on="0"/>
        <pt x="243" y="-7" on="0"/>
        <pt x="226" y="-12" on="0"/>
        <pt x="226" y="-10" on="1"/>
        <pt x="224" y="-32" on="0"/>
        <pt x="249" y="-53" on="0"/>
        <pt x="260" y="-61" on="1"/>
        <pt x="280" y="-76" on="0"/>
        <pt x="294" y="-113" on="0"/>
        <pt x="292" y="-127" on="1"/>
        <pt x="285" y="-178" on="0"/>
        <pt x="228" y="-223" on="0"/>
        <pt x="195" y="-223" on="1"/>
        <pt x="177" y="-223" on="0"/>
        <pt x="162" y="-217" on="1"/>
        <pt x="147" y="-210" on="0"/>
        <pt x="126" y="-185" on="0"/>
        <pt x="122" y="-165" on="1"/>
        <pt x="138" y="-161" on="1"/>
        <pt x="141" y="-183" on="0"/>
        <pt x="173" y="-209" on="0"/>
        <pt x="197" y="-209" on="1"/>
        <pt x="228" y="-209" on="0"/>
        <pt x="272" y="-168" on="0"/>
        <pt x="277" y="-137" on="1"/>
        <pt x="281" y="-109" on="0"/>
        <pt x="259" y="-79" on="0"/>
        <pt x="231" y="-58" on="0"/>
        <pt x="208" y="-36" on="0"/>
        <pt x="211" y="-16" on="1"/>
        <pt x="212" y="-6" on="1"/>
        <pt x="173" y="-5" on="0"/>
        <pt x="108" y="25" on="0"/>
        <pt x="64" y="78" on="0"/>
        <pt x="44" y="148" on="0"/>
        <pt x="50" y="188" on="1"/>
        <pt x="56" y="228" on="0"/>
        <pt x="96" y="300" on="0"/>
        <pt x="156" y="352" on="0"/>
        <pt x="230" y="383" on="0"/>
        <pt x="271" y="383" on="1"/>
        <pt x="306" y="383" on="0"/>
        <pt x="366" y="360" on="0"/>
        <pt x="388" y="340" on="1"/>
        <pt x="376" y="252" on="1"/>
        <pt x="362" y="252" on="1"/>
        <pt x="373" y="332" on="1"/>
        <pt x="352" y="349" on="0"/>
        <pt x="300" y="369" on="0"/>
        <pt x="269" y="369" on="1"/>
        <pt x="231" y="369" on="0"/>
        <pt x="162" y="341" on="0"/>
        <pt x="106" y="291" on="0"/>
        <pt x="69" y="225" on="0"/>
        <pt x="64" y="188" on="1"/>
        <pt x="59" y="150" on="0"/>
        <pt x="77" y="85" on="0"/>
        <pt x="119" y="36" on="0"/>
        <pt x="180" y="8" on="0"/>
        <pt x="218" y="8" on="1"/>
        <pt x="250" y="8" on="0"/>
        <pt x="311" y="29" on="0"/>
      </contour>
    </TTGlyph>
    <TTGlyph name="cedilla" xMin="133" yMin="-223" xMax="305" yMax="0">
      <contour>
        <pt x="224" y="0" on="1"/>
        <pt x="238" y="0" on="1"/>
        <pt x="237" y="-6" on="1"/>
        <pt x="235" y="-19" on="0"/>
        <pt x="241" y="-37" on="0"/>
        <pt x="251" y="-49" on="0"/>
        <pt x="264" y="-57" on="0"/>
        <pt x="270" y="-61" on="1"/>
        <pt x="290" y="-76" on="0"/>
        <pt x="305" y="-113" on="0"/>
        <pt x="303" y="-127" on="1"/>
        <pt x="295" y="-178" on="0"/>
        <pt x="239" y="-223" on="0"/>
        <pt x="206" y="-223" on="1"/>
        <pt x="180" y="-223" on="0"/>
        <pt x="138" y="-194" on="0"/>
        <pt x="133" y="-165" on="1"/>
        <pt x="137" y="-164" on="0"/>
        <pt x="144" y="-162" on="0"/>
        <pt x="148" y="-161" on="1"/>
        <pt x="151" y="-182" on="0"/>
        <pt x="182" y="-209" on="0"/>
        <pt x="207" y="-209" on="1"/>
        <pt x="238" y="-209" on="0"/>
        <pt x="283" y="-168" on="0"/>
        <pt x="288" y="-137" on="1"/>
        <pt x="292" y="-109" on="0"/>
        <pt x="270" y="-79" on="0"/>
        <pt x="242" y="-58" on="0"/>
        <pt x="219" y="-36" on="0"/>
        <pt x="222" y="-16" on="1"/>
      </contour>
    </TTGlyph>
    <TTGlyph name="cent" xMin="66" yMin="-68" xMax="410" yMax="438">
      <contour>
        <pt x="359" y="47" on="1"/>
        <pt x="367" y="37" on="1"/>
        <pt x="338" y="17" on="0"/>
        <pt x="272" y="-6" on="0"/>
        <pt x="237" y="-6" on="1"/>
        <pt x="229" y="-68" on="1"/>
        <pt x="215" y="-68" on="1"/>
        <pt x="223" y="-5" on="1"/>
        <pt x="185" y="-2" on="0"/>
        <pt x="125" y="30" on="0"/>
        <pt x="84" y="81" on="0"/>
        <pt x="66" y="149" on="0"/>
        <pt x="71" y="188" on="1"/>
        <pt x="77" y="227" on="0"/>
        <pt x="114" y="295" on="0"/>
        <pt x="170" y="347" on="0"/>
        <pt x="240" y="379" on="0"/>
        <pt x="278" y="382" on="1"/>
        <pt x="286" y="438" on="1"/>
        <pt x="300" y="438" on="1"/>
        <pt x="292" y="383" on="1"/>
        <pt x="327" y="383" on="0"/>
        <pt x="388" y="360" on="0"/>
        <pt x="410" y="340" on="1"/>
        <pt x="409" y="339" on="0"/>
        <pt x="409" y="339" on="1"/>
        <pt x="410" y="339" on="1"/>
        <pt x="397" y="252" on="1"/>
        <pt x="383" y="252" on="1"/>
        <pt x="395" y="332" on="1"/>
        <pt x="374" y="349" on="0"/>
        <pt x="321" y="369" on="0"/>
        <pt x="290" y="369" on="1"/>
        <pt x="239" y="8" on="1"/>
        <pt x="271" y="8" on="0"/>
        <pt x="333" y="29" on="0"/>
      </contour>
      <contour>
        <pt x="85" y="188" on="1"/>
        <pt x="80" y="152" on="0"/>
        <pt x="97" y="89" on="0"/>
        <pt x="134" y="41" on="0"/>
        <pt x="190" y="11" on="0"/>
        <pt x="225" y="8" on="1"/>
        <pt x="276" y="368" on="1"/>
        <pt x="241" y="365" on="0"/>
        <pt x="176" y="335" on="0"/>
        <pt x="125" y="287" on="0"/>
        <pt x="90" y="224" on="0"/>
      </contour>
    </TTGlyph>
    <TTGlyph name="colon" xMin="45" yMin="0" xMax="124" yMax="290">
      <contour>
        <pt x="82" y="270" on="1"/>
        <pt x="84" y="278" on="0"/>
        <pt x="97" y="290" on="0"/>
        <pt x="105" y="290" on="1"/>
        <pt x="113" y="290" on="0"/>
        <pt x="124" y="278" on="0"/>
        <pt x="122" y="270" on="1"/>
        <pt x="121" y="262" on="0"/>
        <pt x="107" y="250" on="0"/>
        <pt x="99" y="250" on="1"/>
        <pt x="91" y="250" on="0"/>
        <pt x="81" y="262" on="0"/>
      </contour>
      <contour>
        <pt x="47" y="20" on="1"/>
        <pt x="48" y="28" on="0"/>
        <pt x="62" y="40" on="0"/>
        <pt x="70" y="40" on="1"/>
        <pt x="78" y="40" on="0"/>
        <pt x="88" y="28" on="0"/>
        <pt x="87" y="20" on="1"/>
        <pt x="85" y="12" on="0"/>
        <pt x="72" y="0" on="0"/>
        <pt x="64" y="0" on="1"/>
        <pt x="56" y="0" on="0"/>
        <pt x="45" y="12" on="0"/>
      </contour>
    </TTGlyph>
    <TTGlyph name="comma" xMin="12" yMin="-120" xMax="141" yMax="86">
      <contour>
        <pt x="141" y="86" on="1"/>
        <pt x="112" y="34" on="0"/>
        <pt x="55" y="-68" on="0"/>
        <pt x="26" y="-120" on="1"/>
        <pt x="12" y="-120" on="1"/>
        <pt x="39" y="-68" on="0"/>
        <pt x="91" y="34" on="0"/>
        <pt x="118" y="86" on="1"/>
      </contour>
    </TTGlyph>
    <TTGlyph name="copyright" xMin="172" yMin="118" xMax="698" yMax="627">
      <contour>
        <pt x="400" y="132" on="1"/>
        <pt x="450" y="132" on="0"/>
        <pt x="543" y="168" on="0"/>
        <pt x="618" y="233" on="0"/>
        <pt x="669" y="320" on="0"/>
        <pt x="676" y="371" on="1"/>
        <pt x="683" y="423" on="0"/>
        <pt x="658" y="512" on="0"/>
        <pt x="601" y="577" on="0"/>
        <pt x="518" y="613" on="0"/>
        <pt x="468" y="613" on="1"/>
        <pt x="419" y="613" on="0"/>
        <pt x="327" y="577" on="0"/>
        <pt x="252" y="512" on="0"/>
        <pt x="201" y="423" on="0"/>
        <pt x="194" y="371" on="1"/>
        <pt x="187" y="320" on="0"/>
        <pt x="213" y="233" on="0"/>
        <pt x="269" y="168" on="0"/>
        <pt x="351" y="132" on="0"/>
      </contour>
      <contour>
        <pt x="400" y="118" on="1"/>
        <pt x="346" y="118" on="0"/>
        <pt x="258" y="156" on="0"/>
        <pt x="199" y="224" on="0"/>
        <pt x="172" y="317" on="0"/>
        <pt x="180" y="372" on="1"/>
        <pt x="188" y="427" on="0"/>
        <pt x="240" y="521" on="0"/>
        <pt x="318" y="589" on="0"/>
        <pt x="417" y="627" on="0"/>
        <pt x="471" y="627" on="1"/>
        <pt x="525" y="627" on="0"/>
        <pt x="613" y="589" on="0"/>
        <pt x="672" y="521" on="0"/>
        <pt x="698" y="427" on="0"/>
        <pt x="690" y="372" on="1"/>
        <pt x="682" y="317" on="0"/>
        <pt x="630" y="224" on="0"/>
        <pt x="552" y="156" on="0"/>
        <pt x="454" y="118" on="0"/>
      </contour>
      <contour>
        <pt x="530" y="464" on="1"/>
        <pt x="537" y="511" on="1"/>
        <pt x="505" y="531" on="0"/>
        <pt x="463" y="531" on="1"/>
        <pt x="431" y="531" on="0"/>
        <pt x="371" y="506" on="0"/>
        <pt x="323" y="463" on="0"/>
        <pt x="291" y="406" on="0"/>
        <pt x="287" y="374" on="1"/>
        <pt x="282" y="342" on="0"/>
        <pt x="299" y="286" on="0"/>
        <pt x="334" y="244" on="0"/>
        <pt x="386" y="220" on="0"/>
        <pt x="418" y="220" on="1"/>
        <pt x="440" y="220" on="0"/>
        <pt x="482" y="231" on="0"/>
        <pt x="501" y="241" on="1"/>
        <pt x="505" y="236" on="1"/>
        <pt x="485" y="225" on="0"/>
        <pt x="442" y="213" on="0"/>
        <pt x="419" y="213" on="1"/>
        <pt x="386" y="213" on="0"/>
        <pt x="330" y="239" on="0"/>
        <pt x="293" y="283" on="0"/>
        <pt x="275" y="342" on="0"/>
        <pt x="280" y="375" on="1"/>
        <pt x="285" y="409" on="0"/>
        <pt x="319" y="468" on="0"/>
        <pt x="368" y="512" on="0"/>
        <pt x="431" y="537" on="0"/>
        <pt x="464" y="537" on="1"/>
        <pt x="509" y="537" on="0"/>
        <pt x="544" y="515" on="1"/>
        <pt x="537" y="464" on="1"/>
      </contour>
    </TTGlyph>
    <TTGlyph name="currency" xMin="110" yMin="219" xMax="422" yMax="496">
      <contour>
        <pt x="148" y="361" on="1"/>
        <pt x="145" y="336" on="0"/>
        <pt x="157" y="293" on="0"/>
        <pt x="185" y="261" on="0"/>
        <pt x="226" y="242" on="0"/>
        <pt x="250" y="242" on="1"/>
        <pt x="274" y="242" on="0"/>
        <pt x="320" y="261" on="0"/>
        <pt x="356" y="293" on="0"/>
        <pt x="381" y="336" on="0"/>
        <pt x="384" y="361" on="1"/>
        <pt x="388" y="386" on="0"/>
        <pt x="375" y="429" on="0"/>
        <pt x="348" y="461" on="0"/>
        <pt x="307" y="480" on="0"/>
        <pt x="283" y="480" on="1"/>
        <pt x="259" y="480" on="0"/>
        <pt x="213" y="461" on="0"/>
        <pt x="177" y="429" on="0"/>
        <pt x="152" y="386" on="0"/>
      </contour>
      <contour>
        <pt x="134" y="361" on="1"/>
        <pt x="138" y="386" on="0"/>
        <pt x="161" y="430" on="0"/>
        <pt x="179" y="448" on="1"/>
        <pt x="171" y="458" on="0"/>
        <pt x="154" y="476" on="0"/>
        <pt x="146" y="486" on="1"/>
        <pt x="157" y="496" on="1"/>
        <pt x="190" y="458" on="1"/>
        <pt x="210" y="475" on="0"/>
        <pt x="259" y="494" on="0"/>
        <pt x="285" y="494" on="1"/>
        <pt x="311" y="494" on="0"/>
        <pt x="355" y="474" on="0"/>
        <pt x="370" y="457" on="1"/>
        <pt x="413" y="495" on="1"/>
        <pt x="422" y="485" on="1"/>
        <pt x="379" y="447" on="1"/>
        <pt x="391" y="430" on="0"/>
        <pt x="402" y="386" on="0"/>
        <pt x="398" y="361" on="1"/>
        <pt x="395" y="335" on="0"/>
        <pt x="369" y="289" on="0"/>
        <pt x="351" y="271" on="1"/>
        <pt x="386" y="230" on="1"/>
        <pt x="375" y="220" on="1"/>
        <pt x="366" y="231" on="0"/>
        <pt x="348" y="250" on="0"/>
        <pt x="339" y="261" on="1"/>
        <pt x="298" y="228" on="0"/>
        <pt x="248" y="228" on="1"/>
        <pt x="197" y="228" on="0"/>
        <pt x="165" y="260" on="1"/>
        <pt x="119" y="219" on="1"/>
        <pt x="110" y="229" on="1"/>
        <pt x="157" y="270" on="1"/>
        <pt x="128" y="307" on="0"/>
      </contour>
    </TTGlyph>
    <TTGlyph name="d" xMin="56" yMin="-6" xMax="530" yMax="750">
      <contour>
        <pt x="418" y="54" on="1"/>
        <pt x="420" y="70" on="0"/>
        <pt x="426" y="101" on="0"/>
        <pt x="428" y="117" on="1"/>
        <pt x="399" y="63" on="0"/>
        <pt x="292" y="-6" on="0"/>
        <pt x="229" y="-6" on="1"/>
        <pt x="188" y="-6" on="0"/>
        <pt x="122" y="24" on="0"/>
        <pt x="77" y="77" on="0"/>
        <pt x="56" y="147" on="0"/>
        <pt x="62" y="188" on="1"/>
        <pt x="68" y="228" on="0"/>
        <pt x="108" y="300" on="0"/>
        <pt x="168" y="352" on="0"/>
        <pt x="242" y="383" on="0"/>
        <pt x="283" y="383" on="1"/>
        <pt x="346" y="383" on="0"/>
        <pt x="433" y="314" on="0"/>
        <pt x="447" y="260" on="1"/>
        <pt x="452" y="290" on="0"/>
        <pt x="459" y="349" on="0"/>
        <pt x="464" y="379" on="1"/>
        <pt x="514" y="736" on="1"/>
        <pt x="441" y="736" on="1"/>
        <pt x="443" y="750" on="1"/>
        <pt x="530" y="750" on="1"/>
        <pt x="426" y="14" on="1"/>
        <pt x="499" y="14" on="1"/>
        <pt x="497" y="0" on="1"/>
        <pt x="410" y="0" on="1"/>
      </contour>
      <contour>
        <pt x="76" y="188" on="1"/>
        <pt x="71" y="150" on="0"/>
        <pt x="89" y="85" on="0"/>
        <pt x="131" y="36" on="0"/>
        <pt x="192" y="8" on="0"/>
        <pt x="230" y="8" on="1"/>
        <pt x="267" y="8" on="0"/>
        <pt x="338" y="36" on="0"/>
        <pt x="394" y="85" on="0"/>
        <pt x="432" y="150" on="0"/>
        <pt x="437" y="188" on="1"/>
        <pt x="442" y="225" on="0"/>
        <pt x="423" y="291" on="0"/>
        <pt x="381" y="341" on="0"/>
        <pt x="318" y="369" on="0"/>
        <pt x="281" y="369" on="1"/>
        <pt x="243" y="369" on="0"/>
        <pt x="174" y="341" on="0"/>
        <pt x="118" y="291" on="0"/>
        <pt x="81" y="225" on="0"/>
      </contour>
    </TTGlyph>
    <TTGlyph name="degree" xMin="66" yMin="484" xMax="229" yMax="636">
      <contour>
        <pt x="139" y="498" on="1"/>
        <pt x="165" y="498" on="0"/>
        <pt x="206" y="534" on="0"/>
        <pt x="210" y="560" on="1"/>
        <pt x="214" y="586" on="0"/>
        <pt x="183" y="622" on="0"/>
        <pt x="157" y="622" on="1"/>
        <pt x="131" y="622" on="0"/>
        <pt x="89" y="586" on="0"/>
        <pt x="85" y="560" on="1"/>
        <pt x="81" y="534" on="0"/>
        <pt x="113" y="498" on="0"/>
      </contour>
      <contour>
        <pt x="71" y="559" on="1"/>
        <pt x="76" y="592" on="0"/>
        <pt x="126" y="636" on="0"/>
        <pt x="159" y="636" on="1"/>
        <pt x="191" y="636" on="0"/>
        <pt x="229" y="592" on="0"/>
        <pt x="224" y="559" on="1"/>
        <pt x="219" y="527" on="0"/>
        <pt x="170" y="484" on="0"/>
        <pt x="138" y="484" on="1"/>
        <pt x="105" y="484" on="0"/>
        <pt x="66" y="527" on="0"/>
      </contour>
    </TTGlyph>
    <TTGlyph name="dieresis" xMin="83" yMin="480" xMax="291" yMax="520">
      <contour>
        <pt x="249" y="500" on="1"/>
        <pt x="251" y="508" on="0"/>
        <pt x="264" y="520" on="0"/>
        <pt x="272" y="520" on="1"/>
        <pt x="280" y="520" on="0"/>
        <pt x="291" y="508" on="0"/>
        <pt x="289" y="500" on="1"/>
        <pt x="288" y="492" on="0"/>
        <pt x="275" y="480" on="0"/>
        <pt x="267" y="480" on="1"/>
        <pt x="259" y="480" on="0"/>
        <pt x="248" y="492" on="0"/>
      </contour>
      <contour>
        <pt x="84" y="500" on="1"/>
        <pt x="86" y="508" on="0"/>
        <pt x="99" y="520" on="0"/>
        <pt x="107" y="520" on="1"/>
        <pt x="115" y="520" on="0"/>
        <pt x="126" y="508" on="0"/>
        <pt x="124" y="500" on="1"/>
        <pt x="123" y="492" on="0"/>
        <pt x="110" y="480" on="0"/>
        <pt x="102" y="480" on="1"/>
        <pt x="94" y="480" on="0"/>
        <pt x="83" y="492" on="0"/>
      </contour>
    </TTGlyph>
    <TTGlyph name="divide" xMin="68" yMin="71" xMax="429" yMax="361">
      <contour>
        <pt x="428" y="210" on="1"/>
        <pt x="68" y="210" on="1"/>
        <pt x="69" y="224" on="1"/>
        <pt x="429" y="224" on="1"/>
      </contour>
      <contour>
        <pt x="248" y="341" on="1"/>
        <pt x="250" y="349" on="0"/>
        <pt x="263" y="361" on="0"/>
        <pt x="271" y="361" on="1"/>
        <pt x="279" y="361" on="0"/>
        <pt x="290" y="349" on="0"/>
        <pt x="288" y="341" on="1"/>
        <pt x="287" y="333" on="0"/>
        <pt x="273" y="321" on="0"/>
        <pt x="265" y="321" on="1"/>
        <pt x="257" y="321" on="0"/>
        <pt x="247" y="333" on="0"/>
      </contour>
      <contour>
        <pt x="213" y="91" on="1"/>
        <pt x="214" y="99" on="0"/>
        <pt x="228" y="111" on="0"/>
        <pt x="236" y="111" on="1"/>
        <pt x="244" y="111" on="0"/>
        <pt x="254" y="99" on="0"/>
        <pt x="253" y="91" on="1"/>
        <pt x="251" y="83" on="0"/>
        <pt x="238" y="71" on="0"/>
        <pt x="230" y="71" on="1"/>
        <pt x="222" y="71" on="0"/>
        <pt x="211" y="83" on="0"/>
      </contour>
    </TTGlyph>
    <TTGlyph name="dollar" xMin="6" yMin="-68" xMax="433" yMax="764">
      <contour>
        <pt x="399" y="546" on="1"/>
        <pt x="414" y="653" on="1"/>
        <pt x="397" y="667" on="0"/>
        <pt x="337" y="688" on="0"/>
        <pt x="293" y="690" on="1"/>
        <pt x="249" y="380" on="1"/>
        <pt x="284" y="369" on="0"/>
        <pt x="353" y="345" on="0"/>
        <pt x="405" y="304" on="0"/>
        <pt x="433" y="238" on="0"/>
        <pt x="427" y="186" on="1"/>
        <pt x="422" y="142" on="0"/>
        <pt x="380" y="72" on="0"/>
        <pt x="317" y="21" on="0"/>
        <pt x="237" y="-7" on="0"/>
        <pt x="194" y="-8" on="1"/>
        <pt x="186" y="-68" on="1"/>
        <pt x="173" y="-68" on="1"/>
        <pt x="181" y="-8" on="1"/>
        <pt x="143" y="-7" on="0"/>
        <pt x="84" y="9" on="0"/>
        <pt x="41" y="31" on="0"/>
        <pt x="13" y="55" on="0"/>
        <pt x="6" y="64" on="1"/>
        <pt x="20" y="164" on="1"/>
        <pt x="34" y="164" on="1"/>
        <pt x="21" y="74" on="1"/>
        <pt x="45" y="45" on="0"/>
        <pt x="123" y="7" on="0"/>
        <pt x="183" y="6" on="1"/>
        <pt x="234" y="367" on="1"/>
        <pt x="204" y="376" on="0"/>
        <pt x="149" y="397" on="0"/>
        <pt x="108" y="430" on="0"/>
        <pt x="86" y="479" on="0"/>
        <pt x="89" y="517" on="1"/>
        <pt x="92" y="550" on="0"/>
        <pt x="119" y="615" on="0"/>
        <pt x="167" y="669" on="0"/>
        <pt x="237" y="703" on="0"/>
        <pt x="282" y="704" on="1"/>
        <pt x="290" y="764" on="1"/>
        <pt x="303" y="764" on="1"/>
        <pt x="295" y="704" on="1"/>
        <pt x="311" y="704" on="0"/>
        <pt x="347" y="699" on="0"/>
        <pt x="383" y="689" on="0"/>
        <pt x="416" y="673" on="0"/>
        <pt x="429" y="660" on="1"/>
        <pt x="413" y="546" on="1"/>
      </contour>
      <contour>
        <pt x="412" y="182" on="1"/>
        <pt x="419" y="230" on="0"/>
        <pt x="394" y="292" on="0"/>
        <pt x="346" y="331" on="0"/>
        <pt x="281" y="353" on="0"/>
        <pt x="247" y="363" on="1"/>
        <pt x="196" y="6" on="1"/>
        <pt x="233" y="7" on="0"/>
        <pt x="306" y="34" on="0"/>
        <pt x="366" y="79" on="0"/>
        <pt x="407" y="143" on="0"/>
      </contour>
      <contour>
        <pt x="105" y="530" on="1"/>
        <pt x="100" y="494" on="0"/>
        <pt x="118" y="446" on="0"/>
        <pt x="156" y="413" on="0"/>
        <pt x="207" y="392" on="0"/>
        <pt x="236" y="383" on="1"/>
        <pt x="280" y="690" on="1"/>
        <pt x="242" y="689" on="0"/>
        <pt x="181" y="662" on="0"/>
        <pt x="136" y="617" on="0"/>
        <pt x="109" y="560" on="0"/>
      </contour>
    </TTGlyph>
    <TTGlyph name="dotlessi" xMin="35" yMin="0" xMax="210" yMax="375">
      <contour>
        <pt x="36" y="14" on="1"/>
        <pt x="118" y="14" on="1"/>
        <pt x="167" y="361" on="1"/>
        <pt x="85" y="361" on="1"/>
        <pt x="87" y="375" on="1"/>
        <pt x="183" y="375" on="1"/>
        <pt x="132" y="14" on="1"/>
        <pt x="210" y="14" on="1"/>
        <pt x="209" y="0" on="1"/>
        <pt x="35" y="0" on="1"/>
      </contour>
    </TTGlyph>
    <TTGlyph name="e" xMin="56" yMin="-6" xMax="435" yMax="383">
      <contour>
        <pt x="281" y="369" on="1"/>
        <pt x="236" y="369" on="0"/>
        <pt x="156" y="328" on="0"/>
        <pt x="98" y="262" on="0"/>
        <pt x="69" y="178" on="0"/>
        <pt x="75" y="135" on="1"/>
        <pt x="162" y="168" on="0"/>
        <pt x="332" y="233" on="0"/>
        <pt x="418" y="266" on="1"/>
        <pt x="404" y="312" on="0"/>
        <pt x="331" y="369" on="0"/>
      </contour>
      <contour>
        <pt x="435" y="259" on="1"/>
        <pt x="345" y="224" on="0"/>
        <pt x="168" y="157" on="0"/>
        <pt x="78" y="122" on="1"/>
        <pt x="91" y="71" on="0"/>
        <pt x="172" y="8" on="0"/>
        <pt x="230" y="8" on="1"/>
        <pt x="266" y="8" on="0"/>
        <pt x="334" y="34" on="0"/>
        <pt x="361" y="57" on="1"/>
        <pt x="363" y="54" on="0"/>
        <pt x="367" y="49" on="0"/>
        <pt x="369" y="46" on="1"/>
        <pt x="339" y="22" on="0"/>
        <pt x="268" y="-6" on="0"/>
        <pt x="229" y="-6" on="1"/>
        <pt x="188" y="-6" on="0"/>
        <pt x="122" y="24" on="0"/>
        <pt x="77" y="77" on="0"/>
        <pt x="56" y="147" on="0"/>
        <pt x="62" y="188" on="1"/>
        <pt x="68" y="228" on="0"/>
        <pt x="108" y="300" on="0"/>
        <pt x="168" y="352" on="0"/>
        <pt x="242" y="383" on="0"/>
        <pt x="283" y="383" on="1"/>
        <pt x="341" y="383" on="0"/>
        <pt x="423" y="314" on="0"/>
      </contour>
    </TTGlyph>
    <TTGlyph name="eacute" xMin="56" yMin="-6" xMax="435" yMax="612">
      <component glyphName="e" x="0" y="0" flags="0x204"/>
      <component glyphName="acute" x="187" y="0" flags="0x4"/>
    </TTGlyph>
    <TTGlyph name="ecircumflex" xMin="56" yMin="-6" xMax="435" yMax="660">
      <component glyphName="e" x="0" y="0" flags="0x204"/>
      <component glyphName="asciicircum" x="83" y="0" flags="0x4"/>
    </TTGlyph>
    <TTGlyph name="edieresis" xMin="56" yMin="-6" xMax="435" yMax="520">
      <component glyphName="e" x="0" y="0" flags="0x204"/>
      <component glyphName="dieresis" x="50" y="0" flags="0x4"/>
    </TTGlyph>
    <TTGlyph name="egrave" xMin="56" yMin="-6" xMax="435" yMax="612">
      <component glyphName="e" x="0" y="0" flags="0x204"/>
      <component glyphName="grave" x="174" y="0" flags="0x4"/>
    </TTGlyph>
    <TTGlyph name="eight" xMin="28" yMin="-8" xMax="446" yMax="658">
      <contour>
        <pt x="148" y="511" on="1"/>
        <pt x="144" y="486" on="0"/>
        <pt x="158" y="444" on="0"/>
        <pt x="190" y="413" on="0"/>
        <pt x="235" y="396" on="0"/>
        <pt x="263" y="396" on="1"/>
        <pt x="290" y="396" on="0"/>
        <pt x="340" y="413" on="0"/>
        <pt x="379" y="444" on="0"/>
        <pt x="404" y="486" on="0"/>
        <pt x="408" y="511" on="1"/>
        <pt x="412" y="538" on="0"/>
        <pt x="399" y="586" on="0"/>
        <pt x="369" y="622" on="0"/>
        <pt x="325" y="644" on="0"/>
        <pt x="298" y="644" on="1"/>
        <pt x="270" y="644" on="0"/>
        <pt x="219" y="622" on="0"/>
        <pt x="179" y="586" on="0"/>
        <pt x="152" y="538" on="0"/>
      </contour>
      <contour>
        <pt x="48" y="195" on="1"/>
        <pt x="43" y="157" on="0"/>
        <pt x="62" y="88" on="0"/>
        <pt x="105" y="36" on="0"/>
        <pt x="169" y="5" on="0"/>
        <pt x="208" y="5" on="1"/>
        <pt x="248" y="5" on="0"/>
        <pt x="322" y="36" on="0"/>
        <pt x="382" y="88" on="0"/>
        <pt x="422" y="157" on="0"/>
        <pt x="427" y="195" on="1"/>
        <pt x="433" y="234" on="0"/>
        <pt x="412" y="301" on="0"/>
        <pt x="366" y="352" on="0"/>
        <pt x="300" y="381" on="0"/>
        <pt x="260" y="381" on="1"/>
        <pt x="221" y="381" on="0"/>
        <pt x="149" y="352" on="0"/>
        <pt x="92" y="301" on="0"/>
        <pt x="54" y="234" on="0"/>
      </contour>
      <contour>
        <pt x="34" y="195" on="1"/>
        <pt x="39" y="230" on="0"/>
        <pt x="70" y="293" on="0"/>
        <pt x="118" y="344" on="0"/>
        <pt x="178" y="381" on="0"/>
        <pt x="212" y="389" on="1"/>
        <pt x="172" y="403" on="0"/>
        <pt x="128" y="472" on="0"/>
        <pt x="135" y="518" on="1"/>
        <pt x="139" y="547" on="0"/>
        <pt x="168" y="598" on="0"/>
        <pt x="213" y="636" on="0"/>
        <pt x="268" y="658" on="0"/>
        <pt x="298" y="658" on="1"/>
        <pt x="328" y="658" on="0"/>
        <pt x="377" y="635" on="0"/>
        <pt x="411" y="596" on="0"/>
        <pt x="426" y="544" on="0"/>
        <pt x="422" y="514" on="1"/>
        <pt x="416" y="470" on="0"/>
        <pt x="355" y="403" on="0"/>
        <pt x="312" y="389" on="1"/>
        <pt x="345" y="381" on="0"/>
        <pt x="397" y="345" on="0"/>
        <pt x="432" y="294" on="0"/>
        <pt x="446" y="231" on="0"/>
        <pt x="441" y="195" on="1"/>
        <pt x="435" y="153" on="0"/>
        <pt x="392" y="79" on="0"/>
        <pt x="329" y="24" on="0"/>
        <pt x="250" y="-8" on="0"/>
        <pt x="208" y="-8" on="1"/>
        <pt x="166" y="-8" on="0"/>
        <pt x="97" y="24" on="0"/>
        <pt x="50" y="79" on="0"/>
        <pt x="28" y="153" on="0"/>
      </contour>
    </TTGlyph>
    <TTGlyph name="emdash" xMin="99" yMin="179" xMax="602" yMax="193">
      <contour>
        <pt x="99" y="179" on="1"/>
        <pt x="100" y="193" on="1"/>
        <pt x="602" y="193" on="1"/>
        <pt x="601" y="179" on="1"/>
      </contour>
    </TTGlyph>
    <TTGlyph name="endash" xMin="100" yMin="179" xMax="402" yMax="193">
      <contour>
        <pt x="100" y="179" on="1"/>
        <pt x="101" y="193" on="1"/>
        <pt x="402" y="193" on="1"/>
        <pt x="401" y="179" on="1"/>
      </contour>
    </TTGlyph>
    <TTGlyph name="equal" xMin="85" yMin="150" xMax="620" yMax="358">
      <contour>
        <pt x="593" y="164" on="1"/>
        <pt x="591" y="150" on="1"/>
        <pt x="85" y="150" on="1"/>
        <pt x="87" y="164" on="1"/>
      </contour>
      <contour>
        <pt x="620" y="358" on="1"/>
        <pt x="618" y="344" on="1"/>
        <pt x="112" y="344" on="1"/>
        <pt x="114" y="358" on="1"/>
      </contour>
    </TTGlyph>
    <TTGlyph name="eth" xMin="56" yMin="-6" xMax="458" yMax="726">
      <contour>
        <pt x="76" y="188" on="1"/>
        <pt x="71" y="150" on="0"/>
        <pt x="89" y="85" on="0"/>
        <pt x="131" y="36" on="0"/>
        <pt x="192" y="8" on="0"/>
        <pt x="230" y="8" on="1"/>
        <pt x="267" y="8" on="0"/>
        <pt x="338" y="36" on="0"/>
        <pt x="394" y="85" on="0"/>
        <pt x="432" y="150" on="0"/>
        <pt x="437" y="188" on="1"/>
        <pt x="442" y="225" on="0"/>
        <pt x="423" y="291" on="0"/>
        <pt x="381" y="341" on="0"/>
        <pt x="318" y="369" on="0"/>
        <pt x="281" y="369" on="1"/>
        <pt x="243" y="369" on="0"/>
        <pt x="174" y="341" on="0"/>
        <pt x="118" y="291" on="0"/>
        <pt x="81" y="225" on="0"/>
      </contour>
      <contour>
        <pt x="206" y="547" on="1"/>
        <pt x="228" y="567" on="0"/>
        <pt x="272" y="609" on="0"/>
        <pt x="294" y="629" on="1"/>
        <pt x="275" y="652" on="0"/>
        <pt x="235" y="697" on="0"/>
        <pt x="212" y="717" on="1"/>
        <pt x="215" y="720" on="0"/>
        <pt x="219" y="726" on="1"/>
        <pt x="263" y="689" on="0"/>
        <pt x="303" y="637" on="1"/>
        <pt x="323" y="657" on="0"/>
        <pt x="364" y="694" on="0"/>
        <pt x="384" y="714" on="1"/>
        <pt x="386" y="712" on="0"/>
        <pt x="389" y="709" on="0"/>
        <pt x="391" y="707" on="1"/>
        <pt x="370" y="687" on="0"/>
        <pt x="329" y="649" on="0"/>
        <pt x="309" y="629" on="1"/>
        <pt x="343" y="581" on="0"/>
        <pt x="402" y="471" on="0"/>
        <pt x="442" y="357" on="0"/>
        <pt x="458" y="242" on="0"/>
        <pt x="451" y="188" on="1"/>
        <pt x="445" y="147" on="0"/>
        <pt x="405" y="77" on="0"/>
        <pt x="345" y="24" on="0"/>
        <pt x="269" y="-6" on="0"/>
        <pt x="229" y="-6" on="1"/>
        <pt x="188" y="-6" on="0"/>
        <pt x="122" y="24" on="0"/>
        <pt x="77" y="77" on="0"/>
        <pt x="56" y="147" on="0"/>
        <pt x="62" y="188" on="1"/>
        <pt x="68" y="228" on="0"/>
        <pt x="108" y="300" on="0"/>
        <pt x="168" y="352" on="0"/>
        <pt x="242" y="383" on="0"/>
        <pt x="283" y="383" on="1"/>
        <pt x="334" y="383" on="0"/>
        <pt x="413" y="335" on="0"/>
        <pt x="434" y="295" on="1"/>
        <pt x="429" y="352" on="0"/>
        <pt x="369" y="523" on="0"/>
        <pt x="299" y="620" on="1"/>
        <pt x="278" y="600" on="0"/>
        <pt x="235" y="559" on="0"/>
        <pt x="213" y="539" on="1"/>
        <pt x="211" y="542" on="0"/>
      </contour>
    </TTGlyph>
    <TTGlyph name="exclam" xMin="32" yMin="36" xMax="157" yMax="750">
      <contour>
        <pt x="49" y="36" on="1"/>
        <pt x="42" y="36" on="0"/>
        <pt x="32" y="48" on="0"/>
        <pt x="33" y="56" on="1"/>
        <pt x="34" y="65" on="0"/>
        <pt x="48" y="76" on="0"/>
        <pt x="55" y="76" on="1"/>
        <pt x="63" y="76" on="0"/>
        <pt x="73" y="65" on="0"/>
        <pt x="72" y="56" on="1"/>
        <pt x="71" y="48" on="0"/>
        <pt x="57" y="36" on="0"/>
      </contour>
      <contour>
        <pt x="143" y="750" on="1"/>
        <pt x="157" y="750" on="1"/>
        <pt x="75" y="166" on="1"/>
        <pt x="61" y="166" on="1"/>
      </contour>
    </TTGlyph>
    <TTGlyph name="exclamdown" xMin="97" yMin="-210" xMax="222" yMax="504">
      <contour>
        <pt x="204" y="504" on="1"/>
        <pt x="212" y="504" on="0"/>
        <pt x="222" y="492" on="0"/>
        <pt x="221" y="484" on="1"/>
        <pt x="219" y="475" on="0"/>
        <pt x="206" y="464" on="0"/>
        <pt x="198" y="464" on="1"/>
        <pt x="191" y="464" on="0"/>
        <pt x="180" y="475" on="0"/>
        <pt x="182" y="484" on="1"/>
        <pt x="183" y="492" on="0"/>
        <pt x="197" y="504" on="0"/>
      </contour>
      <contour>
        <pt x="179" y="374" on="1"/>
        <pt x="193" y="374" on="1"/>
        <pt x="111" y="-210" on="1"/>
        <pt x="97" y="-210" on="1"/>
      </contour>
    </TTGlyph>
    <TTGlyph name="f" xMin="35" yMin="0" xMax="386" yMax="750">
      <contour>
        <pt x="36" y="14" on="1"/>
        <pt x="97" y="14" on="1"/>
        <pt x="146" y="361" on="1"/>
        <pt x="85" y="361" on="1"/>
        <pt x="87" y="375" on="1"/>
        <pt x="148" y="375" on="1"/>
        <pt x="168" y="518" on="1"/>
        <pt x="176" y="573" on="0"/>
        <pt x="217" y="659" on="0"/>
        <pt x="276" y="717" on="0"/>
        <pt x="348" y="748" on="0"/>
        <pt x="386" y="750" on="1"/>
        <pt x="384" y="736" on="1"/>
        <pt x="350" y="736" on="0"/>
        <pt x="284" y="706" on="0"/>
        <pt x="229" y="650" on="0"/>
        <pt x="190" y="571" on="0"/>
        <pt x="183" y="522" on="1"/>
        <pt x="162" y="375" on="1"/>
        <pt x="292" y="375" on="1"/>
        <pt x="290" y="361" on="1"/>
        <pt x="160" y="361" on="1"/>
        <pt x="111" y="14" on="1"/>
        <pt x="210" y="14" on="1"/>
        <pt x="209" y="0" on="1"/>
        <pt x="35" y="0" on="1"/>
      </contour>
    </TTGlyph>
    <TTGlyph name="five" xMin="76" yMin="-8" xMax="476" yMax="650">
      <contour>
        <pt x="476" y="650" on="1"/>
        <pt x="464" y="568" on="1"/>
        <pt x="450" y="568" on="1"/>
        <pt x="460" y="636" on="1"/>
        <pt x="201" y="636" on="1"/>
        <pt x="164" y="372" on="1"/>
        <pt x="188" y="383" on="0"/>
        <pt x="239" y="395" on="0"/>
        <pt x="265" y="395" on="1"/>
        <pt x="307" y="395" on="0"/>
        <pt x="377" y="364" on="0"/>
        <pt x="426" y="310" on="0"/>
        <pt x="448" y="237" on="0"/>
        <pt x="442" y="195" on="1"/>
        <pt x="436" y="153" on="0"/>
        <pt x="393" y="79" on="0"/>
        <pt x="329" y="24" on="0"/>
        <pt x="250" y="-8" on="0"/>
        <pt x="208" y="-8" on="1"/>
        <pt x="167" y="-8" on="0"/>
        <pt x="100" y="22" on="0"/>
        <pt x="76" y="48" on="1"/>
        <pt x="89" y="58" on="1"/>
        <pt x="109" y="33" on="0"/>
        <pt x="170" y="6" on="0"/>
        <pt x="208" y="6" on="1"/>
        <pt x="248" y="6" on="0"/>
        <pt x="322" y="36" on="0"/>
        <pt x="382" y="88" on="0"/>
        <pt x="422" y="157" on="0"/>
        <pt x="428" y="195" on="1"/>
        <pt x="433" y="234" on="0"/>
        <pt x="412" y="301" on="0"/>
        <pt x="367" y="352" on="0"/>
        <pt x="301" y="381" on="0"/>
        <pt x="261" y="381" on="1"/>
        <pt x="226" y="381" on="0"/>
        <pt x="165" y="358" on="0"/>
        <pt x="145" y="341" on="1"/>
        <pt x="189" y="650" on="1"/>
      </contour>
    </TTGlyph>
    <TTGlyph name="four" xMin="16" yMin="0" xMax="481" yMax="658">
      <contour>
        <pt x="267" y="14" on="1"/>
        <pt x="344" y="14" on="1"/>
        <pt x="368" y="183" on="1"/>
        <pt x="16" y="183" on="1"/>
        <pt x="449" y="658" on="1"/>
        <pt x="384" y="197" on="1"/>
        <pt x="481" y="197" on="1"/>
        <pt x="479" y="183" on="1"/>
        <pt x="382" y="183" on="1"/>
        <pt x="358" y="14" on="1"/>
        <pt x="441" y="14" on="1"/>
        <pt x="439" y="0" on="1"/>
        <pt x="265" y="0" on="1"/>
      </contour>
      <contour>
        <pt x="429" y="617" on="1"/>
        <pt x="48" y="197" on="1"/>
        <pt x="370" y="197" on="1"/>
      </contour>
    </TTGlyph>
    <TTGlyph name="g" xMin="90" yMin="-250" xMax="585" yMax="383">
      <contour>
        <pt x="501" y="375" on="1"/>
        <pt x="585" y="375" on="1"/>
        <pt x="583" y="361" on="1"/>
        <pt x="509" y="361" on="1"/>
        <pt x="456" y="-18" on="1"/>
        <pt x="448" y="-74" on="0"/>
        <pt x="407" y="-159" on="0"/>
        <pt x="348" y="-217" on="0"/>
        <pt x="277" y="-249" on="0"/>
        <pt x="239" y="-250" on="1"/>
        <pt x="219" y="-249" on="0"/>
        <pt x="177" y="-243" on="0"/>
        <pt x="139" y="-229" on="0"/>
        <pt x="106" y="-207" on="0"/>
        <pt x="96" y="-190" on="1"/>
        <pt x="110" y="-183" on="1"/>
        <pt x="130" y="-213" on="0"/>
        <pt x="204" y="-236" on="0"/>
        <pt x="240" y="-236" on="1"/>
        <pt x="274" y="-236" on="0"/>
        <pt x="341" y="-206" on="0"/>
        <pt x="396" y="-150" on="0"/>
        <pt x="435" y="-71" on="0"/>
        <pt x="442" y="-22" on="1"/>
        <pt x="452" y="54" on="1"/>
        <pt x="454" y="70" on="0"/>
        <pt x="460" y="101" on="0"/>
        <pt x="462" y="117" on="1"/>
        <pt x="433" y="63" on="0"/>
        <pt x="326" y="-6" on="0"/>
        <pt x="263" y="-6" on="1"/>
        <pt x="222" y="-6" on="0"/>
        <pt x="156" y="24" on="0"/>
        <pt x="111" y="77" on="0"/>
        <pt x="90" y="147" on="0"/>
        <pt x="96" y="188" on="1"/>
        <pt x="102" y="228" on="0"/>
        <pt x="142" y="300" on="0"/>
        <pt x="202" y="352" on="0"/>
        <pt x="276" y="383" on="0"/>
        <pt x="317" y="383" on="1"/>
        <pt x="348" y="383" on="0"/>
        <pt x="401" y="365" on="0"/>
        <pt x="444" y="332" on="0"/>
        <pt x="474" y="287" on="0"/>
        <pt x="481" y="260" on="1"/>
        <pt x="486" y="289" on="0"/>
        <pt x="496" y="346" on="0"/>
      </contour>
      <contour>
        <pt x="110" y="188" on="1"/>
        <pt x="105" y="150" on="0"/>
        <pt x="124" y="85" on="0"/>
        <pt x="166" y="36" on="0"/>
        <pt x="227" y="8" on="0"/>
        <pt x="265" y="8" on="1"/>
        <pt x="302" y="8" on="0"/>
        <pt x="372" y="36" on="0"/>
        <pt x="428" y="85" on="0"/>
        <pt x="466" y="150" on="0"/>
        <pt x="471" y="188" on="1"/>
        <pt x="476" y="225" on="0"/>
        <pt x="457" y="291" on="0"/>
        <pt x="415" y="341" on="0"/>
        <pt x="352" y="369" on="0"/>
        <pt x="315" y="369" on="1"/>
        <pt x="277" y="369" on="0"/>
        <pt x="208" y="341" on="0"/>
        <pt x="152" y="291" on="0"/>
        <pt x="115" y="225" on="0"/>
      </contour>
    </TTGlyph>
    <TTGlyph name="germandbls" xMin="36" yMin="-8" xMax="540" yMax="658">
      <contour>
        <pt x="38" y="14" on="1"/>
        <pt x="121" y="14" on="1"/>
        <pt x="171" y="370" on="1"/>
        <pt x="106" y="370" on="1"/>
        <pt x="108" y="384" on="1"/>
        <pt x="173" y="384" on="1"/>
        <pt x="178" y="426" on="1"/>
        <pt x="186" y="481" on="0"/>
        <pt x="228" y="567" on="0"/>
        <pt x="286" y="625" on="0"/>
        <pt x="358" y="656" on="0"/>
        <pt x="396" y="658" on="1"/>
        <pt x="425" y="657" on="0"/>
        <pt x="473" y="634" on="0"/>
        <pt x="506" y="595" on="0"/>
        <pt x="520" y="543" on="0"/>
        <pt x="516" y="514" on="1"/>
        <pt x="510" y="470" on="0"/>
        <pt x="449" y="403" on="0"/>
        <pt x="406" y="389" on="1"/>
        <pt x="438" y="381" on="0"/>
        <pt x="490" y="345" on="0"/>
        <pt x="525" y="294" on="0"/>
        <pt x="540" y="231" on="0"/>
        <pt x="535" y="195" on="1"/>
        <pt x="529" y="153" on="0"/>
        <pt x="486" y="79" on="0"/>
        <pt x="423" y="24" on="0"/>
        <pt x="344" y="-8" on="0"/>
        <pt x="302" y="-8" on="1"/>
        <pt x="244" y="-8" on="0"/>
        <pt x="200" y="22" on="1"/>
        <pt x="207" y="33" on="1"/>
        <pt x="247" y="5" on="0"/>
        <pt x="301" y="5" on="1"/>
        <pt x="341" y="5" on="0"/>
        <pt x="415" y="36" on="0"/>
        <pt x="475" y="88" on="0"/>
        <pt x="516" y="157" on="0"/>
        <pt x="521" y="195" on="1"/>
        <pt x="526" y="233" on="0"/>
        <pt x="506" y="300" on="0"/>
        <pt x="461" y="351" on="0"/>
        <pt x="396" y="381" on="0"/>
        <pt x="357" y="381" on="1"/>
        <pt x="357" y="383" on="0"/>
        <pt x="358" y="386" on="0"/>
        <pt x="358" y="388" on="1"/>
        <pt x="359" y="396" on="1"/>
        <pt x="385" y="396" on="0"/>
        <pt x="433" y="413" on="0"/>
        <pt x="472" y="444" on="0"/>
        <pt x="498" y="486" on="0"/>
        <pt x="501" y="511" on="1"/>
        <pt x="505" y="537" on="0"/>
        <pt x="493" y="585" on="0"/>
        <pt x="464" y="622" on="0"/>
        <pt x="421" y="644" on="0"/>
        <pt x="394" y="644" on="1"/>
        <pt x="360" y="644" on="0"/>
        <pt x="294" y="614" on="0"/>
        <pt x="239" y="558" on="0"/>
        <pt x="200" y="479" on="0"/>
        <pt x="193" y="430" on="1"/>
        <pt x="133" y="0" on="1"/>
        <pt x="36" y="0" on="1"/>
      </contour>
    </TTGlyph>
    <TTGlyph name="grave" xMin="-4" yMin="479" xMax="82" yMax="612">
      <contour>
        <pt x="11" y="612" on="1"/>
        <pt x="29" y="579" on="0"/>
        <pt x="64" y="512" on="0"/>
        <pt x="82" y="479" on="1"/>
        <pt x="66" y="479" on="1"/>
        <pt x="48" y="512" on="0"/>
        <pt x="13" y="579" on="0"/>
        <pt x="-4" y="612" on="1"/>
      </contour>
    </TTGlyph>
    <TTGlyph name="greater" xMin="79" yMin="-15" xMax="553" yMax="491">
      <contour>
        <pt x="79" y="-15" on="1"/>
        <pt x="81" y="1" on="1"/>
        <pt x="193" y="61" on="0"/>
        <pt x="415" y="178" on="0"/>
        <pt x="527" y="238" on="1"/>
        <pt x="432" y="298" on="0"/>
        <pt x="243" y="415" on="0"/>
        <pt x="148" y="475" on="1"/>
        <pt x="150" y="491" on="1"/>
        <pt x="251" y="428" on="0"/>
        <pt x="451" y="301" on="0"/>
        <pt x="553" y="238" on="1"/>
        <pt x="434" y="175" on="0"/>
        <pt x="198" y="48" on="0"/>
      </contour>
    </TTGlyph>
    <TTGlyph name="guillemotleft" xMin="139" yMin="77" xMax="504" yMax="400">
      <contour>
        <pt x="459" y="77" on="1"/>
        <pt x="310" y="239" on="1"/>
        <pt x="359" y="280" on="0"/>
        <pt x="455" y="359" on="0"/>
        <pt x="504" y="400" on="1"/>
        <pt x="502" y="383" on="1"/>
        <pt x="461" y="347" on="0"/>
        <pt x="380" y="275" on="0"/>
        <pt x="339" y="239" on="1"/>
        <pt x="369" y="202" on="0"/>
        <pt x="431" y="130" on="0"/>
        <pt x="461" y="93" on="1"/>
      </contour>
      <contour>
        <pt x="288" y="77" on="1"/>
        <pt x="139" y="239" on="1"/>
        <pt x="188" y="280" on="0"/>
        <pt x="284" y="359" on="0"/>
        <pt x="333" y="400" on="1"/>
        <pt x="331" y="383" on="1"/>
        <pt x="290" y="347" on="0"/>
        <pt x="209" y="275" on="0"/>
        <pt x="168" y="239" on="1"/>
        <pt x="198" y="202" on="0"/>
        <pt x="260" y="130" on="0"/>
        <pt x="290" y="93" on="1"/>
      </contour>
    </TTGlyph>
    <TTGlyph name="guillemotright" xMin="117" yMin="77" xMax="481" yMax="400">
      <contour>
        <pt x="119" y="93" on="1"/>
        <pt x="160" y="130" on="0"/>
        <pt x="240" y="202" on="0"/>
        <pt x="281" y="239" on="1"/>
        <pt x="251" y="275" on="0"/>
        <pt x="190" y="347" on="0"/>
        <pt x="160" y="383" on="1"/>
        <pt x="162" y="400" on="1"/>
        <pt x="199" y="359" on="0"/>
        <pt x="273" y="280" on="0"/>
        <pt x="310" y="239" on="1"/>
        <pt x="117" y="77" on="1"/>
      </contour>
      <contour>
        <pt x="290" y="93" on="1"/>
        <pt x="331" y="130" on="0"/>
        <pt x="411" y="202" on="0"/>
        <pt x="452" y="239" on="1"/>
        <pt x="422" y="275" on="0"/>
        <pt x="361" y="347" on="0"/>
        <pt x="331" y="383" on="1"/>
        <pt x="333" y="400" on="1"/>
        <pt x="370" y="359" on="0"/>
        <pt x="444" y="280" on="0"/>
        <pt x="481" y="239" on="1"/>
        <pt x="288" y="77" on="1"/>
      </contour>
    </TTGlyph>
    <TTGlyph name="guilsinglleft" xMin="139" yMin="77" xMax="333" yMax="400">
      <contour>
        <pt x="288" y="77" on="1"/>
        <pt x="139" y="239" on="1"/>
        <pt x="188" y="280" on="0"/>
        <pt x="284" y="359" on="0"/>
        <pt x="333" y="400" on="1"/>
        <pt x="331" y="383" on="1"/>
        <pt x="290" y="347" on="0"/>
        <pt x="209" y="275" on="0"/>
        <pt x="168" y="239" on="1"/>
        <pt x="198" y="202" on="0"/>
        <pt x="260" y="130" on="0"/>
        <pt x="290" y="93" on="1"/>
      </contour>
    </TTGlyph>
    <TTGlyph name="guilsinglright" xMin="117" yMin="77" xMax="310" yMax="400">
      <contour>
        <pt x="119" y="93" on="1"/>
        <pt x="160" y="130" on="0"/>
        <pt x="240" y="202" on="0"/>
        <pt x="281" y="239" on="1"/>
        <pt x="251" y="275" on="0"/>
        <pt x="190" y="347" on="0"/>
        <pt x="160" y="383" on="1"/>
        <pt x="162" y="400" on="1"/>
        <pt x="199" y="359" on="0"/>
        <pt x="273" y="280" on="0"/>
        <pt x="310" y="239" on="1"/>
        <pt x="117" y="77" on="1"/>
      </contour>
    </TTGlyph>
    <TTGlyph name="h" xMin="35" yMin="0" xMax="488" yMax="750">
      <contour>
        <pt x="314" y="14" on="1"/>
        <pt x="393" y="14" on="1"/>
        <pt x="430" y="277" on="1"/>
        <pt x="434" y="313" on="0"/>
        <pt x="392" y="366" on="0"/>
        <pt x="348" y="368" on="1"/>
        <pt x="314" y="368" on="0"/>
        <pt x="250" y="346" on="0"/>
        <pt x="198" y="307" on="0"/>
        <pt x="163" y="252" on="0"/>
        <pt x="158" y="220" on="1"/>
        <pt x="129" y="14" on="1"/>
        <pt x="210" y="14" on="1"/>
        <pt x="209" y="0" on="1"/>
        <pt x="35" y="0" on="1"/>
        <pt x="36" y="14" on="1"/>
        <pt x="115" y="14" on="1"/>
        <pt x="217" y="736" on="1"/>
        <pt x="144" y="736" on="1"/>
        <pt x="146" y="750" on="1"/>
        <pt x="233" y="750" on="1"/>
        <pt x="173" y="322" on="1"/>
        <pt x="163" y="277" on="1"/>
        <pt x="190" y="324" on="0"/>
        <pt x="286" y="382" on="0"/>
        <pt x="343" y="382" on="1"/>
        <pt x="396" y="382" on="0"/>
        <pt x="449" y="320" on="0"/>
        <pt x="443" y="270" on="1"/>
        <pt x="407" y="14" on="1"/>
        <pt x="488" y="14" on="1"/>
        <pt x="487" y="0" on="1"/>
        <pt x="313" y="0" on="1"/>
      </contour>
    </TTGlyph>
    <TTGlyph name="hyphen" xMin="52" yMin="184" xMax="237" yMax="198">
      <contour>
        <pt x="52" y="184" on="1"/>
        <pt x="53" y="198" on="1"/>
        <pt x="237" y="198" on="1"/>
        <pt x="236" y="184" on="1"/>
      </contour>
    </TTGlyph>
    <TTGlyph name="i" xMin="35" yMin="0" xMax="215" yMax="520">
      <contour>
        <pt x="36" y="14" on="1"/>
        <pt x="118" y="14" on="1"/>
        <pt x="167" y="361" on="1"/>
        <pt x="85" y="361" on="1"/>
        <pt x="87" y="375" on="1"/>
        <pt x="183" y="375" on="1"/>
        <pt x="132" y="14" on="1"/>
        <pt x="210" y="14" on="1"/>
        <pt x="209" y="0" on="1"/>
        <pt x="35" y="0" on="1"/>
      </contour>
      <contour>
        <pt x="174" y="500" on="1"/>
        <pt x="175" y="508" on="0"/>
        <pt x="189" y="520" on="0"/>
        <pt x="197" y="520" on="1"/>
        <pt x="205" y="520" on="0"/>
        <pt x="215" y="508" on="0"/>
        <pt x="214" y="500" on="1"/>
        <pt x="212" y="492" on="0"/>
        <pt x="199" y="480" on="0"/>
        <pt x="191" y="480" on="1"/>
        <pt x="183" y="480" on="0"/>
        <pt x="172" y="492" on="0"/>
      </contour>
    </TTGlyph>
    <TTGlyph name="iacute" xMin="35" yMin="0" xMax="311" yMax="612">
      <component glyphName="dotlessi" x="0" y="0" flags="0x204"/>
      <component glyphName="acute" x="87" y="0" flags="0x4"/>
    </TTGlyph>
    <TTGlyph name="icircumflex" xMin="35" yMin="0" xMax="298" yMax="660">
      <component glyphName="dotlessi" x="0" y="0" flags="0x204"/>
      <component glyphName="asciicircum" x="-41" y="0" flags="0x4"/>
    </TTGlyph>
    <TTGlyph name="idieresis" xMin="35" yMin="0" xMax="289" yMax="520">
      <component glyphName="dotlessi" x="0" y="0" flags="0x204"/>
      <component glyphName="dieresis" x="-2" y="0" flags="0x4"/>
    </TTGlyph>
    <TTGlyph name="igrave" xMin="35" yMin="0" xMax="210" yMax="612">
      <component glyphName="dotlessi" x="0" y="0" flags="0x204"/>
      <component glyphName="grave" x="108" y="0" flags="0x4"/>
    </TTGlyph>
    <TTGlyph name="j" xMin="13" yMin="-180" xMax="190" yMax="520">
      <contour>
        <pt x="62" y="375" on="1"/>
        <pt x="158" y="375" on="1"/>
        <pt x="105" y="-7" on="1"/>
        <pt x="97" y="-64" on="0"/>
        <pt x="54" y="-151" on="0"/>
        <pt x="24" y="-180" on="1"/>
        <pt x="13" y="-171" on="1"/>
        <pt x="42" y="-143" on="0"/>
        <pt x="83" y="-62" on="0"/>
        <pt x="90" y="-11" on="1"/>
        <pt x="142" y="361" on="1"/>
        <pt x="60" y="361" on="1"/>
      </contour>
      <contour>
        <pt x="149" y="500" on="1"/>
        <pt x="150" y="508" on="0"/>
        <pt x="164" y="520" on="0"/>
        <pt x="172" y="520" on="1"/>
        <pt x="180" y="520" on="0"/>
        <pt x="190" y="508" on="0"/>
        <pt x="189" y="500" on="1"/>
        <pt x="187" y="492" on="0"/>
        <pt x="174" y="480" on="0"/>
        <pt x="166" y="480" on="1"/>
        <pt x="158" y="480" on="0"/>
        <pt x="147" y="492" on="0"/>
      </contour>
    </TTGlyph>
    <TTGlyph name="k" xMin="35" yMin="0" xMax="469" yMax="750">
      <contour>
        <pt x="279" y="14" on="1"/>
        <pt x="352" y="14" on="1"/>
        <pt x="320" y="67" on="0"/>
        <pt x="257" y="171" on="0"/>
        <pt x="226" y="225" on="1"/>
        <pt x="142" y="155" on="1"/>
        <pt x="122" y="14" on="1"/>
        <pt x="210" y="14" on="1"/>
        <pt x="209" y="0" on="1"/>
        <pt x="35" y="0" on="1"/>
        <pt x="36" y="14" on="1"/>
        <pt x="108" y="14" on="1"/>
        <pt x="210" y="736" on="1"/>
        <pt x="137" y="736" on="1"/>
        <pt x="139" y="750" on="1"/>
        <pt x="226" y="750" on="1"/>
        <pt x="145" y="176" on="1"/>
        <pt x="369" y="361" on="1"/>
        <pt x="293" y="361" on="1"/>
        <pt x="295" y="375" on="1"/>
        <pt x="469" y="375" on="1"/>
        <pt x="467" y="361" on="1"/>
        <pt x="388" y="361" on="1"/>
        <pt x="367" y="343" on="0"/>
        <pt x="332" y="313" on="0"/>
        <pt x="297" y="283" on="0"/>
        <pt x="261" y="253" on="0"/>
        <pt x="240" y="235" on="1"/>
        <pt x="272" y="179" on="0"/>
        <pt x="338" y="69" on="0"/>
        <pt x="370" y="14" on="1"/>
        <pt x="453" y="14" on="1"/>
        <pt x="452" y="0" on="1"/>
        <pt x="278" y="0" on="1"/>
      </contour>
    </TTGlyph>
    <TTGlyph name="l" xMin="35" yMin="0" xMax="226" yMax="750">
      <contour>
        <pt x="36" y="14" on="1"/>
        <pt x="108" y="14" on="1"/>
        <pt x="210" y="736" on="1"/>
        <pt x="137" y="736" on="1"/>
        <pt x="139" y="750" on="1"/>
        <pt x="226" y="750" on="1"/>
        <pt x="122" y="14" on="1"/>
        <pt x="210" y="14" on="1"/>
        <pt x="209" y="0" on="1"/>
        <pt x="35" y="0" on="1"/>
      </contour>
    </TTGlyph>
    <TTGlyph name="less" xMin="115" yMin="-15" xMax="588" yMax="491">
      <contour>
        <pt x="519" y="1" on="1"/>
        <pt x="517" y="-15" on="1"/>
        <pt x="416" y="48" on="0"/>
        <pt x="216" y="175" on="0"/>
        <pt x="115" y="238" on="1"/>
        <pt x="233" y="301" on="0"/>
        <pt x="469" y="428" on="0"/>
        <pt x="588" y="491" on="1"/>
        <pt x="586" y="475" on="1"/>
        <pt x="474" y="415" on="0"/>
        <pt x="253" y="298" on="0"/>
        <pt x="141" y="238" on="1"/>
        <pt x="235" y="178" on="0"/>
        <pt x="424" y="61" on="0"/>
      </contour>
    </TTGlyph>
    <TTGlyph name="logicalnot" xMin="111" yMin="148" xMax="473" yMax="241">
      <contour>
        <pt x="446" y="148" on="1"/>
        <pt x="457" y="227" on="1"/>
        <pt x="111" y="227" on="1"/>
        <pt x="113" y="241" on="1"/>
        <pt x="473" y="241" on="1"/>
        <pt x="460" y="148" on="1"/>
      </contour>
    </TTGlyph>
    <TTGlyph name="m" xMin="35" yMin="0" xMax="766" yMax="382">
      <contour>
        <pt x="592" y="14" on="1"/>
        <pt x="671" y="14" on="1"/>
        <pt x="708" y="277" on="1"/>
        <pt x="712" y="313" on="0"/>
        <pt x="670" y="366" on="0"/>
        <pt x="626" y="368" on="1"/>
        <pt x="593" y="368" on="0"/>
        <pt x="530" y="347" on="0"/>
        <pt x="479" y="309" on="0"/>
        <pt x="443" y="257" on="0"/>
        <pt x="437" y="226" on="1"/>
        <pt x="407" y="14" on="1"/>
        <pt x="488" y="14" on="1"/>
        <pt x="487" y="0" on="1"/>
        <pt x="313" y="0" on="1"/>
        <pt x="314" y="14" on="1"/>
        <pt x="393" y="14" on="1"/>
        <pt x="430" y="277" on="1"/>
        <pt x="434" y="313" on="0"/>
        <pt x="392" y="366" on="0"/>
        <pt x="348" y="368" on="1"/>
        <pt x="314" y="368" on="0"/>
        <pt x="250" y="346" on="0"/>
        <pt x="198" y="307" on="0"/>
        <pt x="163" y="252" on="0"/>
        <pt x="158" y="220" on="1"/>
        <pt x="129" y="14" on="1"/>
        <pt x="210" y="14" on="1"/>
        <pt x="209" y="0" on="1"/>
        <pt x="35" y="0" on="1"/>
        <pt x="36" y="14" on="1"/>
        <pt x="115" y="14" on="1"/>
        <pt x="164" y="361" on="1"/>
        <pt x="89" y="361" on="1"/>
        <pt x="91" y="375" on="1"/>
        <pt x="174" y="375" on="1"/>
        <pt x="169" y="322" on="1"/>
        <pt x="167" y="309" on="0"/>
        <pt x="165" y="290" on="0"/>
        <pt x="163" y="277" on="1"/>
        <pt x="190" y="324" on="0"/>
        <pt x="286" y="382" on="0"/>
        <pt x="343" y="382" on="1"/>
        <pt x="392" y="382" on="0"/>
        <pt x="445" y="327" on="0"/>
        <pt x="444" y="282" on="1"/>
        <pt x="471" y="327" on="0"/>
        <pt x="566" y="382" on="0"/>
        <pt x="621" y="382" on="1"/>
        <pt x="674" y="382" on="0"/>
        <pt x="727" y="320" on="0"/>
        <pt x="721" y="270" on="1"/>
        <pt x="685" y="14" on="1"/>
        <pt x="766" y="14" on="1"/>
        <pt x="765" y="0" on="1"/>
        <pt x="591" y="0" on="1"/>
      </contour>
    </TTGlyph>
    <TTGlyph name="macron" xMin="85" yMin="492" xMax="316" yMax="506">
      <contour>
        <pt x="85" y="492" on="1"/>
        <pt x="86" y="506" on="1"/>
        <pt x="316" y="506" on="1"/>
        <pt x="315" y="492" on="1"/>
      </contour>
    </TTGlyph>
    <TTGlyph name="mu" xMin="116" yMin="-201" xMax="516" yMax="375">
      <contour>
        <pt x="396" y="375" on="1"/>
        <pt x="489" y="375" on="1"/>
        <pt x="439" y="14" on="1"/>
        <pt x="516" y="14" on="1"/>
        <pt x="514" y="0" on="1"/>
        <pt x="431" y="0" on="1"/>
        <pt x="435" y="53" on="1"/>
        <pt x="440" y="98" on="1"/>
        <pt x="413" y="50" on="0"/>
        <pt x="316" y="-7" on="0"/>
        <pt x="260" y="-7" on="1"/>
        <pt x="224" y="-7" on="0"/>
        <pt x="176" y="23" on="0"/>
        <pt x="166" y="49" on="1"/>
        <pt x="131" y="-201" on="1"/>
        <pt x="117" y="-201" on="1"/>
        <pt x="195" y="361" on="1"/>
        <pt x="116" y="361" on="1"/>
        <pt x="118" y="375" on="1"/>
        <pt x="211" y="375" on="1"/>
        <pt x="173" y="98" on="1"/>
        <pt x="169" y="62" on="0"/>
        <pt x="211" y="9" on="0"/>
        <pt x="255" y="7" on="1"/>
        <pt x="289" y="7" on="0"/>
        <pt x="353" y="29" on="0"/>
        <pt x="405" y="68" on="0"/>
        <pt x="440" y="123" on="0"/>
        <pt x="445" y="155" on="1"/>
        <pt x="473" y="361" on="1"/>
        <pt x="394" y="361" on="1"/>
      </contour>
    </TTGlyph>
    <TTGlyph name="multiply" xMin="131" yMin="0" xMax="430" yMax="265">
      <contour>
        <pt x="385" y="0" on="1"/>
        <pt x="358" y="31" on="0"/>
        <pt x="305" y="92" on="0"/>
        <pt x="279" y="123" on="1"/>
        <pt x="244" y="92" on="0"/>
        <pt x="175" y="31" on="0"/>
        <pt x="140" y="0" on="1"/>
        <pt x="138" y="2" on="0"/>
        <pt x="133" y="8" on="0"/>
        <pt x="131" y="10" on="1"/>
        <pt x="166" y="41" on="0"/>
        <pt x="235" y="102" on="0"/>
        <pt x="270" y="133" on="1"/>
        <pt x="166" y="254" on="1"/>
        <pt x="178" y="264" on="1"/>
        <pt x="282" y="143" on="1"/>
        <pt x="317" y="174" on="0"/>
        <pt x="387" y="234" on="0"/>
        <pt x="422" y="265" on="1"/>
        <pt x="424" y="263" on="0"/>
        <pt x="428" y="257" on="0"/>
        <pt x="430" y="255" on="1"/>
        <pt x="395" y="224" on="0"/>
        <pt x="325" y="164" on="0"/>
        <pt x="290" y="133" on="1"/>
        <pt x="316" y="102" on="0"/>
        <pt x="370" y="41" on="0"/>
        <pt x="396" y="10" on="1"/>
      </contour>
    </TTGlyph>
    <TTGlyph name="n" xMin="35" yMin="0" xMax="488" yMax="382">
      <contour>
        <pt x="314" y="14" on="1"/>
        <pt x="393" y="14" on="1"/>
        <pt x="430" y="277" on="1"/>
        <pt x="434" y="313" on="0"/>
        <pt x="392" y="366" on="0"/>
        <pt x="348" y="368" on="1"/>
        <pt x="314" y="368" on="0"/>
        <pt x="250" y="346" on="0"/>
        <pt x="198" y="307" on="0"/>
        <pt x="163" y="252" on="0"/>
        <pt x="158" y="220" on="1"/>
        <pt x="129" y="14" on="1"/>
        <pt x="210" y="14" on="1"/>
        <pt x="209" y="0" on="1"/>
        <pt x="35" y="0" on="1"/>
        <pt x="36" y="14" on="1"/>
        <pt x="115" y="14" on="1"/>
        <pt x="164" y="361" on="1"/>
        <pt x="89" y="361" on="1"/>
        <pt x="91" y="375" on="1"/>
        <pt x="174" y="375" on="1"/>
        <pt x="169" y="322" on="1"/>
        <pt x="167" y="309" on="0"/>
        <pt x="165" y="290" on="0"/>
        <pt x="163" y="277" on="1"/>
        <pt x="190" y="324" on="0"/>
        <pt x="286" y="382" on="0"/>
        <pt x="343" y="382" on="1"/>
        <pt x="396" y="382" on="0"/>
        <pt x="449" y="320" on="0"/>
        <pt x="443" y="270" on="1"/>
        <pt x="407" y="14" on="1"/>
        <pt x="488" y="14" on="1"/>
        <pt x="487" y="0" on="1"/>
        <pt x="313" y="0" on="1"/>
      </contour>
    </TTGlyph>
    <TTGlyph name="nine" xMin="65" yMin="-8" xMax="485" yMax="633">
      <contour>
        <pt x="466" y="432" on="1"/>
        <pt x="472" y="471" on="0"/>
        <pt x="452" y="539" on="0"/>
        <pt x="407" y="590" on="0"/>
        <pt x="342" y="619" on="0"/>
        <pt x="303" y="619" on="1"/>
        <pt x="264" y="619" on="0"/>
        <pt x="190" y="590" on="0"/>
        <pt x="131" y="539" on="0"/>
        <pt x="91" y="471" on="0"/>
        <pt x="85" y="432" on="1"/>
        <pt x="80" y="393" on="0"/>
        <pt x="100" y="324" on="0"/>
        <pt x="145" y="273" on="0"/>
        <pt x="211" y="244" on="0"/>
        <pt x="250" y="244" on="1"/>
        <pt x="289" y="244" on="0"/>
        <pt x="363" y="273" on="0"/>
        <pt x="421" y="324" on="0"/>
        <pt x="461" y="393" on="0"/>
      </contour>
      <contour>
        <pt x="479" y="432" on="1"/>
        <pt x="469" y="359" on="0"/>
        <pt x="390" y="234" on="0"/>
        <pt x="278" y="126" on="0"/>
        <pt x="147" y="33" on="0"/>
        <pt x="85" y="-8" on="1"/>
        <pt x="81" y="-1" on="0"/>
        <pt x="77" y="5" on="1"/>
        <pt x="150" y="49" on="0"/>
        <pt x="264" y="135" on="0"/>
        <pt x="349" y="214" on="0"/>
        <pt x="406" y="283" on="0"/>
        <pt x="421" y="311" on="1"/>
        <pt x="388" y="274" on="0"/>
        <pt x="298" y="230" on="0"/>
        <pt x="247" y="230" on="1"/>
        <pt x="205" y="230" on="0"/>
        <pt x="135" y="262" on="0"/>
        <pt x="87" y="317" on="0"/>
        <pt x="65" y="390" on="0"/>
        <pt x="71" y="432" on="1"/>
        <pt x="77" y="474" on="0"/>
        <pt x="120" y="547" on="0"/>
        <pt x="183" y="601" on="0"/>
        <pt x="262" y="633" on="0"/>
        <pt x="304" y="633" on="1"/>
        <pt x="346" y="633" on="0"/>
        <pt x="416" y="601" on="0"/>
        <pt x="464" y="547" on="0"/>
        <pt x="485" y="474" on="0"/>
      </contour>
    </TTGlyph>
    <TTGlyph name="ntilde" xMin="35" yMin="0" xMax="488" yMax="531">
      <component glyphName="n" x="0" y="0" flags="0x204"/>
      <component glyphName="asciitilde" x="51" y="-10" flags="0x4"/>
    </TTGlyph>
    <TTGlyph name="numbersign" xMin="15" yMin="0" xMax="517" yMax="643">
      <contour>
        <pt x="194" y="407" on="1"/>
        <pt x="183" y="365" on="0"/>
        <pt x="161" y="281" on="0"/>
        <pt x="150" y="239" on="1"/>
        <pt x="320" y="239" on="1"/>
        <pt x="331" y="281" on="0"/>
        <pt x="353" y="365" on="0"/>
        <pt x="364" y="407" on="1"/>
      </contour>
      <contour>
        <pt x="258" y="0" on="1"/>
        <pt x="273" y="57" on="0"/>
        <pt x="301" y="168" on="0"/>
        <pt x="316" y="225" on="1"/>
        <pt x="146" y="225" on="1"/>
        <pt x="131" y="168" on="0"/>
        <pt x="103" y="57" on="0"/>
        <pt x="88" y="0" on="1"/>
        <pt x="74" y="0" on="1"/>
        <pt x="89" y="57" on="0"/>
        <pt x="117" y="168" on="0"/>
        <pt x="132" y="225" on="1"/>
        <pt x="15" y="225" on="1"/>
        <pt x="16" y="229" on="0"/>
        <pt x="17" y="235" on="0"/>
        <pt x="18" y="239" on="1"/>
        <pt x="136" y="239" on="1"/>
        <pt x="147" y="281" on="0"/>
        <pt x="169" y="365" on="0"/>
        <pt x="180" y="407" on="1"/>
        <pt x="64" y="407" on="1"/>
        <pt x="64" y="411" on="0"/>
        <pt x="66" y="417" on="0"/>
        <pt x="66" y="421" on="1"/>
        <pt x="183" y="421" on="1"/>
        <pt x="198" y="477" on="0"/>
        <pt x="227" y="587" on="0"/>
        <pt x="242" y="643" on="1"/>
        <pt x="256" y="643" on="1"/>
        <pt x="241" y="587" on="0"/>
        <pt x="212" y="477" on="0"/>
        <pt x="197" y="421" on="1"/>
        <pt x="367" y="421" on="1"/>
        <pt x="382" y="477" on="0"/>
        <pt x="411" y="587" on="0"/>
        <pt x="426" y="643" on="1"/>
        <pt x="440" y="643" on="1"/>
        <pt x="425" y="587" on="0"/>
        <pt x="396" y="477" on="0"/>
        <pt x="381" y="421" on="1"/>
        <pt x="517" y="421" on="1"/>
        <pt x="517" y="417" on="0"/>
        <pt x="515" y="411" on="0"/>
        <pt x="515" y="407" on="1"/>
        <pt x="378" y="407" on="1"/>
        <pt x="367" y="365" on="0"/>
        <pt x="345" y="281" on="0"/>
        <pt x="334" y="239" on="1"/>
        <pt x="469" y="239" on="1"/>
        <pt x="468" y="235" on="0"/>
        <pt x="467" y="229" on="0"/>
        <pt x="466" y="225" on="1"/>
        <pt x="330" y="225" on="1"/>
        <pt x="315" y="168" on="0"/>
        <pt x="287" y="57" on="0"/>
        <pt x="272" y="0" on="1"/>
      </contour>
    </TTGlyph>
    <TTGlyph name="o" xMin="57" yMin="-6" xMax="459" yMax="384">
      <contour>
        <pt x="63" y="188" on="1"/>
        <pt x="69" y="228" on="0"/>
        <pt x="109" y="300" on="0"/>
        <pt x="169" y="353" on="0"/>
        <pt x="243" y="384" on="0"/>
        <pt x="284" y="384" on="1"/>
        <pt x="324" y="384" on="0"/>
        <pt x="392" y="353" on="0"/>
        <pt x="438" y="300" on="0"/>
        <pt x="459" y="228" on="0"/>
        <pt x="453" y="188" on="1"/>
        <pt x="447" y="147" on="0"/>
        <pt x="407" y="77" on="0"/>
        <pt x="346" y="24" on="0"/>
        <pt x="270" y="-6" on="0"/>
        <pt x="230" y="-6" on="1"/>
        <pt x="189" y="-6" on="0"/>
        <pt x="123" y="24" on="0"/>
        <pt x="78" y="77" on="0"/>
        <pt x="57" y="147" on="0"/>
      </contour>
      <contour>
        <pt x="77" y="188" on="1"/>
        <pt x="72" y="150" on="0"/>
        <pt x="90" y="85" on="0"/>
        <pt x="132" y="36" on="0"/>
        <pt x="193" y="8" on="0"/>
        <pt x="231" y="8" on="1"/>
        <pt x="268" y="8" on="0"/>
        <pt x="339" y="36" on="0"/>
        <pt x="395" y="85" on="0"/>
        <pt x="433" y="150" on="0"/>
        <pt x="438" y="188" on="1"/>
        <pt x="443" y="225" on="0"/>
        <pt x="424" y="291" on="0"/>
        <pt x="382" y="341" on="0"/>
        <pt x="319" y="369" on="0"/>
        <pt x="282" y="369" on="1"/>
        <pt x="244" y="369" on="0"/>
        <pt x="175" y="341" on="0"/>
        <pt x="119" y="291" on="0"/>
        <pt x="82" y="225" on="0"/>
      </contour>
    </TTGlyph>
    <TTGlyph name="oacute" xMin="57" yMin="-6" xMax="459" yMax="612">
      <component glyphName="o" x="0" y="0" flags="0x204"/>
      <component glyphName="acute" x="200" y="0" flags="0x4"/>
    </TTGlyph>
    <TTGlyph name="ocircumflex" xMin="57" yMin="-6" xMax="459" yMax="660">
      <component glyphName="o" x="0" y="0" flags="0x204"/>
      <component glyphName="asciicircum" x="87" y="0" flags="0x4"/>
    </TTGlyph>
    <TTGlyph name="odieresis" xMin="57" yMin="-6" xMax="459" yMax="520">
      <component glyphName="o" x="0" y="0" flags="0x204"/>
      <component glyphName="dieresis" x="112" y="0" flags="0x4"/>
    </TTGlyph>
    <TTGlyph name="ograve" xMin="57" yMin="-6" xMax="459" yMax="612">
      <component glyphName="o" x="0" y="0" flags="0x204"/>
      <component glyphName="grave" x="218" y="0" flags="0x4"/>
    </TTGlyph>
    <TTGlyph name="one" xMin="21" yMin="0" xMax="206" yMax="650">
      <contour>
        <pt x="23" y="14" on="1"/>
        <pt x="103" y="14" on="1"/>
        <pt x="190" y="636" on="1"/>
        <pt x="77" y="636" on="1"/>
        <pt x="79" y="650" on="1"/>
        <pt x="206" y="650" on="1"/>
        <pt x="117" y="14" on="1"/>
        <pt x="197" y="14" on="1"/>
        <pt x="195" y="0" on="1"/>
        <pt x="21" y="0" on="1"/>
      </contour>
    </TTGlyph>
    <TTGlyph name="onehalf" xMin="112" yMin="-19" xMax="856" yMax="735">
      <contour>
        <pt x="113" y="244" on="1"/>
        <pt x="170" y="244" on="1"/>
        <pt x="232" y="685" on="1"/>
        <pt x="152" y="685" on="1"/>
        <pt x="153" y="695" on="1"/>
        <pt x="243" y="695" on="1"/>
        <pt x="180" y="244" on="1"/>
        <pt x="237" y="244" on="1"/>
        <pt x="235" y="234" on="1"/>
        <pt x="112" y="234" on="1"/>
      </contour>
      <contour>
        <pt x="585" y="10" on="1"/>
        <pt x="830" y="10" on="1"/>
        <pt x="841" y="90" on="1"/>
        <pt x="851" y="90" on="1"/>
        <pt x="838" y="0" on="1"/>
        <pt x="558" y="0" on="1"/>
        <pt x="610" y="44" on="0"/>
        <pt x="707" y="129" on="0"/>
        <pt x="785" y="211" on="0"/>
        <pt x="836" y="286" on="0"/>
        <pt x="841" y="319" on="1"/>
        <pt x="847" y="359" on="0"/>
        <pt x="832" y="411" on="0"/>
        <pt x="802" y="442" on="0"/>
        <pt x="764" y="455" on="0"/>
        <pt x="746" y="455" on="1"/>
        <pt x="711" y="455" on="0"/>
        <pt x="663" y="430" on="0"/>
        <pt x="632" y="393" on="0"/>
        <pt x="615" y="350" on="0"/>
        <pt x="613" y="331" on="1"/>
        <pt x="606" y="282" on="0"/>
        <pt x="630" y="251" on="1"/>
        <pt x="623" y="245" on="1"/>
        <pt x="611" y="262" on="0"/>
        <pt x="599" y="302" on="0"/>
        <pt x="603" y="331" on="1"/>
        <pt x="607" y="360" on="0"/>
        <pt x="630" y="408" on="0"/>
        <pt x="667" y="444" on="0"/>
        <pt x="717" y="465" on="0"/>
        <pt x="748" y="465" on="1"/>
        <pt x="775" y="465" on="0"/>
        <pt x="818" y="444" on="0"/>
        <pt x="845" y="408" on="0"/>
        <pt x="856" y="358" on="0"/>
        <pt x="852" y="328" on="1"/>
        <pt x="846" y="287" on="0"/>
        <pt x="793" y="206" on="0"/>
        <pt x="717" y="126" on="0"/>
        <pt x="628" y="48" on="0"/>
      </contour>
      <contour>
        <pt x="242" y="-19" on="1"/>
        <pt x="339" y="171" on="0"/>
        <pt x="529" y="545" on="0"/>
        <pt x="626" y="735" on="1"/>
        <pt x="640" y="735" on="1"/>
        <pt x="543" y="545" on="0"/>
        <pt x="353" y="171" on="0"/>
        <pt x="256" y="-19" on="1"/>
      </contour>
    </TTGlyph>
    <TTGlyph name="onequarter" xMin="129" yMin="-19" xMax="831" yMax="735">
      <contour>
        <pt x="242" y="-19" on="1"/>
        <pt x="339" y="171" on="0"/>
        <pt x="529" y="545" on="0"/>
        <pt x="626" y="735" on="1"/>
        <pt x="640" y="735" on="1"/>
        <pt x="543" y="545" on="0"/>
        <pt x="353" y="171" on="0"/>
        <pt x="256" y="-19" on="1"/>
      </contour>
      <contour>
        <pt x="672" y="10" on="1"/>
        <pt x="730" y="10" on="1"/>
        <pt x="747" y="136" on="1"/>
        <pt x="486" y="136" on="1"/>
        <pt x="808" y="490" on="1"/>
        <pt x="759" y="147" on="1"/>
        <pt x="831" y="147" on="1"/>
        <pt x="830" y="136" on="1"/>
        <pt x="758" y="136" on="1"/>
        <pt x="740" y="10" on="1"/>
        <pt x="802" y="10" on="1"/>
        <pt x="800" y="0" on="1"/>
        <pt x="671" y="0" on="1"/>
      </contour>
      <contour>
        <pt x="793" y="459" on="1"/>
        <pt x="510" y="147" on="1"/>
        <pt x="749" y="147" on="1"/>
      </contour>
      <contour>
        <pt x="130" y="244" on="1"/>
        <pt x="187" y="244" on="1"/>
        <pt x="249" y="685" on="1"/>
        <pt x="169" y="685" on="1"/>
        <pt x="170" y="695" on="1"/>
        <pt x="260" y="695" on="1"/>
        <pt x="197" y="244" on="1"/>
        <pt x="254" y="244" on="1"/>
        <pt x="252" y="234" on="1"/>
        <pt x="129" y="234" on="1"/>
      </contour>
    </TTGlyph>
    <TTGlyph name="onesuperior" xMin="64" yMin="401" xMax="148" yMax="700">
      <contour>
        <pt x="65" y="407" on="1"/>
        <pt x="101" y="407" on="1"/>
        <pt x="141" y="694" on="1"/>
        <pt x="89" y="694" on="1"/>
        <pt x="90" y="700" on="1"/>
        <pt x="148" y="700" on="1"/>
        <pt x="108" y="407" on="1"/>
        <pt x="144" y="407" on="1"/>
        <pt x="143" y="401" on="1"/>
        <pt x="64" y="401" on="1"/>
      </contour>
    </TTGlyph>
    <TTGlyph name="ordfeminine" xMin="98" yMin="302" xMax="418" yMax="582">
      <contour>
        <pt x="103" y="442" on="1"/>
        <pt x="107" y="470" on="0"/>
        <pt x="136" y="522" on="0"/>
        <pt x="179" y="560" on="0"/>
        <pt x="233" y="582" on="0"/>
        <pt x="262" y="582" on="1"/>
        <pt x="285" y="582" on="0"/>
        <pt x="323" y="569" on="0"/>
        <pt x="354" y="545" on="0"/>
        <pt x="375" y="513" on="0"/>
        <pt x="380" y="494" on="1"/>
        <pt x="383" y="514" on="0"/>
        <pt x="391" y="556" on="0"/>
        <pt x="395" y="576" on="1"/>
        <pt x="402" y="576" on="1"/>
        <pt x="365" y="316" on="1"/>
        <pt x="418" y="316" on="1"/>
        <pt x="417" y="306" on="1"/>
        <pt x="354" y="306" on="1"/>
        <pt x="360" y="345" on="1"/>
        <pt x="361" y="356" on="0"/>
        <pt x="365" y="379" on="0"/>
        <pt x="367" y="390" on="1"/>
        <pt x="346" y="351" on="0"/>
        <pt x="269" y="302" on="0"/>
        <pt x="223" y="302" on="1"/>
        <pt x="194" y="302" on="0"/>
        <pt x="146" y="323" on="0"/>
        <pt x="114" y="362" on="0"/>
        <pt x="98" y="412" on="0"/>
      </contour>
      <contour>
        <pt x="113" y="442" on="1"/>
        <pt x="109" y="414" on="0"/>
        <pt x="122" y="367" on="0"/>
        <pt x="153" y="332" on="0"/>
        <pt x="197" y="312" on="0"/>
        <pt x="224" y="312" on="1"/>
        <pt x="251" y="312" on="0"/>
        <pt x="302" y="332" on="0"/>
        <pt x="342" y="367" on="0"/>
        <pt x="370" y="414" on="0"/>
        <pt x="373" y="442" on="1"/>
        <pt x="377" y="468" on="0"/>
        <pt x="363" y="516" on="0"/>
        <pt x="333" y="552" on="0"/>
        <pt x="287" y="572" on="0"/>
        <pt x="261" y="572" on="1"/>
        <pt x="233" y="572" on="0"/>
        <pt x="184" y="552" on="0"/>
        <pt x="143" y="516" on="0"/>
        <pt x="116" y="468" on="0"/>
      </contour>
    </TTGlyph>
    <TTGlyph name="ordmasculine" xMin="106" yMin="302" xMax="396" yMax="583">
      <contour>
        <pt x="110" y="442" on="1"/>
        <pt x="115" y="470" on="0"/>
        <pt x="144" y="522" on="0"/>
        <pt x="187" y="561" on="0"/>
        <pt x="240" y="583" on="0"/>
        <pt x="270" y="583" on="1"/>
        <pt x="299" y="583" on="0"/>
        <pt x="348" y="561" on="0"/>
        <pt x="381" y="522" on="0"/>
        <pt x="396" y="470" on="0"/>
        <pt x="392" y="442" on="1"/>
        <pt x="387" y="412" on="0"/>
        <pt x="359" y="362" on="0"/>
        <pt x="315" y="323" on="0"/>
        <pt x="260" y="302" on="0"/>
        <pt x="231" y="302" on="1"/>
        <pt x="201" y="302" on="0"/>
        <pt x="154" y="323" on="0"/>
        <pt x="121" y="362" on="0"/>
        <pt x="106" y="412" on="0"/>
      </contour>
      <contour>
        <pt x="121" y="442" on="1"/>
        <pt x="117" y="414" on="0"/>
        <pt x="130" y="367" on="0"/>
        <pt x="160" y="332" on="0"/>
        <pt x="204" y="312" on="0"/>
        <pt x="232" y="312" on="1"/>
        <pt x="258" y="312" on="0"/>
        <pt x="310" y="332" on="0"/>
        <pt x="350" y="367" on="0"/>
        <pt x="377" y="414" on="0"/>
        <pt x="381" y="442" on="1"/>
        <pt x="385" y="468" on="0"/>
        <pt x="371" y="516" on="0"/>
        <pt x="341" y="552" on="0"/>
        <pt x="295" y="572" on="0"/>
        <pt x="268" y="572" on="1"/>
        <pt x="241" y="572" on="0"/>
        <pt x="191" y="552" on="0"/>
        <pt x="151" y="516" on="0"/>
        <pt x="124" y="468" on="0"/>
      </contour>
    </TTGlyph>
    <TTGlyph name="oslash" xMin="56" yMin="-8" xMax="457" yMax="383">
      <contour>
        <pt x="76" y="188" on="1"/>
        <pt x="71" y="150" on="0"/>
        <pt x="90" y="83" on="0"/>
        <pt x="112" y="58" on="1"/>
        <pt x="180" y="127" on="0"/>
        <pt x="314" y="266" on="0"/>
        <pt x="382" y="335" on="1"/>
        <pt x="362" y="351" on="0"/>
        <pt x="310" y="369" on="0"/>
        <pt x="281" y="369" on="1"/>
        <pt x="243" y="369" on="0"/>
        <pt x="174" y="341" on="0"/>
        <pt x="118" y="291" on="0"/>
        <pt x="81" y="225" on="0"/>
      </contour>
      <contour>
        <pt x="231" y="8" on="1"/>
        <pt x="268" y="8" on="0"/>
        <pt x="338" y="36" on="0"/>
        <pt x="394" y="85" on="0"/>
        <pt x="432" y="150" on="0"/>
        <pt x="437" y="188" on="1"/>
        <pt x="443" y="230" on="0"/>
        <pt x="417" y="302" on="0"/>
        <pt x="391" y="327" on="1"/>
        <pt x="323" y="258" on="0"/>
        <pt x="188" y="119" on="0"/>
        <pt x="120" y="50" on="1"/>
        <pt x="164" y="8" on="0"/>
      </contour>
      <contour>
        <pt x="62" y="188" on="1"/>
        <pt x="68" y="228" on="0"/>
        <pt x="108" y="300" on="0"/>
        <pt x="168" y="352" on="0"/>
        <pt x="242" y="383" on="0"/>
        <pt x="283" y="383" on="1"/>
        <pt x="315" y="383" on="0"/>
        <pt x="371" y="363" on="0"/>
        <pt x="393" y="346" on="1"/>
        <pt x="402" y="355" on="0"/>
        <pt x="421" y="374" on="0"/>
        <pt x="429" y="383" on="1"/>
        <pt x="431" y="381" on="0"/>
        <pt x="435" y="377" on="0"/>
        <pt x="437" y="375" on="1"/>
        <pt x="429" y="366" on="0"/>
        <pt x="410" y="347" on="0"/>
        <pt x="401" y="338" on="1"/>
        <pt x="430" y="312" on="0"/>
        <pt x="457" y="233" on="0"/>
        <pt x="451" y="188" on="1"/>
        <pt x="445" y="147" on="0"/>
        <pt x="405" y="77" on="0"/>
        <pt x="345" y="24" on="0"/>
        <pt x="269" y="-6" on="0"/>
        <pt x="229" y="-6" on="1"/>
        <pt x="193" y="-6" on="0"/>
        <pt x="132" y="18" on="0"/>
        <pt x="109" y="39" on="1"/>
        <pt x="98" y="27" on="0"/>
        <pt x="75" y="4" on="0"/>
        <pt x="64" y="-8" on="1"/>
        <pt x="62" y="-6" on="0"/>
        <pt x="58" y="-2" on="0"/>
        <pt x="56" y="0" on="1"/>
        <pt x="67" y="12" on="0"/>
        <pt x="90" y="35" on="0"/>
        <pt x="101" y="47" on="1"/>
        <pt x="77" y="73" on="0"/>
        <pt x="56" y="146" on="0"/>
      </contour>
    </TTGlyph>
    <TTGlyph name="otilde" xMin="57" yMin="-6" xMax="459" yMax="541">
      <component glyphName="o" x="0" y="0" flags="0x204"/>
      <component glyphName="asciitilde" x="21" y="0" flags="0x4"/>
    </TTGlyph>
    <TTGlyph name="p" xMin="-2" yMin="-250" xMax="519" yMax="381">
      <contour>
        <pt x="-1" y="-236" on="1"/>
        <pt x="64" y="-236" on="1"/>
        <pt x="148" y="361" on="1"/>
        <pt x="75" y="361" on="1"/>
        <pt x="77" y="375" on="1"/>
        <pt x="160" y="375" on="1"/>
        <pt x="156" y="346" on="0"/>
        <pt x="151" y="286" on="0"/>
        <pt x="146" y="257" on="1"/>
        <pt x="161" y="284" on="0"/>
        <pt x="203" y="330" on="0"/>
        <pt x="256" y="363" on="0"/>
        <pt x="315" y="381" on="0"/>
        <pt x="346" y="381" on="1"/>
        <pt x="386" y="381" on="0"/>
        <pt x="453" y="351" on="0"/>
        <pt x="498" y="298" on="0"/>
        <pt x="519" y="227" on="0"/>
        <pt x="513" y="187" on="1"/>
        <pt x="507" y="146" on="0"/>
        <pt x="466" y="75" on="0"/>
        <pt x="406" y="23" on="0"/>
        <pt x="331" y="-8" on="0"/>
        <pt x="291" y="-8" on="1"/>
        <pt x="228" y="-8" on="0"/>
        <pt x="141" y="61" on="0"/>
        <pt x="127" y="115" on="1"/>
        <pt x="121" y="61" on="1"/>
        <pt x="79" y="-236" on="1"/>
        <pt x="172" y="-236" on="1"/>
        <pt x="171" y="-250" on="1"/>
        <pt x="-2" y="-250" on="1"/>
      </contour>
      <contour>
        <pt x="499" y="187" on="1"/>
        <pt x="504" y="224" on="0"/>
        <pt x="485" y="290" on="0"/>
        <pt x="443" y="339" on="0"/>
        <pt x="381" y="367" on="0"/>
        <pt x="344" y="367" on="1"/>
        <pt x="306" y="367" on="0"/>
        <pt x="237" y="339" on="0"/>
        <pt x="181" y="290" on="0"/>
        <pt x="143" y="224" on="0"/>
        <pt x="138" y="187" on="1"/>
        <pt x="133" y="149" on="0"/>
        <pt x="152" y="84" on="0"/>
        <pt x="194" y="34" on="0"/>
        <pt x="255" y="6" on="0"/>
        <pt x="293" y="6" on="1"/>
        <pt x="330" y="6" on="0"/>
        <pt x="400" y="34" on="0"/>
        <pt x="456" y="84" on="0"/>
        <pt x="494" y="149" on="0"/>
      </contour>
    </TTGlyph>
    <TTGlyph name="paragraph" xMin="115" yMin="0" xMax="591" yMax="750">
      <contour>
        <pt x="215" y="0" on="1"/>
        <pt x="201" y="0" on="1"/>
        <pt x="260" y="423" on="1"/>
        <pt x="226" y="423" on="0"/>
        <pt x="170" y="448" on="0"/>
        <pt x="132" y="492" on="0"/>
        <pt x="115" y="552" on="0"/>
        <pt x="120" y="586" on="1"/>
        <pt x="125" y="620" on="0"/>
        <pt x="159" y="680" on="0"/>
        <pt x="209" y="724" on="0"/>
        <pt x="272" y="750" on="0"/>
        <pt x="306" y="750" on="1"/>
        <pt x="591" y="750" on="1"/>
        <pt x="589" y="736" on="1"/>
        <pt x="481" y="736" on="1"/>
        <pt x="379" y="14" on="1"/>
        <pt x="487" y="14" on="1"/>
        <pt x="486" y="0" on="1"/>
        <pt x="364" y="0" on="1"/>
        <pt x="467" y="736" on="1"/>
        <pt x="318" y="736" on="1"/>
      </contour>
    </TTGlyph>
    <TTGlyph name="parenleft" xMin="136" yMin="-163" xMax="375" yMax="747">
      <contour>
        <pt x="147" y="292" on="1"/>
        <pt x="157" y="367" on="0"/>
        <pt x="204" y="503" on="0"/>
        <pt x="267" y="619" on="0"/>
        <pt x="339" y="714" on="0"/>
        <pt x="375" y="747" on="1"/>
        <pt x="375" y="724" on="1"/>
        <pt x="342" y="691" on="0"/>
        <pt x="274" y="601" on="0"/>
        <pt x="215" y="491" on="0"/>
        <pt x="171" y="363" on="0"/>
        <pt x="161" y="292" on="1"/>
        <pt x="151" y="221" on="0"/>
        <pt x="159" y="93" on="0"/>
        <pt x="187" y="-17" on="0"/>
        <pt x="230" y="-107" on="0"/>
        <pt x="254" y="-140" on="1"/>
        <pt x="252" y="-146" on="0"/>
        <pt x="250" y="-157" on="0"/>
        <pt x="248" y="-163" on="1"/>
        <pt x="221" y="-130" on="0"/>
        <pt x="175" y="-35" on="0"/>
        <pt x="145" y="81" on="0"/>
        <pt x="136" y="217" on="0"/>
      </contour>
    </TTGlyph>
    <TTGlyph name="parenright" xMin="50" yMin="-163" xMax="289" yMax="747">
      <contour>
        <pt x="279" y="292" on="1"/>
        <pt x="268" y="217" on="0"/>
        <pt x="221" y="81" on="0"/>
        <pt x="158" y="-35" on="0"/>
        <pt x="86" y="-130" on="0"/>
        <pt x="50" y="-163" on="1"/>
        <pt x="50" y="-140" on="1"/>
        <pt x="83" y="-107" on="0"/>
        <pt x="151" y="-17" on="0"/>
        <pt x="210" y="93" on="0"/>
        <pt x="255" y="221" on="0"/>
        <pt x="265" y="292" on="1"/>
        <pt x="275" y="363" on="0"/>
        <pt x="266" y="491" on="0"/>
        <pt x="238" y="601" on="0"/>
        <pt x="195" y="691" on="0"/>
        <pt x="171" y="724" on="1"/>
        <pt x="173" y="730" on="0"/>
        <pt x="175" y="741" on="0"/>
        <pt x="177" y="747" on="1"/>
        <pt x="204" y="714" on="0"/>
        <pt x="250" y="619" on="0"/>
        <pt x="280" y="503" on="0"/>
        <pt x="289" y="367" on="0"/>
      </contour>
    </TTGlyph>
    <TTGlyph name="percent" xMin="124" yMin="0" xMax="615" yMax="500">
      <contour>
        <pt x="406" y="112" on="1"/>
        <pt x="401" y="73" on="0"/>
        <pt x="449" y="18" on="0"/>
        <pt x="489" y="18" on="1"/>
        <pt x="509" y="18" on="0"/>
        <pt x="546" y="33" on="0"/>
        <pt x="576" y="58" on="0"/>
        <pt x="595" y="92" on="0"/>
        <pt x="598" y="112" on="1"/>
        <pt x="603" y="151" on="0"/>
        <pt x="555" y="207" on="0"/>
        <pt x="515" y="207" on="1"/>
        <pt x="495" y="207" on="0"/>
        <pt x="458" y="192" on="0"/>
        <pt x="428" y="166" on="0"/>
        <pt x="409" y="131" on="0"/>
      </contour>
      <contour>
        <pt x="487" y="4" on="1"/>
        <pt x="464" y="4" on="0"/>
        <pt x="427" y="21" on="0"/>
        <pt x="401" y="50" on="0"/>
        <pt x="389" y="90" on="0"/>
        <pt x="392" y="113" on="1"/>
        <pt x="395" y="135" on="0"/>
        <pt x="418" y="175" on="0"/>
        <pt x="452" y="204" on="0"/>
        <pt x="494" y="221" on="0"/>
        <pt x="517" y="221" on="1"/>
        <pt x="539" y="221" on="0"/>
        <pt x="577" y="204" on="0"/>
        <pt x="603" y="175" on="0"/>
        <pt x="615" y="135" on="0"/>
        <pt x="612" y="113" on="1"/>
        <pt x="609" y="90" on="0"/>
        <pt x="586" y="50" on="0"/>
        <pt x="551" y="21" on="0"/>
        <pt x="509" y="4" on="0"/>
      </contour>
      <contour>
        <pt x="141" y="388" on="1"/>
        <pt x="136" y="349" on="0"/>
        <pt x="184" y="294" on="0"/>
        <pt x="224" y="294" on="1"/>
        <pt x="244" y="294" on="0"/>
        <pt x="281" y="309" on="0"/>
        <pt x="311" y="334" on="0"/>
        <pt x="330" y="368" on="0"/>
        <pt x="333" y="388" on="1"/>
        <pt x="338" y="427" on="0"/>
        <pt x="290" y="483" on="0"/>
        <pt x="250" y="483" on="1"/>
        <pt x="230" y="483" on="0"/>
        <pt x="193" y="468" on="0"/>
        <pt x="163" y="442" on="0"/>
        <pt x="144" y="407" on="0"/>
      </contour>
      <contour>
        <pt x="222" y="280" on="1"/>
        <pt x="199" y="280" on="0"/>
        <pt x="162" y="297" on="0"/>
        <pt x="136" y="326" on="0"/>
        <pt x="124" y="366" on="0"/>
        <pt x="127" y="389" on="1"/>
        <pt x="130" y="411" on="0"/>
        <pt x="153" y="451" on="0"/>
        <pt x="187" y="480" on="0"/>
        <pt x="229" y="497" on="0"/>
        <pt x="252" y="497" on="1"/>
        <pt x="274" y="497" on="0"/>
        <pt x="312" y="480" on="0"/>
        <pt x="338" y="451" on="0"/>
        <pt x="350" y="411" on="0"/>
        <pt x="347" y="389" on="1"/>
        <pt x="344" y="366" on="0"/>
        <pt x="320" y="326" on="0"/>
        <pt x="286" y="297" on="0"/>
        <pt x="244" y="280" on="0"/>
      </contour>
      <contour>
        <pt x="172" y="0" on="1"/>
        <pt x="265" y="126" on="0"/>
        <pt x="448" y="374" on="0"/>
        <pt x="541" y="500" on="1"/>
        <pt x="557" y="500" on="1"/>
        <pt x="464" y="374" on="0"/>
        <pt x="281" y="126" on="0"/>
        <pt x="188" y="0" on="1"/>
      </contour>
    </TTGlyph>
    <TTGlyph name="period" xMin="64" yMin="0" xMax="107" yMax="40">
      <contour>
        <pt x="66" y="20" on="1"/>
        <pt x="67" y="28" on="0"/>
        <pt x="80" y="40" on="0"/>
        <pt x="88" y="40" on="1"/>
        <pt x="96" y="40" on="0"/>
        <pt x="107" y="28" on="0"/>
        <pt x="106" y="20" on="1"/>
        <pt x="104" y="12" on="0"/>
        <pt x="91" y="0" on="0"/>
        <pt x="83" y="0" on="1"/>
        <pt x="75" y="0" on="0"/>
        <pt x="64" y="12" on="0"/>
      </contour>
    </TTGlyph>
    <TTGlyph name="periodcentered" xMin="64" yMin="260" xMax="107" yMax="300">
      <contour>
        <pt x="66" y="280" on="1"/>
        <pt x="67" y="288" on="0"/>
        <pt x="80" y="300" on="0"/>
        <pt x="88" y="300" on="1"/>
        <pt x="96" y="300" on="0"/>
        <pt x="107" y="288" on="0"/>
        <pt x="106" y="280" on="1"/>
        <pt x="104" y="272" on="0"/>
        <pt x="91" y="260" on="0"/>
        <pt x="83" y="260" on="1"/>
        <pt x="75" y="260" on="0"/>
        <pt x="64" y="272" on="0"/>
      </contour>
    </TTGlyph>
    <TTGlyph name="plus" xMin="85" yMin="51" xMax="447" yMax="411">
      <contour>
        <pt x="233" y="51" on="1"/>
        <pt x="258" y="225" on="1"/>
        <pt x="85" y="225" on="1"/>
        <pt x="87" y="239" on="1"/>
        <pt x="260" y="239" on="1"/>
        <pt x="284" y="411" on="1"/>
        <pt x="298" y="411" on="1"/>
        <pt x="274" y="239" on="1"/>
        <pt x="447" y="239" on="1"/>
        <pt x="445" y="225" on="1"/>
        <pt x="272" y="225" on="1"/>
        <pt x="247" y="51" on="1"/>
      </contour>
    </TTGlyph>
    <TTGlyph name="plusminus" xMin="86" yMin="136" xMax="482" yMax="571">
      <contour>
        <pt x="269" y="211" on="1"/>
        <pt x="293" y="385" on="1"/>
        <pt x="120" y="385" on="1"/>
        <pt x="122" y="399" on="1"/>
        <pt x="295" y="399" on="1"/>
        <pt x="320" y="571" on="1"/>
        <pt x="334" y="571" on="1"/>
        <pt x="309" y="399" on="1"/>
        <pt x="482" y="399" on="1"/>
        <pt x="480" y="385" on="1"/>
        <pt x="307" y="385" on="1"/>
        <pt x="283" y="211" on="1"/>
      </contour>
      <contour>
        <pt x="446" y="136" on="1"/>
        <pt x="86" y="136" on="1"/>
        <pt x="87" y="150" on="1"/>
        <pt x="447" y="150" on="1"/>
      </contour>
    </TTGlyph>
    <TTGlyph name="q" xMin="90" yMin="-250" xMax="584" yMax="381">
      <contour>
        <pt x="322" y="-236" on="1"/>
        <pt x="410" y="-236" on="1"/>
        <pt x="452" y="61" on="1"/>
        <pt x="461" y="115" on="1"/>
        <pt x="432" y="61" on="0"/>
        <pt x="326" y="-8" on="0"/>
        <pt x="263" y="-8" on="1"/>
        <pt x="222" y="-8" on="0"/>
        <pt x="156" y="23" on="0"/>
        <pt x="111" y="75" on="0"/>
        <pt x="90" y="146" on="0"/>
        <pt x="96" y="187" on="1"/>
        <pt x="102" y="227" on="0"/>
        <pt x="142" y="298" on="0"/>
        <pt x="202" y="351" on="0"/>
        <pt x="276" y="381" on="0"/>
        <pt x="317" y="381" on="1"/>
        <pt x="380" y="381" on="0"/>
        <pt x="468" y="312" on="0"/>
        <pt x="482" y="257" on="1"/>
        <pt x="486" y="286" on="0"/>
        <pt x="497" y="346" on="0"/>
        <pt x="501" y="375" on="1"/>
        <pt x="584" y="375" on="1"/>
        <pt x="582" y="361" on="1"/>
        <pt x="509" y="361" on="1"/>
        <pt x="425" y="-236" on="1"/>
        <pt x="496" y="-236" on="1"/>
        <pt x="495" y="-250" on="1"/>
        <pt x="321" y="-250" on="1"/>
      </contour>
      <contour>
        <pt x="110" y="187" on="1"/>
        <pt x="105" y="149" on="0"/>
        <pt x="123" y="84" on="0"/>
        <pt x="165" y="34" on="0"/>
        <pt x="226" y="6" on="0"/>
        <pt x="264" y="6" on="1"/>
        <pt x="301" y="6" on="0"/>
        <pt x="372" y="34" on="0"/>
        <pt x="428" y="84" on="0"/>
        <pt x="466" y="149" on="0"/>
        <pt x="471" y="187" on="1"/>
        <pt x="476" y="224" on="0"/>
        <pt x="457" y="290" on="0"/>
        <pt x="415" y="339" on="0"/>
        <pt x="352" y="367" on="0"/>
        <pt x="315" y="367" on="1"/>
        <pt x="277" y="367" on="0"/>
        <pt x="208" y="339" on="0"/>
        <pt x="152" y="290" on="0"/>
        <pt x="115" y="224" on="0"/>
      </contour>
    </TTGlyph>
    <TTGlyph name="question" xMin="61" yMin="25" xMax="440" yMax="732">
      <contour>
        <pt x="74" y="596" on="1"/>
        <pt x="71" y="597" on="0"/>
        <pt x="64" y="598" on="0"/>
        <pt x="61" y="599" on="1"/>
        <pt x="75" y="628" on="0"/>
        <pt x="118" y="677" on="0"/>
        <pt x="171" y="712" on="0"/>
        <pt x="233" y="732" on="0"/>
        <pt x="265" y="732" on="1"/>
        <pt x="306" y="732" on="0"/>
        <pt x="374" y="701" on="0"/>
        <pt x="419" y="648" on="0"/>
        <pt x="440" y="577" on="0"/>
        <pt x="434" y="537" on="1"/>
        <pt x="426" y="483" on="0"/>
        <pt x="362" y="402" on="0"/>
        <pt x="312" y="370" on="1"/>
        <pt x="291" y="356" on="0"/>
        <pt x="255" y="337" on="0"/>
        <pt x="226" y="313" on="0"/>
        <pt x="207" y="275" on="0"/>
        <pt x="202" y="242" on="1"/>
        <pt x="191" y="164" on="1"/>
        <pt x="177" y="164" on="1"/>
        <pt x="191" y="261" on="1"/>
        <pt x="195" y="292" on="0"/>
        <pt x="224" y="329" on="0"/>
        <pt x="265" y="358" on="0"/>
        <pt x="316" y="387" on="0"/>
        <pt x="343" y="408" on="1"/>
        <pt x="378" y="435" on="0"/>
        <pt x="415" y="500" on="0"/>
        <pt x="420" y="537" on="1"/>
        <pt x="425" y="576" on="0"/>
        <pt x="406" y="642" on="0"/>
        <pt x="364" y="691" on="0"/>
        <pt x="301" y="718" on="0"/>
        <pt x="263" y="718" on="1"/>
        <pt x="233" y="718" on="0"/>
        <pt x="176" y="700" on="0"/>
        <pt x="126" y="668" on="0"/>
        <pt x="86" y="623" on="0"/>
      </contour>
      <contour>
        <pt x="165" y="25" on="1"/>
        <pt x="158" y="25" on="0"/>
        <pt x="147" y="37" on="0"/>
        <pt x="149" y="45" on="1"/>
        <pt x="150" y="54" on="0"/>
        <pt x="163" y="65" on="0"/>
        <pt x="170" y="65" on="1"/>
        <pt x="178" y="65" on="0"/>
        <pt x="189" y="54" on="0"/>
        <pt x="188" y="45" on="1"/>
        <pt x="186" y="37" on="0"/>
        <pt x="173" y="25" on="0"/>
      </contour>
    </TTGlyph>
    <TTGlyph name="questiondown" xMin="9" yMin="-193" xMax="388" yMax="514">
      <component glyphName="question" x="449" y="539" scale="-0.999877929688" flags="0x4"/>
    </TTGlyph>
    <TTGlyph name="quotedbl" xMin="45" yMin="472" xMax="231" yMax="720">
      <contour>
        <pt x="178" y="472" on="1"/>
        <pt x="213" y="720" on="1"/>
        <pt x="231" y="720" on="1"/>
        <pt x="221" y="657" on="0"/>
        <pt x="202" y="535" on="0"/>
        <pt x="192" y="472" on="1"/>
      </contour>
      <contour>
        <pt x="45" y="472" on="1"/>
        <pt x="80" y="720" on="1"/>
        <pt x="98" y="720" on="1"/>
        <pt x="88" y="657" on="0"/>
        <pt x="69" y="535" on="0"/>
        <pt x="59" y="472" on="1"/>
      </contour>
    </TTGlyph>
    <TTGlyph name="quotedblbase" xMin="22" yMin="-47" xMax="198" yMax="92">
      <contour>
        <pt x="26" y="-47" on="1"/>
        <pt x="24" y="-42" on="0"/>
        <pt x="23" y="-34" on="0"/>
        <pt x="22" y="-29" on="1"/>
        <pt x="46" y="-9" on="0"/>
        <pt x="73" y="50" on="0"/>
        <pt x="71" y="85" on="1"/>
        <pt x="76" y="87" on="0"/>
        <pt x="86" y="90" on="0"/>
        <pt x="91" y="92" on="1"/>
        <pt x="94" y="52" on="0"/>
        <pt x="58" y="-21" on="0"/>
      </contour>
      <contour>
        <pt x="130" y="-47" on="1"/>
        <pt x="128" y="-42" on="0"/>
        <pt x="127" y="-34" on="0"/>
        <pt x="126" y="-29" on="1"/>
        <pt x="150" y="-9" on="0"/>
        <pt x="177" y="50" on="0"/>
        <pt x="175" y="85" on="1"/>
        <pt x="180" y="87" on="0"/>
        <pt x="190" y="90" on="0"/>
        <pt x="195" y="92" on="1"/>
        <pt x="198" y="52" on="0"/>
        <pt x="162" y="-21" on="0"/>
      </contour>
    </TTGlyph>
    <TTGlyph name="quotedblleft" xMin="36" yMin="572" xMax="189" yMax="711">
      <contour>
        <pt x="189" y="590" on="1"/>
        <pt x="187" y="585" on="0"/>
        <pt x="183" y="577" on="0"/>
        <pt x="181" y="572" on="1"/>
        <pt x="155" y="598" on="0"/>
        <pt x="140" y="671" on="0"/>
        <pt x="154" y="711" on="1"/>
        <pt x="159" y="709" on="0"/>
        <pt x="167" y="706" on="0"/>
        <pt x="172" y="704" on="1"/>
        <pt x="161" y="669" on="0"/>
        <pt x="171" y="610" on="0"/>
      </contour>
      <contour>
        <pt x="85" y="590" on="1"/>
        <pt x="83" y="585" on="0"/>
        <pt x="79" y="577" on="0"/>
        <pt x="77" y="572" on="1"/>
        <pt x="51" y="598" on="0"/>
        <pt x="36" y="671" on="0"/>
        <pt x="50" y="711" on="1"/>
        <pt x="55" y="709" on="0"/>
        <pt x="63" y="706" on="0"/>
        <pt x="68" y="704" on="1"/>
        <pt x="57" y="669" on="0"/>
        <pt x="67" y="610" on="0"/>
      </contour>
    </TTGlyph>
    <TTGlyph name="quotedblright" xMin="46" yMin="572" xMax="222" yMax="711">
      <contour>
        <pt x="50" y="572" on="1"/>
        <pt x="48" y="577" on="0"/>
        <pt x="47" y="585" on="0"/>
        <pt x="46" y="590" on="1"/>
        <pt x="70" y="610" on="0"/>
        <pt x="97" y="669" on="0"/>
        <pt x="95" y="704" on="1"/>
        <pt x="100" y="706" on="0"/>
        <pt x="110" y="709" on="0"/>
        <pt x="115" y="711" on="1"/>
        <pt x="118" y="671" on="0"/>
        <pt x="82" y="598" on="0"/>
      </contour>
      <contour>
        <pt x="154" y="572" on="1"/>
        <pt x="152" y="577" on="0"/>
        <pt x="151" y="585" on="0"/>
        <pt x="150" y="590" on="1"/>
        <pt x="174" y="610" on="0"/>
        <pt x="201" y="669" on="0"/>
        <pt x="199" y="704" on="1"/>
        <pt x="204" y="706" on="0"/>
        <pt x="214" y="709" on="0"/>
        <pt x="219" y="711" on="1"/>
        <pt x="222" y="671" on="0"/>
        <pt x="186" y="598" on="0"/>
      </contour>
    </TTGlyph>
    <TTGlyph name="quoteleft" xMin="45" yMin="572" xMax="94" yMax="711">
      <contour>
        <pt x="94" y="590" on="1"/>
        <pt x="92" y="585" on="0"/>
        <pt x="88" y="577" on="0"/>
        <pt x="86" y="572" on="1"/>
        <pt x="60" y="598" on="0"/>
        <pt x="45" y="671" on="0"/>
        <pt x="59" y="711" on="1"/>
        <pt x="64" y="709" on="0"/>
        <pt x="72" y="706" on="0"/>
        <pt x="77" y="704" on="1"/>
        <pt x="66" y="669" on="0"/>
        <pt x="76" y="610" on="0"/>
      </contour>
    </TTGlyph>
    <TTGlyph name="quoteright" xMin="61" yMin="572" xMax="133" yMax="711">
      <contour>
        <pt x="65" y="572" on="1"/>
        <pt x="63" y="577" on="0"/>
        <pt x="62" y="585" on="0"/>
        <pt x="61" y="590" on="1"/>
        <pt x="85" y="610" on="0"/>
        <pt x="112" y="669" on="0"/>
        <pt x="110" y="704" on="1"/>
        <pt x="115" y="706" on="0"/>
        <pt x="125" y="709" on="0"/>
        <pt x="130" y="711" on="1"/>
        <pt x="133" y="671" on="0"/>
        <pt x="97" y="598" on="0"/>
      </contour>
    </TTGlyph>
    <TTGlyph name="quotesinglbase" xMin="22" yMin="-47" xMax="94" yMax="92">
      <contour>
        <pt x="26" y="-47" on="1"/>
        <pt x="24" y="-42" on="0"/>
        <pt x="23" y="-34" on="0"/>
        <pt x="22" y="-29" on="1"/>
        <pt x="46" y="-9" on="0"/>
        <pt x="73" y="50" on="0"/>
        <pt x="71" y="85" on="1"/>
        <pt x="76" y="87" on="0"/>
        <pt x="86" y="90" on="0"/>
        <pt x="91" y="92" on="1"/>
        <pt x="94" y="52" on="0"/>
        <pt x="58" y="-21" on="0"/>
      </contour>
    </TTGlyph>
    <TTGlyph name="quotesingle" xMin="49" yMin="472" xMax="102" yMax="720">
      <contour>
        <pt x="49" y="472" on="1"/>
        <pt x="84" y="720" on="1"/>
        <pt x="102" y="720" on="1"/>
        <pt x="92" y="657" on="0"/>
        <pt x="73" y="535" on="0"/>
        <pt x="63" y="472" on="1"/>
      </contour>
    </TTGlyph>
    <TTGlyph name="r" xMin="35" yMin="0" xMax="344" yMax="382">
      <contour>
        <pt x="36" y="14" on="1"/>
        <pt x="115" y="14" on="1"/>
        <pt x="164" y="361" on="1"/>
        <pt x="89" y="361" on="1"/>
        <pt x="91" y="375" on="1"/>
        <pt x="174" y="375" on="1"/>
        <pt x="169" y="322" on="1"/>
        <pt x="167" y="309" on="0"/>
        <pt x="165" y="290" on="0"/>
        <pt x="163" y="277" on="1"/>
        <pt x="191" y="325" on="0"/>
        <pt x="287" y="380" on="0"/>
        <pt x="344" y="382" on="1"/>
        <pt x="342" y="368" on="1"/>
        <pt x="309" y="367" on="0"/>
        <pt x="247" y="344" on="0"/>
        <pt x="197" y="305" on="0"/>
        <pt x="162" y="251" on="0"/>
        <pt x="158" y="220" on="1"/>
        <pt x="129" y="14" on="1"/>
        <pt x="210" y="14" on="1"/>
        <pt x="209" y="0" on="1"/>
        <pt x="35" y="0" on="1"/>
      </contour>
    </TTGlyph>
    <TTGlyph name="registered" xMin="172" yMin="118" xMax="698" yMax="627">
      <contour>
        <pt x="400" y="132" on="1"/>
        <pt x="450" y="132" on="0"/>
        <pt x="543" y="168" on="0"/>
        <pt x="618" y="233" on="0"/>
        <pt x="669" y="320" on="0"/>
        <pt x="676" y="371" on="1"/>
        <pt x="683" y="423" on="0"/>
        <pt x="658" y="512" on="0"/>
        <pt x="601" y="577" on="0"/>
        <pt x="518" y="613" on="0"/>
        <pt x="468" y="613" on="1"/>
        <pt x="419" y="613" on="0"/>
        <pt x="327" y="577" on="0"/>
        <pt x="252" y="512" on="0"/>
        <pt x="201" y="423" on="0"/>
        <pt x="194" y="371" on="1"/>
        <pt x="187" y="320" on="0"/>
        <pt x="213" y="233" on="0"/>
        <pt x="269" y="168" on="0"/>
        <pt x="351" y="132" on="0"/>
      </contour>
      <contour>
        <pt x="400" y="118" on="1"/>
        <pt x="346" y="118" on="0"/>
        <pt x="258" y="156" on="0"/>
        <pt x="199" y="224" on="0"/>
        <pt x="172" y="317" on="0"/>
        <pt x="180" y="372" on="1"/>
        <pt x="188" y="427" on="0"/>
        <pt x="240" y="521" on="0"/>
        <pt x="318" y="589" on="0"/>
        <pt x="417" y="627" on="0"/>
        <pt x="471" y="627" on="1"/>
        <pt x="525" y="627" on="0"/>
        <pt x="613" y="589" on="0"/>
        <pt x="672" y="521" on="0"/>
        <pt x="698" y="427" on="0"/>
        <pt x="690" y="372" on="1"/>
        <pt x="682" y="317" on="0"/>
        <pt x="630" y="224" on="0"/>
        <pt x="552" y="156" on="0"/>
        <pt x="454" y="118" on="0"/>
      </contour>
      <contour>
        <pt x="311" y="217" on="1"/>
        <pt x="344" y="217" on="1"/>
        <pt x="389" y="534" on="1"/>
        <pt x="356" y="534" on="1"/>
        <pt x="357" y="541" on="1"/>
        <pt x="456" y="541" on="1"/>
        <pt x="470" y="541" on="0"/>
        <pt x="502" y="532" on="0"/>
        <pt x="527" y="511" on="0"/>
        <pt x="542" y="479" on="0"/>
        <pt x="539" y="457" on="1"/>
        <pt x="534" y="424" on="0"/>
        <pt x="491" y="381" on="0"/>
        <pt x="455" y="374" on="1"/>
        <pt x="507" y="217" on="1"/>
        <pt x="546" y="217" on="1"/>
        <pt x="546" y="210" on="1"/>
        <pt x="503" y="210" on="1"/>
        <pt x="448" y="373" on="1"/>
        <pt x="443" y="372" on="0"/>
        <pt x="431" y="371" on="0"/>
        <pt x="426" y="371" on="1"/>
        <pt x="373" y="371" on="1"/>
        <pt x="351" y="217" on="1"/>
        <pt x="393" y="217" on="1"/>
        <pt x="393" y="210" on="1"/>
        <pt x="311" y="210" on="1"/>
      </contour>
      <contour>
        <pt x="374" y="378" on="1"/>
        <pt x="428" y="378" on="1"/>
        <pt x="455" y="378" on="0"/>
        <pt x="494" y="393" on="0"/>
        <pt x="518" y="416" on="0"/>
        <pt x="530" y="444" on="0"/>
        <pt x="532" y="457" on="1"/>
        <pt x="537" y="488" on="0"/>
        <pt x="490" y="534" on="0"/>
        <pt x="451" y="534" on="1"/>
        <pt x="396" y="534" on="1"/>
      </contour>
    </TTGlyph>
    <TTGlyph name="ring" xMin="110" yMin="477" xMax="245" yMax="603">
      <contour>
        <pt x="129" y="540" on="1"/>
        <pt x="126" y="520" on="0"/>
        <pt x="151" y="491" on="0"/>
        <pt x="171" y="491" on="1"/>
        <pt x="191" y="491" on="0"/>
        <pt x="224" y="520" on="0"/>
        <pt x="227" y="540" on="1"/>
        <pt x="229" y="560" on="0"/>
        <pt x="204" y="589" on="0"/>
        <pt x="184" y="589" on="1"/>
        <pt x="164" y="589" on="0"/>
        <pt x="131" y="560" on="0"/>
      </contour>
      <contour>
        <pt x="115" y="540" on="1"/>
        <pt x="119" y="567" on="0"/>
        <pt x="159" y="603" on="0"/>
        <pt x="186" y="603" on="1"/>
        <pt x="213" y="603" on="0"/>
        <pt x="245" y="567" on="0"/>
        <pt x="241" y="540" on="1"/>
        <pt x="236" y="513" on="0"/>
        <pt x="196" y="477" on="0"/>
        <pt x="169" y="477" on="1"/>
        <pt x="142" y="477" on="0"/>
        <pt x="110" y="513" on="0"/>
      </contour>
    </TTGlyph>
    <TTGlyph name="s" xMin="59" yMin="-8" xMax="319" yMax="379">
      <contour>
        <pt x="82" y="91" on="1"/>
        <pt x="74" y="32" on="1"/>
        <pt x="94" y="15" on="0"/>
        <pt x="148" y="6" on="0"/>
        <pt x="173" y="6" on="1"/>
        <pt x="188" y="6" on="0"/>
        <pt x="224" y="18" on="0"/>
        <pt x="257" y="41" on="0"/>
        <pt x="281" y="75" on="0"/>
        <pt x="284" y="98" on="1"/>
        <pt x="288" y="129" on="0"/>
        <pt x="264" y="163" on="0"/>
        <pt x="222" y="182" on="0"/>
        <pt x="172" y="196" on="0"/>
        <pt x="130" y="215" on="0"/>
        <pt x="105" y="249" on="0"/>
        <pt x="109" y="280" on="1"/>
        <pt x="112" y="304" on="0"/>
        <pt x="135" y="340" on="0"/>
        <pt x="167" y="366" on="0"/>
        <pt x="205" y="379" on="0"/>
        <pt x="224" y="379" on="1"/>
        <pt x="224" y="379" on="0"/>
        <pt x="247" y="379" on="0"/>
        <pt x="278" y="373" on="0"/>
        <pt x="310" y="361" on="0"/>
        <pt x="319" y="349" on="1"/>
        <pt x="310" y="284" on="1"/>
        <pt x="296" y="284" on="1"/>
        <pt x="304" y="343" on="1"/>
        <pt x="296" y="352" on="0"/>
        <pt x="269" y="361" on="0"/>
        <pt x="243" y="365" on="0"/>
        <pt x="222" y="365" on="0"/>
        <pt x="220" y="365" on="1"/>
        <pt x="207" y="365" on="0"/>
        <pt x="177" y="357" on="0"/>
        <pt x="149" y="338" on="0"/>
        <pt x="127" y="307" on="0"/>
        <pt x="124" y="285" on="1"/>
        <pt x="119" y="256" on="0"/>
        <pt x="144" y="225" on="0"/>
        <pt x="186" y="206" on="0"/>
        <pt x="237" y="193" on="0"/>
        <pt x="279" y="171" on="0"/>
        <pt x="304" y="134" on="0"/>
        <pt x="299" y="101" on="1"/>
        <pt x="296" y="82" on="0"/>
        <pt x="277" y="43" on="0"/>
        <pt x="244" y="12" on="0"/>
        <pt x="198" y="-8" on="0"/>
        <pt x="168" y="-8" on="1"/>
        <pt x="163" y="-8" on="0"/>
        <pt x="136" y="-6" on="0"/>
        <pt x="103" y="0" on="0"/>
        <pt x="70" y="14" on="0"/>
        <pt x="59" y="26" on="1"/>
        <pt x="68" y="91" on="1"/>
      </contour>
    </TTGlyph>
    <TTGlyph name="section" xMin="196" yMin="-10" xMax="421" yMax="730">
      <contour>
        <pt x="218" y="311" on="1"/>
        <pt x="229" y="286" on="0"/>
        <pt x="272" y="262" on="0"/>
        <pt x="299" y="262" on="1"/>
        <pt x="321" y="262" on="0"/>
        <pt x="361" y="281" on="0"/>
        <pt x="390" y="313" on="0"/>
        <pt x="407" y="351" on="0"/>
        <pt x="407" y="371" on="1"/>
        <pt x="407" y="414" on="0"/>
        <pt x="351" y="459" on="0"/>
        <pt x="315" y="459" on="1"/>
        <pt x="290" y="459" on="0"/>
        <pt x="252" y="438" on="0"/>
        <pt x="225" y="406" on="0"/>
        <pt x="211" y="367" on="0"/>
        <pt x="211" y="348" on="1"/>
        <pt x="211" y="326" on="0"/>
      </contour>
      <contour>
        <pt x="271" y="154" on="1"/>
        <pt x="205" y="304" on="1"/>
        <pt x="196" y="325" on="0"/>
        <pt x="196" y="347" on="1"/>
        <pt x="196" y="369" on="0"/>
        <pt x="214" y="413" on="0"/>
        <pt x="247" y="449" on="0"/>
        <pt x="293" y="472" on="0"/>
        <pt x="320" y="472" on="1"/>
        <pt x="353" y="472" on="0"/>
        <pt x="378" y="456" on="1"/>
        <pt x="367" y="480" on="0"/>
        <pt x="343" y="534" on="0"/>
        <pt x="323" y="585" on="0"/>
        <pt x="310" y="629" on="0"/>
        <pt x="310" y="642" on="1"/>
        <pt x="310" y="661" on="0"/>
        <pt x="327" y="688" on="0"/>
        <pt x="354" y="707" on="0"/>
        <pt x="387" y="722" on="0"/>
        <pt x="402" y="730" on="1"/>
        <pt x="403" y="728" on="0"/>
        <pt x="405" y="722" on="0"/>
        <pt x="407" y="718" on="1"/>
        <pt x="393" y="710" on="0"/>
        <pt x="364" y="697" on="0"/>
        <pt x="339" y="680" on="0"/>
        <pt x="323" y="659" on="0"/>
        <pt x="323" y="643" on="1"/>
        <pt x="323" y="628" on="0"/>
        <pt x="341" y="574" on="0"/>
        <pt x="368" y="510" on="0"/>
        <pt x="399" y="443" on="0"/>
        <pt x="412" y="415" on="1"/>
        <pt x="421" y="394" on="0"/>
        <pt x="421" y="373" on="1"/>
        <pt x="421" y="351" on="0"/>
        <pt x="402" y="306" on="0"/>
        <pt x="367" y="270" on="0"/>
        <pt x="321" y="247" on="0"/>
        <pt x="294" y="247" on="1"/>
        <pt x="263" y="247" on="0"/>
        <pt x="238" y="264" on="1"/>
        <pt x="287" y="154" on="1"/>
        <pt x="298" y="130" on="0"/>
        <pt x="306" y="92" on="0"/>
        <pt x="306" y="79" on="1"/>
        <pt x="306" y="59" on="0"/>
        <pt x="289" y="32" on="0"/>
        <pt x="262" y="11" on="0"/>
        <pt x="230" y="-4" on="0"/>
        <pt x="216" y="-10" on="1"/>
        <pt x="210" y="2" on="1"/>
        <pt x="223" y="9" on="0"/>
        <pt x="253" y="23" on="0"/>
        <pt x="278" y="39" on="0"/>
        <pt x="294" y="61" on="0"/>
        <pt x="294" y="77" on="1"/>
        <pt x="294" y="103" on="0"/>
      </contour>
    </TTGlyph>
    <TTGlyph name="semicolon" xMin="-16" yMin="-120" xMax="155" yMax="290">
      <contour>
        <pt x="114" y="270" on="1"/>
        <pt x="115" y="278" on="0"/>
        <pt x="128" y="290" on="0"/>
        <pt x="136" y="290" on="1"/>
        <pt x="144" y="290" on="0"/>
        <pt x="155" y="278" on="0"/>
        <pt x="154" y="270" on="1"/>
        <pt x="152" y="262" on="0"/>
        <pt x="139" y="250" on="0"/>
        <pt x="131" y="250" on="1"/>
        <pt x="123" y="250" on="0"/>
        <pt x="112" y="262" on="0"/>
      </contour>
      <contour>
        <pt x="112" y="86" on="1"/>
        <pt x="83" y="34" on="0"/>
        <pt x="26" y="-68" on="0"/>
        <pt x="-2" y="-120" on="1"/>
        <pt x="-16" y="-120" on="1"/>
        <pt x="10" y="-68" on="0"/>
        <pt x="62" y="34" on="0"/>
        <pt x="89" y="86" on="1"/>
      </contour>
    </TTGlyph>
    <TTGlyph name="seven" xMin="48" yMin="0" xMax="460" yMax="650">
      <contour>
        <pt x="460" y="650" on="1"/>
        <pt x="77" y="0" on="1"/>
        <pt x="59" y="0" on="1"/>
        <pt x="435" y="636" on="1"/>
        <pt x="71" y="636" on="1"/>
        <pt x="62" y="568" on="1"/>
        <pt x="48" y="568" on="1"/>
        <pt x="59" y="650" on="1"/>
      </contour>
    </TTGlyph>
    <TTGlyph name="six" xMin="27" yMin="-8" xMax="447" yMax="633">
      <contour>
        <pt x="46" y="193" on="1"/>
        <pt x="40" y="154" on="0"/>
        <pt x="60" y="86" on="0"/>
        <pt x="105" y="35" on="0"/>
        <pt x="170" y="6" on="0"/>
        <pt x="209" y="6" on="1"/>
        <pt x="248" y="6" on="0"/>
        <pt x="322" y="35" on="0"/>
        <pt x="381" y="86" on="0"/>
        <pt x="421" y="154" on="0"/>
        <pt x="427" y="193" on="1"/>
        <pt x="432" y="232" on="0"/>
        <pt x="412" y="300" on="0"/>
        <pt x="367" y="351" on="0"/>
        <pt x="301" y="381" on="0"/>
        <pt x="262" y="381" on="1"/>
        <pt x="223" y="381" on="0"/>
        <pt x="149" y="351" on="0"/>
        <pt x="91" y="300" on="0"/>
        <pt x="51" y="232" on="0"/>
      </contour>
      <contour>
        <pt x="33" y="193" on="1"/>
        <pt x="43" y="266" on="0"/>
        <pt x="122" y="391" on="0"/>
        <pt x="234" y="499" on="0"/>
        <pt x="365" y="592" on="0"/>
        <pt x="427" y="633" on="1"/>
        <pt x="430" y="626" on="0"/>
        <pt x="435" y="620" on="1"/>
        <pt x="362" y="576" on="0"/>
        <pt x="248" y="490" on="0"/>
        <pt x="163" y="411" on="0"/>
        <pt x="106" y="342" on="0"/>
        <pt x="91" y="314" on="1"/>
        <pt x="124" y="351" on="0"/>
        <pt x="214" y="395" on="0"/>
        <pt x="265" y="395" on="1"/>
        <pt x="307" y="395" on="0"/>
        <pt x="377" y="363" on="0"/>
        <pt x="425" y="308" on="0"/>
        <pt x="447" y="235" on="0"/>
        <pt x="441" y="193" on="1"/>
        <pt x="435" y="151" on="0"/>
        <pt x="392" y="78" on="0"/>
        <pt x="329" y="24" on="0"/>
        <pt x="250" y="-8" on="0"/>
        <pt x="208" y="-8" on="1"/>
        <pt x="166" y="-8" on="0"/>
        <pt x="96" y="24" on="0"/>
        <pt x="48" y="78" on="0"/>
        <pt x="27" y="151" on="0"/>
      </contour>
    </TTGlyph>
    <TTGlyph name="slash" xMin="-36" yMin="-19" xMax="362" yMax="736">
      <contour>
        <pt x="-36" y="-19" on="1"/>
        <pt x="61" y="171" on="0"/>
        <pt x="251" y="546" on="0"/>
        <pt x="348" y="736" on="1"/>
        <pt x="362" y="736" on="1"/>
        <pt x="265" y="546" on="0"/>
        <pt x="75" y="171" on="0"/>
        <pt x="-22" y="-19" on="1"/>
      </contour>
    </TTGlyph>
    <TTGlyph name="sterling" xMin="26" yMin="0" xMax="513" yMax="634">
      <contour>
        <pt x="486" y="0" on="1"/>
        <pt x="26" y="0" on="1"/>
        <pt x="27" y="14" on="1"/>
        <pt x="71" y="14" on="1"/>
        <pt x="89" y="14" on="0"/>
        <pt x="112" y="29" on="0"/>
        <pt x="127" y="63" on="0"/>
        <pt x="139" y="121" on="0"/>
        <pt x="145" y="164" on="1"/>
        <pt x="165" y="311" on="1"/>
        <pt x="100" y="311" on="1"/>
        <pt x="102" y="325" on="1"/>
        <pt x="167" y="325" on="1"/>
        <pt x="192" y="500" on="1"/>
        <pt x="202" y="570" on="0"/>
        <pt x="298" y="634" on="0"/>
        <pt x="370" y="634" on="1"/>
        <pt x="403" y="634" on="0"/>
        <pt x="451" y="621" on="0"/>
        <pt x="485" y="598" on="0"/>
        <pt x="506" y="565" on="0"/>
        <pt x="513" y="545" on="1"/>
        <pt x="502" y="539" on="1"/>
        <pt x="493" y="563" on="0"/>
        <pt x="471" y="594" on="0"/>
        <pt x="440" y="612" on="0"/>
        <pt x="398" y="620" on="0"/>
        <pt x="368" y="620" on="1"/>
        <pt x="326" y="620" on="0"/>
        <pt x="267" y="601" on="0"/>
        <pt x="229" y="569" on="0"/>
        <pt x="209" y="527" on="0"/>
        <pt x="206" y="504" on="1"/>
        <pt x="181" y="325" on="1"/>
        <pt x="310" y="325" on="1"/>
        <pt x="308" y="311" on="1"/>
        <pt x="179" y="311" on="1"/>
        <pt x="151" y="109" on="1"/>
        <pt x="146" y="80" on="0"/>
        <pt x="131" y="28" on="0"/>
        <pt x="114" y="14" on="1"/>
        <pt x="473" y="14" on="1"/>
        <pt x="489" y="123" on="1"/>
        <pt x="503" y="123" on="1"/>
      </contour>
    </TTGlyph>
    <TTGlyph name="t" xMin="85" yMin="0" xMax="317" yMax="619">
      <contour>
        <pt x="210" y="619" on="1"/>
        <pt x="224" y="619" on="1"/>
        <pt x="190" y="375" on="1"/>
        <pt x="317" y="375" on="1"/>
        <pt x="315" y="361" on="1"/>
        <pt x="188" y="361" on="1"/>
        <pt x="139" y="14" on="1"/>
        <pt x="226" y="14" on="1"/>
        <pt x="225" y="0" on="1"/>
        <pt x="124" y="0" on="1"/>
        <pt x="174" y="361" on="1"/>
        <pt x="85" y="361" on="1"/>
        <pt x="87" y="375" on="1"/>
        <pt x="176" y="375" on="1"/>
      </contour>
    </TTGlyph>
    <TTGlyph name="thorn" xMin="-54" yMin="-250" xMax="479" yMax="750">
      <contour>
        <pt x="-52" y="-236" on="1"/>
        <pt x="24" y="-236" on="1"/>
        <pt x="161" y="736" on="1"/>
        <pt x="84" y="736" on="1"/>
        <pt x="86" y="750" on="1"/>
        <pt x="260" y="750" on="1"/>
        <pt x="258" y="736" on="1"/>
        <pt x="175" y="736" on="1"/>
        <pt x="116" y="321" on="1"/>
        <pt x="114" y="305" on="0"/>
        <pt x="108" y="273" on="0"/>
        <pt x="106" y="257" on="1"/>
        <pt x="121" y="284" on="0"/>
        <pt x="163" y="330" on="0"/>
        <pt x="216" y="363" on="0"/>
        <pt x="275" y="381" on="0"/>
        <pt x="306" y="381" on="1"/>
        <pt x="346" y="381" on="0"/>
        <pt x="413" y="351" on="0"/>
        <pt x="458" y="298" on="0"/>
        <pt x="479" y="227" on="0"/>
        <pt x="473" y="187" on="1"/>
        <pt x="467" y="146" on="0"/>
        <pt x="426" y="75" on="0"/>
        <pt x="366" y="23" on="0"/>
        <pt x="291" y="-8" on="0"/>
        <pt x="251" y="-8" on="1"/>
        <pt x="188" y="-8" on="0"/>
        <pt x="101" y="61" on="0"/>
        <pt x="88" y="115" on="1"/>
        <pt x="86" y="101" on="0"/>
        <pt x="83" y="75" on="0"/>
        <pt x="81" y="61" on="1"/>
        <pt x="39" y="-236" on="1"/>
        <pt x="121" y="-236" on="1"/>
        <pt x="119" y="-250" on="1"/>
        <pt x="-54" y="-250" on="1"/>
      </contour>
      <contour>
        <pt x="459" y="187" on="1"/>
        <pt x="464" y="224" on="0"/>
        <pt x="445" y="290" on="0"/>
        <pt x="403" y="339" on="0"/>
        <pt x="341" y="367" on="0"/>
        <pt x="304" y="367" on="1"/>
        <pt x="266" y="367" on="0"/>
        <pt x="197" y="339" on="0"/>
        <pt x="141" y="290" on="0"/>
        <pt x="103" y="224" on="0"/>
        <pt x="98" y="187" on="1"/>
        <pt x="93" y="149" on="0"/>
        <pt x="112" y="84" on="0"/>
        <pt x="154" y="34" on="0"/>
        <pt x="215" y="6" on="0"/>
        <pt x="253" y="6" on="1"/>
        <pt x="290" y="6" on="0"/>
        <pt x="360" y="34" on="0"/>
        <pt x="416" y="84" on="0"/>
        <pt x="454" y="149" on="0"/>
      </contour>
    </TTGlyph>
    <TTGlyph name="three" xMin="56" yMin="-8" xMax="468" yMax="650">
      <contour>
        <pt x="183" y="361" on="1"/>
        <pt x="434" y="636" on="1"/>
        <pt x="161" y="636" on="1"/>
        <pt x="151" y="568" on="1"/>
        <pt x="137" y="568" on="1"/>
        <pt x="149" y="650" on="1"/>
        <pt x="468" y="650" on="1"/>
        <pt x="233" y="398" on="1"/>
        <pt x="279" y="400" on="0"/>
        <pt x="356" y="371" on="0"/>
        <pt x="409" y="317" on="0"/>
        <pt x="434" y="240" on="0"/>
        <pt x="428" y="195" on="1"/>
        <pt x="422" y="153" on="0"/>
        <pt x="379" y="79" on="0"/>
        <pt x="316" y="24" on="0"/>
        <pt x="237" y="-8" on="0"/>
        <pt x="195" y="-8" on="1"/>
        <pt x="150" y="-8" on="0"/>
        <pt x="79" y="28" on="0"/>
        <pt x="56" y="58" on="1"/>
        <pt x="67" y="71" on="1"/>
        <pt x="87" y="42" on="0"/>
        <pt x="152" y="6" on="0"/>
        <pt x="194" y="6" on="1"/>
        <pt x="233" y="6" on="0"/>
        <pt x="308" y="36" on="0"/>
        <pt x="368" y="88" on="0"/>
        <pt x="408" y="157" on="0"/>
        <pt x="414" y="195" on="1"/>
        <pt x="420" y="234" on="0"/>
        <pt x="398" y="303" on="0"/>
        <pt x="353" y="354" on="0"/>
        <pt x="286" y="384" on="0"/>
        <pt x="247" y="384" on="1"/>
        <pt x="231" y="384" on="0"/>
        <pt x="198" y="372" on="0"/>
      </contour>
    </TTGlyph>
    <TTGlyph name="threequarters" xMin="125" yMin="-19" xMax="1030" yMax="736">
      <contour>
        <pt x="223" y="485" on="1"/>
        <pt x="416" y="697" on="1"/>
        <pt x="206" y="697" on="1"/>
        <pt x="198" y="645" on="1"/>
        <pt x="188" y="645" on="1"/>
        <pt x="197" y="708" on="1"/>
        <pt x="443" y="708" on="1"/>
        <pt x="262" y="513" on="1"/>
        <pt x="297" y="515" on="0"/>
        <pt x="356" y="492" on="0"/>
        <pt x="397" y="451" on="0"/>
        <pt x="416" y="391" on="0"/>
        <pt x="412" y="357" on="1"/>
        <pt x="407" y="324" on="0"/>
        <pt x="374" y="267" on="0"/>
        <pt x="325" y="225" on="0"/>
        <pt x="265" y="200" on="0"/>
        <pt x="232" y="200" on="1"/>
        <pt x="198" y="200" on="0"/>
        <pt x="143" y="228" on="0"/>
        <pt x="125" y="251" on="1"/>
        <pt x="134" y="261" on="1"/>
        <pt x="149" y="238" on="0"/>
        <pt x="199" y="211" on="0"/>
        <pt x="231" y="211" on="1"/>
        <pt x="262" y="211" on="0"/>
        <pt x="319" y="234" on="0"/>
        <pt x="366" y="274" on="0"/>
        <pt x="396" y="327" on="0"/>
        <pt x="401" y="357" on="1"/>
        <pt x="406" y="387" on="0"/>
        <pt x="389" y="440" on="0"/>
        <pt x="354" y="479" on="0"/>
        <pt x="302" y="502" on="0"/>
        <pt x="272" y="502" on="1"/>
        <pt x="260" y="502" on="0"/>
        <pt x="235" y="493" on="0"/>
      </contour>
      <contour>
        <pt x="407" y="-19" on="1"/>
        <pt x="504" y="171" on="0"/>
        <pt x="694" y="546" on="0"/>
        <pt x="791" y="736" on="1"/>
        <pt x="805" y="736" on="1"/>
        <pt x="708" y="546" on="0"/>
        <pt x="518" y="171" on="0"/>
        <pt x="421" y="-19" on="1"/>
      </contour>
      <contour>
        <pt x="871" y="10" on="1"/>
        <pt x="928" y="10" on="1"/>
        <pt x="946" y="136" on="1"/>
        <pt x="684" y="136" on="1"/>
        <pt x="1007" y="490" on="1"/>
        <pt x="958" y="147" on="1"/>
        <pt x="1030" y="147" on="1"/>
        <pt x="1029" y="136" on="1"/>
        <pt x="957" y="136" on="1"/>
        <pt x="939" y="10" on="1"/>
        <pt x="1001" y="10" on="1"/>
        <pt x="999" y="0" on="1"/>
        <pt x="869" y="0" on="1"/>
      </contour>
      <contour>
        <pt x="992" y="459" on="1"/>
        <pt x="708" y="147" on="1"/>
        <pt x="948" y="147" on="1"/>
      </contour>
    </TTGlyph>
    <TTGlyph name="threesuperior" xMin="78" yMin="376" xMax="281" yMax="700">
      <contour>
        <pt x="140" y="558" on="1"/>
        <pt x="264" y="693" on="1"/>
        <pt x="129" y="693" on="1"/>
        <pt x="124" y="660" on="1"/>
        <pt x="118" y="660" on="1"/>
        <pt x="123" y="700" on="1"/>
        <pt x="281" y="700" on="1"/>
        <pt x="165" y="576" on="1"/>
        <pt x="188" y="577" on="0"/>
        <pt x="225" y="563" on="0"/>
        <pt x="252" y="536" on="0"/>
        <pt x="264" y="498" on="0"/>
        <pt x="261" y="476" on="1"/>
        <pt x="258" y="455" on="0"/>
        <pt x="237" y="419" on="0"/>
        <pt x="206" y="392" on="0"/>
        <pt x="167" y="376" on="0"/>
        <pt x="146" y="376" on="1"/>
        <pt x="124" y="376" on="0"/>
        <pt x="89" y="394" on="0"/>
        <pt x="78" y="409" on="1"/>
        <pt x="83" y="415" on="1"/>
        <pt x="93" y="401" on="0"/>
        <pt x="125" y="383" on="0"/>
        <pt x="146" y="383" on="1"/>
        <pt x="165" y="383" on="0"/>
        <pt x="202" y="398" on="0"/>
        <pt x="231" y="423" on="0"/>
        <pt x="251" y="457" on="0"/>
        <pt x="254" y="476" on="1"/>
        <pt x="257" y="495" on="0"/>
        <pt x="246" y="529" on="0"/>
        <pt x="224" y="554" on="0"/>
        <pt x="191" y="569" on="0"/>
        <pt x="172" y="569" on="1"/>
        <pt x="164" y="569" on="0"/>
        <pt x="148" y="563" on="0"/>
      </contour>
    </TTGlyph>
    <TTGlyph name="two" xMin="6" yMin="0" xMax="427" yMax="658">
      <contour>
        <pt x="44" y="14" on="1"/>
        <pt x="390" y="14" on="1"/>
        <pt x="406" y="127" on="1"/>
        <pt x="420" y="127" on="1"/>
        <pt x="402" y="0" on="1"/>
        <pt x="6" y="0" on="1"/>
        <pt x="79" y="62" on="0"/>
        <pt x="217" y="183" on="0"/>
        <pt x="327" y="298" on="0"/>
        <pt x="399" y="405" on="0"/>
        <pt x="406" y="452" on="1"/>
        <pt x="414" y="508" on="0"/>
        <pt x="393" y="582" on="0"/>
        <pt x="351" y="626" on="0"/>
        <pt x="297" y="644" on="0"/>
        <pt x="272" y="644" on="1"/>
        <pt x="222" y="644" on="0"/>
        <pt x="154" y="609" on="0"/>
        <pt x="110" y="556" on="0"/>
        <pt x="87" y="495" on="0"/>
        <pt x="83" y="469" on="1"/>
        <pt x="73" y="399" on="0"/>
        <pt x="107" y="355" on="1"/>
        <pt x="97" y="347" on="1"/>
        <pt x="80" y="371" on="0"/>
        <pt x="64" y="428" on="0"/>
        <pt x="69" y="469" on="1"/>
        <pt x="75" y="509" on="0"/>
        <pt x="108" y="578" on="0"/>
        <pt x="160" y="629" on="0"/>
        <pt x="231" y="658" on="0"/>
        <pt x="274" y="658" on="1"/>
        <pt x="313" y="658" on="0"/>
        <pt x="373" y="629" on="0"/>
        <pt x="412" y="577" on="0"/>
        <pt x="427" y="506" on="0"/>
        <pt x="421" y="464" on="1"/>
        <pt x="413" y="406" on="0"/>
        <pt x="338" y="291" on="0"/>
        <pt x="230" y="179" on="0"/>
        <pt x="104" y="68" on="0"/>
      </contour>
    </TTGlyph>
    <TTGlyph name="twosuperior" xMin="79" yMin="375" xMax="288" yMax="700">
      <contour>
        <pt x="98" y="382" on="1"/>
        <pt x="269" y="382" on="1"/>
        <pt x="277" y="438" on="1"/>
        <pt x="284" y="438" on="1"/>
        <pt x="275" y="375" on="1"/>
        <pt x="79" y="375" on="1"/>
        <pt x="115" y="406" on="0"/>
        <pt x="184" y="465" on="0"/>
        <pt x="238" y="522" on="0"/>
        <pt x="274" y="575" on="0"/>
        <pt x="277" y="598" on="1"/>
        <pt x="281" y="626" on="0"/>
        <pt x="271" y="662" on="0"/>
        <pt x="250" y="684" on="0"/>
        <pt x="223" y="693" on="0"/>
        <pt x="211" y="693" on="1"/>
        <pt x="186" y="693" on="0"/>
        <pt x="152" y="676" on="0"/>
        <pt x="130" y="650" on="0"/>
        <pt x="119" y="619" on="0"/>
        <pt x="117" y="607" on="1"/>
        <pt x="112" y="572" on="0"/>
        <pt x="129" y="550" on="1"/>
        <pt x="124" y="546" on="1"/>
        <pt x="116" y="558" on="0"/>
        <pt x="108" y="586" on="0"/>
        <pt x="110" y="607" on="1"/>
        <pt x="113" y="626" on="0"/>
        <pt x="130" y="660" on="0"/>
        <pt x="155" y="686" on="0"/>
        <pt x="190" y="700" on="0"/>
        <pt x="212" y="700" on="1"/>
        <pt x="231" y="700" on="0"/>
        <pt x="261" y="686" on="0"/>
        <pt x="280" y="660" on="0"/>
        <pt x="288" y="625" on="0"/>
        <pt x="285" y="604" on="1"/>
        <pt x="281" y="576" on="0"/>
        <pt x="243" y="519" on="0"/>
        <pt x="190" y="463" on="0"/>
        <pt x="128" y="409" on="0"/>
      </contour>
    </TTGlyph>
</ttFont>
